<!-- created by svgstack.com | Attribution is required. --><svg width="113" height="50" viewBox="0 0 113 50" fill="none" xmlns="http://www.w3.org/2000/svg"><g clip-path="url(#clip0_809_337)"><path fill-rule="evenodd" clip-rule="evenodd" d="M56.5943 34.5539C56.39 34.5539 56.2398 34.707 56.2383 34.7104C56.2292 34.7172 52.611 38.1702 52.611 38.1702C51.2767 39.458 49.5052 38.9189 49.316 38.8562C49.316 38.8562 33.8495 34.637 33.8475 34.6356C30.8959 33.7453 30.3094 32.785 29.8578 31.6183C29.8578 31.6183 29.5955 30.8928 28.953 30.7029C28.953 30.7029 10.0466 25.1528 10.045 25.1528C9.27352 24.9147 8.84896 24.6968 8.54563 24.1095C8.54563 24.1095 7.50799 22.282 7.50458 22.2771C7.27419 21.839 6.85732 21.7927 6.83317 21.7893C5.4033 21.596 4.984 20.799 4.80668 20.4593L3.96331 18.9782C3.69952 18.5193 3.32228 18.4806 3.31069 18.4792C2.4977 18.4275 2.11073 18.2227 1.77459 17.6705C1.77459 17.6705 0.950009 16.299 0.9466 16.2923C0.541321 15.5436 0.681445 15.0073 0.868407 14.6895C1.2621 14.0374 1.98287 13.9876 2.27218 13.9775H47.4811C48.7612 13.9775 49.7955 14.3654 50.5602 15.1325C51.1095 15.6798 51.4877 16.3938 51.6833 17.2541C51.6867 17.2743 51.7399 17.4541 52.1268 17.4541H61.0626C61.4496 17.4541 61.5027 17.2744 61.506 17.2541C61.7017 16.3938 62.0799 15.6797 62.6292 15.1325C63.3939 14.3653 64.4281 13.9775 65.7083 13.9775H110.917C111.206 13.9876 111.927 14.0374 112.321 14.6895C112.508 15.0073 112.648 15.5436 112.243 16.2923C112.239 16.2991 111.415 17.6705 111.415 17.6705C111.079 18.2226 110.692 18.4275 109.879 18.4792C109.867 18.4806 109.49 18.5193 109.226 18.9782L108.383 20.4593C108.205 20.7989 107.786 21.596 106.356 21.7893C106.332 21.7927 105.915 21.839 105.685 22.2771C105.681 22.282 104.644 24.1095 104.644 24.1095C104.34 24.6969 103.916 24.9148 103.144 25.1528C103.143 25.1528 84.2364 30.7029 84.2364 30.7029C83.5939 30.8928 83.3316 31.6183 83.3316 31.6183C82.88 32.7849 82.2935 33.7453 79.3419 34.6356C79.34 34.637 63.8734 38.8562 63.8734 38.8562C63.6841 38.919 61.9127 39.4581 60.5784 38.1702C60.5784 38.1702 56.9602 34.7172 56.9511 34.7104C56.9496 34.707 56.7993 34.5539 56.5951 34.5539H56.5943H56.5943Z" fill="black"/><path fill-rule="evenodd" clip-rule="evenodd" d="M62.3274 17.4372C62.4854 16.7367 62.7878 16.1624 63.2221 15.7281C63.8235 15.1257 64.6606 14.8195 65.7066 14.8195C65.7066 14.8195 75.8191 14.8195 86.4752 14.8195C85.7613 15.3538 85.3864 16.0296 85.3612 16.0746C85.1207 16.5252 84.8202 17.0527 84.4628 17.6436H62.2541C62.3 17.5625 62.3276 17.4373 62.3276 17.4373L62.3275 17.4372L62.3274 17.4372ZM111.503 15.8894C111.491 15.9077 110.692 17.2377 110.692 17.2377C110.54 17.4875 110.446 17.6005 109.823 17.6402C109.82 17.6402 85.2279 17.6435 85.2279 17.6435C85.5028 17.1778 85.7391 16.7551 85.9371 16.387C85.9438 16.374 86.8149 14.8214 88.3617 14.8214L110.893 14.8195C111.129 14.8296 111.437 14.8562 111.599 15.1243C111.619 15.1605 111.665 15.2354 111.665 15.3701C111.665 15.4899 111.627 15.6599 111.503 15.8895H111.503L111.503 15.8894ZM108.494 18.5623L107.636 20.07C107.519 20.2932 107.338 20.6376 106.764 20.8357C106.284 20.9554 105.33 20.8791 105 20.8391L84.0796 19.4492C84.3501 19.0483 84.6009 18.6623 84.8293 18.2961H108.675C108.613 18.3757 108.551 18.4622 108.495 18.5622V18.5623L108.494 18.5623ZM104.938 21.8839C104.943 21.8776 104.115 23.3355 103.943 23.6384C103.9 23.695 103.665 23.951 102.899 23.8495L82.8522 21.1603C83.1271 20.8009 83.3874 20.4444 83.6314 20.1L104.927 21.513C104.958 21.5164 105.047 21.5265 105.176 21.5381C105.088 21.6381 105.008 21.7511 104.938 21.884L104.938 21.8839L104.938 21.8839ZM98.0433 25.775C97.2887 25.975 95.8125 25.7484 95.2999 25.6421C95.2999 25.6421 85.8704 23.7046 81.5251 22.8108C81.8266 22.4567 82.1159 22.1055 82.3903 21.7577L102.522 24.46L98.0431 25.775H98.0432L98.0433 25.775ZM91.215 27.7788C90.2465 28.0382 88.9823 27.6189 88.9702 27.6155L88.9552 27.6106C88.9552 27.6106 88.9532 27.6091 88.9518 27.6091L79.7319 24.7649C80.1889 24.3006 80.6232 23.8393 81.0323 23.377L95.1684 26.2827C95.1994 26.2874 95.4887 26.3474 95.8954 26.4039L91.2149 27.7788H91.215L91.215 27.7788ZM84.013 29.8942C83.3584 30.072 82.3937 29.6942 82.0734 29.5328C82.0734 29.5328 79.6064 28.3778 77.0732 27.1928C77.8341 26.5687 78.5446 25.9315 79.2069 25.2876L88.7679 28.2382C88.7862 28.2449 88.9602 28.3015 89.2263 28.3614L84.013 29.8942L84.013 29.8942ZM82.5371 31.3371C82.2588 32.051 81.9676 32.7863 80.0063 33.5235C79.1967 33.7751 78.2339 33.0592 78.2257 33.051C78.2223 33.0477 76.0388 31.4849 73.5524 29.7057C74.5625 29.082 75.548 28.3961 76.504 27.6474L81.7873 30.1203C81.8163 30.1353 82.3612 30.4101 83.0211 30.5332C82.7057 30.8927 82.5626 31.2637 82.537 31.3371H82.5371L82.5371 31.3371ZM75.1476 34.9084L74.4114 35.108C73.7916 35.2563 73.0351 34.6422 72.7931 34.3872C72.7931 34.3872 71.6047 33.151 70.0778 31.5564C71.0546 31.1139 72.0091 30.6197 72.9409 30.0738L77.8373 33.577C77.8571 33.5935 78.1368 33.8031 78.5478 33.9813C77.4599 34.2774 75.1476 34.9083 75.1476 34.9083V34.9084L75.1476 34.9084ZM68.674 36.6741C68.1571 36.7557 67.5571 35.9069 67.3832 35.5905L65.9065 33.0911C67.1127 32.7433 68.2918 32.3269 69.4387 31.836L72.3188 34.8416C72.3444 34.8668 72.6632 35.1977 73.1251 35.459L68.6741 36.674L68.674 36.6741L68.674 36.6741ZM63.7713 38.0103C63.4235 38.0904 63.1298 38.0551 62.8776 37.9026C62.3356 37.5712 62.1555 36.8088 62.1452 36.7639L61.3921 34.0462C62.7094 33.8631 63.9959 33.6052 65.2533 33.2723L66.8155 35.9172C66.8691 36.0118 67.186 36.5645 67.6614 36.9505L63.7712 38.0103L63.7713 38.0102L63.7713 38.0103ZM60.5941 37.0238C60.5941 37.0238 58.4995 35.0249 57.7889 34.3491C58.786 34.3144 59.7695 34.2409 60.7356 34.1279L61.5062 36.907C61.528 37.0036 61.6815 37.6128 62.1095 38.0973C61.5192 37.9292 61.3404 37.7544 60.5941 37.0239V37.0238V37.0238ZM56.9219 33.7133V25.2461H58.2735L60.5584 33.4906C59.3691 33.6269 58.1571 33.7018 56.9219 33.7133V33.7133ZM52.6293 33.4906L54.9157 25.2461H56.2673V33.712C55.0297 33.7019 53.8181 33.6255 52.6293 33.4907V33.4907L52.6293 33.4906ZM52.0293 37.561C51.7332 37.8489 51.4004 38.0103 51.0781 38.0971C51.509 37.6111 51.6588 37.0001 51.6815 36.9054L52.452 34.1312C53.4182 34.2428 54.4017 34.3157 55.3982 34.349C54.6002 35.108 52.0293 37.561 52.0293 37.561L52.0293 37.561ZM51.0424 36.7591C51.0424 36.7673 50.8651 37.5629 50.3091 37.9026C50.0569 38.0553 49.7642 38.0904 49.4163 38.0103L45.5262 36.9504C46.0015 36.5625 46.3218 36.0099 46.3768 35.9084C46.3749 35.9104 47.0358 34.7936 47.9318 33.2743C49.1897 33.6071 50.4781 33.8651 51.7954 34.0462L51.0423 36.7591H51.0424V36.7591ZM44.5136 36.6741L40.0627 35.4591C40.5244 35.1963 40.8447 34.8649 40.869 34.8403C40.869 34.8403 42.1414 33.5118 43.749 31.836C44.8973 32.3253 46.0731 32.7446 47.2798 33.0925L45.8093 35.5841C45.6302 35.9068 45.0301 36.7556 44.5137 36.6739L44.5136 36.674L44.5136 36.6741ZM38.7753 35.108L34.6397 33.9814C35.0522 33.8018 35.3339 33.5902 35.3571 33.5718C35.3537 33.5752 37.6676 31.9192 40.2467 30.0739C41.1786 30.6179 42.1331 31.114 43.1113 31.5565L40.3945 34.3873C40.1526 34.6423 39.396 35.2563 38.7753 35.1081V35.108L38.7753 35.108ZM33.176 33.5235C31.223 32.7862 30.9303 32.0525 30.6525 31.3405C30.6298 31.2772 30.4868 30.8975 30.1665 30.5332C30.8279 30.4081 31.3747 30.1338 31.4104 30.1154C31.4051 30.1169 34.0523 28.8807 36.6851 27.6474C37.6387 28.3961 38.6241 29.0835 39.6347 29.7057L34.9683 33.0443C34.9533 33.0593 33.9856 33.7785 33.1761 33.5235L33.176 33.5235ZM29.1761 29.8942C28.979 29.8356 26.7869 29.1917 23.9613 28.3614C24.2309 28.3015 24.4082 28.2416 24.428 28.2348C24.4198 28.2382 32.1759 25.845 33.9821 25.2876C34.6444 25.9301 35.355 26.5687 36.1158 27.1914L31.1237 29.528C30.7933 29.6942 29.8306 30.072 29.176 29.8942H29.1761L29.1761 29.8942ZM21.9775 27.7802C20.4403 27.3296 18.8197 26.8537 17.2912 26.4039C17.6989 26.3474 17.9902 26.2875 18.0206 26.2807C18.0192 26.2827 28.0004 24.2306 32.1567 23.377C32.5678 23.8378 32.9987 24.3006 33.4557 24.7649L24.2256 27.6126C24.2047 27.6189 22.9459 28.0367 21.9774 27.7802H21.9775L21.9775 27.7802ZM15.1507 25.7769C13.0739 25.1644 11.3861 24.6702 10.6658 24.4601L30.8003 21.7578C31.0752 22.1037 31.363 22.4548 31.664 22.8095L17.8877 25.6422C17.3766 25.7485 15.9071 25.9751 15.1506 25.777L15.1507 25.7769L15.1507 25.7769ZM10.2905 23.8494C9.52915 23.9509 9.29009 23.6997 9.24618 23.6398L8.24428 21.8756C8.17622 21.7443 8.09549 21.6346 8.01194 21.5379C8.14038 21.5263 29.5598 20.0998 29.5598 20.0998C29.8038 20.4442 30.0622 20.7988 30.3371 21.1601L10.2906 23.8494L10.2905 23.8495L10.2905 23.8494ZM6.42549 20.8356C5.85106 20.6375 5.66897 20.2931 5.55163 20.0699C5.2004 19.4729 4.73854 18.5806 4.51156 18.2961H28.3613C28.5902 18.6622 28.839 19.0482 29.111 19.4492L8.18765 20.8391C7.8592 20.8792 6.90462 20.9554 6.42543 20.8357V20.8356L6.42549 20.8356ZM3.37148 17.6434C2.79706 17.6004 2.67486 17.5323 2.49422 17.2357C2.49617 17.2376 1.74453 15.9879 1.68464 15.8893C1.56 15.6599 1.5189 15.4898 1.52426 15.37C1.53828 15.0638 1.74647 14.8276 2.2948 14.8193L24.8276 14.8212C26.3527 14.8212 27.2522 16.3868 27.2522 16.3868C27.4502 16.7549 27.6865 17.1776 27.9628 17.6433H3.37165L3.37146 17.6434L3.37148 17.6434ZM47.4806 14.8194C48.5284 14.8194 49.3637 15.1256 49.9655 15.728C50.3998 16.1623 50.7013 16.7366 50.8617 17.4371C50.8617 17.4371 50.894 17.5569 50.9351 17.6434H28.7269C28.3873 17.0859 27.8279 16.0744 27.8279 16.0744C27.8032 16.0295 27.4279 15.3536 26.7139 14.8193C37.37 14.8193 47.4807 14.8193 47.4807 14.8193L47.4806 14.8194L47.4806 14.8194ZM79.6403 19.1564V18.2961H84.0556C83.831 18.6487 83.5856 19.0182 83.3228 19.3994L79.6403 19.1564L79.6403 19.1564ZM79.6403 20.7307V19.8356L82.8643 20.0486C82.6262 20.3794 82.3716 20.7171 82.106 21.062L79.6403 20.7307H79.6403ZM79.6403 22.4249V21.3897L81.6344 21.6579C81.3663 21.9893 81.0852 22.3236 80.792 22.6612C80.2779 22.5549 79.8819 22.4747 79.6403 22.4249L79.6403 22.4249ZM79.6403 23.0924L80.2911 23.2253C80.0814 23.4566 79.8635 23.6914 79.6403 23.9229V23.0924ZM72.9135 25.246H78.3027C77.7534 25.7919 76.4569 26.8483 76.4143 26.8836C75.1038 26.2691 73.8256 25.6735 72.9136 25.246H72.9135V25.246ZM67.32 25.246H71.3701L75.8375 27.3363C74.909 28.0469 73.9544 28.6991 72.9734 29.2932C70.8175 27.7489 68.546 26.1229 67.32 25.2461V25.246L67.32 25.246ZM64.025 25.246H66.1978L72.356 29.656C71.4585 30.1704 70.5363 30.6381 69.5963 31.054C67.5683 28.9405 65.1259 26.3924 64.025 25.246V25.246ZM61.2725 25.246H63.1177L68.9527 31.3303C67.8508 31.7897 66.7195 32.1804 65.5621 32.5085L61.2724 25.246H61.2725V25.246ZM60.5125 25.246L64.908 32.6849C63.7046 32.9979 62.4723 33.2375 61.2149 33.4089L58.9517 25.246H60.5125V25.246ZM52.6752 25.246H54.2361L51.9728 33.4089C50.7135 33.2375 49.483 32.9978 48.2798 32.6867C49.9266 29.9009 52.1241 26.1793 52.6752 25.246V25.246ZM50.0696 25.246H51.9154L47.6257 32.5085C46.4683 32.1825 45.3383 31.7897 44.2341 31.3284C46.5741 28.8904 49.3898 25.9547 50.0695 25.2461L50.0696 25.246V25.246ZM46.99 25.246H49.1629L43.5935 31.054C42.6515 30.6381 41.7313 30.1705 40.8309 29.656C43.5037 27.7421 46.2896 25.7469 46.99 25.246V25.246ZM36.7735 26.8836C36.7242 26.8435 35.4334 25.7585 34.8852 25.246H40.2738L36.7735 26.8836V26.8836ZM41.8177 25.246H45.8668L40.2139 29.2917C39.2323 28.699 38.2778 28.0468 37.3508 27.3362C39.4729 26.3425 41.438 25.4237 41.8177 25.2459V25.246V25.246ZM33.5423 23.0924V23.916C33.321 23.6866 33.106 23.4552 32.8983 23.2253C33.1568 23.1707 33.3732 23.1272 33.5423 23.0924ZM33.5423 21.3896V22.4248L32.3955 22.6611C32.1028 22.3219 31.8231 21.9892 31.5554 21.6578L33.5423 21.3896L33.5423 21.3896ZM33.5423 19.8356V20.7307L31.0834 21.062C30.8173 20.7171 30.5651 20.3794 30.327 20.0486L33.5424 19.8356H33.5423H33.5423ZM33.5423 19.1564L29.8685 19.3994C29.6037 19.0182 29.3598 18.6487 29.1351 18.2961H33.5422V19.1564H33.5423L33.5423 19.1564Z" fill="white"/><path fill-rule="evenodd" clip-rule="evenodd" d="M34.2067 24.5919C34.2033 24.5885 34.2003 24.5851 34.197 24.5818V18.2995H78.987V24.5852C78.9856 24.5886 78.9836 24.5886 78.9821 24.5901L34.2068 24.592L34.2067 24.5919L34.2067 24.5919Z" fill="white"/><path fill-rule="evenodd" clip-rule="evenodd" d="M37.1731 19.3028H36.9862L35.0723 23.5847H35.5906L35.5988 23.56C35.7538 23.0388 35.9534 22.5398 36.1471 22.0606C36.1471 22.0606 36.1747 21.992 36.1872 21.9591C36.2345 21.9591 37.62 21.9591 37.6673 21.9591C37.8673 22.4146 38.0721 22.9373 38.2915 23.5614L38.3002 23.5846H39.0156L37.1732 19.3027V19.3028L37.1731 19.3028ZM36.3321 21.6327C36.3713 21.538 36.8736 20.3613 36.9335 20.2216C36.9924 20.3612 37.5045 21.5379 37.545 21.6327C37.4445 21.6327 36.4302 21.6327 36.332 21.6327H36.3321V21.6327Z" fill="black"/><path fill-rule="evenodd" clip-rule="evenodd" d="M39.2219 23.2803L39.2379 23.2967C39.464 23.5431 39.9736 23.6581 40.248 23.6581C41.1461 23.6581 41.7749 23.0789 41.7749 22.2471C41.7749 21.5578 41.2532 21.3548 40.7489 21.1553C40.3011 20.977 39.875 20.8124 39.875 20.3032C39.875 19.9167 40.1798 19.6375 40.5972 19.6375C40.931 19.6375 41.1831 19.8139 41.3111 20.1366L41.3198 20.1597H41.4338L41.6125 19.6191L41.5927 19.6008C41.3488 19.381 40.9734 19.3027 40.7063 19.3027C39.8692 19.3027 39.3291 19.7703 39.3291 20.496C39.3291 21.2351 39.8803 21.4496 40.3653 21.6428C40.804 21.8123 41.2155 21.9756 41.2155 22.4833C41.2155 22.9543 40.8643 23.3253 40.417 23.3253C40.0074 23.3253 39.7354 23.149 39.4707 22.7162L39.4606 22.6997H39.3466L39.2219 23.2803V23.2802L39.2219 23.2803Z" fill="black"/><path fill-rule="evenodd" clip-rule="evenodd" d="M45.1543 19.3912H42.0056V19.8322L42.0462 19.8288C42.4076 19.7906 42.7569 19.7573 43.3263 19.7554C43.3263 19.8302 43.3263 23.5982 43.3263 23.5982H43.9311C43.9311 23.5982 43.9311 19.8322 43.9311 19.7573C44.3586 19.7573 44.7673 19.7819 45.1494 19.8288L45.1919 19.8337V19.3912H45.1543V19.3912Z" fill="black"/><path fill-rule="evenodd" clip-rule="evenodd" d="M47.3238 19.3027C45.9881 19.3027 45.0538 20.2032 45.0538 21.4896C45.0538 22.7876 45.9624 23.6581 47.3122 23.6581C48.7073 23.6581 49.6469 22.7495 49.6469 21.3983C49.6469 19.95 48.4793 19.3027 47.3238 19.3027V19.3027ZM48.442 22.9108C48.1449 23.2252 47.772 23.3852 47.3285 23.3852C46.3508 23.3852 45.7184 22.6698 45.7184 21.5631C45.7184 20.3366 46.3575 19.5758 47.3836 19.5758C47.8676 19.5758 48.3246 19.7888 48.6067 20.1448C48.9168 20.541 48.9801 20.954 48.9801 21.4482C48.982 21.4748 48.9834 21.5047 48.9834 21.5332C48.9834 21.9356 48.8198 22.5066 48.4419 22.9109L48.442 22.9108L48.442 22.9108Z" fill="black"/><path fill-rule="evenodd" clip-rule="evenodd" d="M53.8403 19.3912H53.465C53.465 19.3912 53.465 22.4215 53.465 22.4949C53.4616 22.4949 53.4602 22.4949 53.4582 22.4949C53.4365 22.4698 50.5931 19.3912 50.5931 19.3912H50.3038V23.5848H50.7164C50.7164 23.5848 50.7164 20.4143 50.7164 20.3395C50.7198 20.3395 50.7218 20.3395 50.7251 20.3395C50.7473 20.3646 53.3167 23.2089 53.3167 23.2089L53.639 23.5848H53.6582H53.8776V19.3912H53.8404H53.8403L53.8403 19.3912Z" fill="black"/><path fill-rule="evenodd" clip-rule="evenodd" d="M60.6166 19.3911H60.4683L59.4524 21.233C59.4524 21.233 58.8099 22.4049 58.7515 22.5098C58.1249 21.4645 57.5607 20.3645 57.0801 19.4109L57.07 19.3911H56.8569L56.8536 19.4258C56.7937 20.0451 56.4328 22.5696 56.2754 23.543L56.2672 23.5845H56.7754V23.5483C56.7754 22.9575 56.8802 22.0769 56.9918 21.1431C56.9918 21.1431 57.0391 20.7306 57.0585 20.5659C57.13 20.7021 57.9189 22.2002 58.2203 22.8174L58.5613 23.5198H58.6753L58.685 23.4966C59.0361 22.6908 59.5309 21.7706 60.2086 20.5591C60.3047 21.2812 60.4318 22.7242 60.5018 23.5512L60.5057 23.5846H61.1482L61.1424 23.543C60.9975 22.5261 60.8395 21.1798 60.654 19.4258L60.6506 19.3911H60.6168H60.6166V19.3911Z" fill="black"/><path fill-rule="evenodd" clip-rule="evenodd" d="M63.493 19.3028H63.305L61.3901 23.5847H61.9114L61.9181 23.56C62.0736 23.034 62.2741 22.533 62.4689 22.0504C62.4689 22.0504 62.493 21.9905 62.5046 21.9591C62.5519 21.9591 63.9374 21.9591 63.9857 21.9591C64.1895 22.4248 64.3992 22.9605 64.6089 23.5614L64.6176 23.5846H65.334L63.493 19.3027V19.3028V19.3028ZM62.651 21.6327C62.6901 21.538 63.193 20.3612 63.2528 20.2216C63.3127 20.3612 63.8234 21.5379 63.8645 21.6327C63.7635 21.6327 62.75 21.6327 62.651 21.6327V21.6327Z" fill="black"/><path fill-rule="evenodd" clip-rule="evenodd" d="M67.1752 21.5129C67.9321 21.3598 68.3848 20.9288 68.3848 20.3462C68.3848 19.7057 67.9355 19.3912 67.0086 19.3912H65.6946V23.5848H66.2979C66.2979 23.5848 66.2979 21.6477 66.2979 21.5747C66.3452 21.5747 66.4477 21.5747 66.4738 21.5747C66.4936 21.5994 66.9438 22.1288 66.9438 22.1288C66.9419 22.1269 67.6545 23.049 67.6545 23.049L68.0448 23.5848H68.0655H68.8351C68.8351 23.5848 67.2468 21.6012 67.1753 21.5129H67.1752L67.1752 21.5129ZM66.2978 21.2733C66.2978 21.2066 66.2978 19.7555 66.2978 19.6888C66.5466 19.6772 66.9321 19.6608 67.1418 19.6941C67.5601 19.7622 67.7732 20.0067 67.7732 20.4177C67.7732 20.839 67.4963 21.1467 67.0302 21.24C66.7679 21.2931 66.451 21.2834 66.2978 21.2733V21.2733Z" fill="black"/><path fill-rule="evenodd" clip-rule="evenodd" d="M71.8757 19.3912H68.7261V19.8322L68.7672 19.8288C69.129 19.7906 69.4778 19.7573 70.0454 19.7554C70.0454 19.8302 70.0454 23.5982 70.0454 23.5982H70.6536C70.6536 23.5982 70.6536 19.8322 70.6536 19.7573C71.0798 19.7573 71.4889 19.7819 71.871 19.8288L71.9136 19.8337V19.3912H71.8759H71.8757L71.8757 19.3912Z" fill="black"/><path fill-rule="evenodd" clip-rule="evenodd" d="M72.4108 23.5849H72.9816V19.3912H72.4108V23.5849Z" fill="black"/><path fill-rule="evenodd" clip-rule="evenodd" d="M77.0324 19.3912C77.0324 19.3912 77.0324 22.4215 77.0324 22.4949C77.0305 22.4949 77.029 22.4949 77.0275 22.4949C77.0049 22.4698 74.1624 19.3912 74.1624 19.3912H73.8726V23.5848H74.2856C74.2856 23.5848 74.2856 20.4143 74.2856 20.3395C74.289 20.3395 74.2905 20.3395 74.2924 20.3395C74.3146 20.3646 76.8875 23.2089 76.8875 23.2089L77.2097 23.5848H77.445V19.3912H77.0324V19.3912Z" fill="black"/></g><defs><clipPath id="clip0_809_337"><rect width="111.82" height="50" fill="white" transform="translate(0.684814)"/></clipPath></defs></svg> 