<!-- created by svgstack.com | Attribution is required. --><svg width="167" height="64" viewBox="0 0 167 64" fill="none" xmlns="http://www.w3.org/2000/svg"><g clip-path="url(#clip0_809_254)"><path d="M137.822 44.9033C137.859 45.1397 138.169 45.3662 138.47 45.4734C138.58 45.5103 138.635 45.5842 138.519 45.8355C137.662 47.673 136.873 48.7323 135.799 50.3289C134.81 51.8041 133.697 52.955 132.349 54.0621C130.315 55.7448 127.491 57.5765 125.156 56.3452C124.119 55.807 123.671 54.3556 123.691 53.1806C123.74 49.8766 125.21 46.4845 127.924 43.1508C131.233 39.0772 134.891 36.9643 137.291 38.1192C139.775 39.3039 138.983 42.1795 137.87 44.4367C137.784 44.6115 137.784 44.7593 137.821 44.9021M164.474 19.1579C164.653 18.8427 164.465 18.6124 164.067 18.6124C161.992 18.6124 159.27 18.6171 157.109 18.6171C156.594 18.6171 156.328 18.6786 156.085 19.1589C155.287 20.6875 145.564 35.2597 143.754 38.0895C143.449 38.5205 143.077 38.4601 143.034 37.9662C142.85 36.2855 141.399 34.3535 139.112 33.429C137.369 32.7221 135.666 32.594 133.894 32.8292C130.696 33.259 127.847 34.9459 125.342 36.8486C121.567 39.7185 118.31 43.4385 114.105 46.187C111.81 47.6833 108.666 48.9882 106.563 47.0403C104.659 45.2755 104.874 41.3559 107.787 38.3242C108.093 38.0065 108.462 38.2748 108.404 38.5568C108.129 39.9278 108.465 41.2914 109.507 42.2474C110.778 43.3865 112.596 43.515 114.153 42.7547C115.989 41.8446 117.068 40.0875 117.383 38.0931C117.869 34.9994 115.488 32.2708 112.508 32.0518C110.088 31.8819 107.766 32.7241 105.504 34.591C104.37 35.5319 103.726 36.2269 102.745 37.6218C102.506 37.9654 102.139 37.9997 102.15 37.4923C102.261 33.5314 100.624 31.3029 97.3499 31.2303C94.8078 31.1687 92.0926 32.5486 89.976 34.2361C87.6557 36.0994 85.627 38.5688 83.452 40.8892C83.181 41.1749 82.9458 41.1613 82.8694 40.6071C82.8079 37.9827 82.1441 35.4408 80.9297 33.6357C80.4999 33.0076 79.5951 32.6972 78.8351 33.1208C78.4841 33.3129 77.2633 33.8745 76.3742 34.5903C75.9333 34.9536 75.7609 35.4795 75.9567 36.1535C77.129 40.0743 76.8716 44.5321 75.2806 48.2971C73.8198 51.7454 70.9813 54.8554 67.6447 55.9081C65.4468 56.6051 63.162 56.2641 61.748 54.3154C59.8062 51.6261 60.5903 46.949 63.485 43.0655C66.0395 39.6458 69.7347 37.4737 73.4203 36.0749C73.8538 35.9075 73.9437 35.6291 73.8205 35.2609C73.621 34.655 73.3008 33.8298 73.1715 33.4532C72.8328 32.553 71.8866 32.4076 70.7308 32.5332C68.0528 32.8448 65.6369 33.7623 63.2507 35.0401C57.0019 38.3863 53.869 44.8625 52.4961 48.3271C51.8348 49.9916 51.2696 51.0297 50.5391 51.9504C49.5539 53.1885 48.3172 54.3158 46.0561 56.3016C45.8517 56.4838 45.699 56.8631 45.8714 57.2165C46.1017 57.6943 47.2778 59.3552 47.6096 59.5034C47.9778 59.6844 48.405 59.4294 48.5762 59.3087C50.1584 58.2361 52.0514 56.5361 52.9777 55.3831C53.3028 54.9878 53.6366 55.1541 53.809 55.7538C54.6735 58.8381 56.9372 61.3564 60.0673 62.4099C65.7969 64.3421 71.7396 61.5454 76.2254 56.6765C79.0762 53.5818 80.105 51.5913 81.1978 50.2385C83.0497 47.944 86.7027 42.8111 91.0536 39.5155C92.6492 38.3001 94.5373 37.373 95.4867 37.9888C96.249 38.4826 96.4954 39.6302 95.2725 41.8539C90.8364 49.9545 84.3096 59.472 83.1126 61.7799C82.8934 62.1801 83.088 62.4952 83.5042 62.4952C85.8255 62.4838 88.1266 62.4896 90.2338 62.4896C90.5847 62.4773 90.7413 62.3123 90.9174 62.0647C94.3218 56.7358 97.5255 51.6639 100.96 46.42C101.152 46.1109 101.329 46.346 101.336 46.4815C101.41 47.6982 101.706 49.3622 102.429 50.455C103.727 52.4751 105.566 53.3432 107.606 53.3565C109.23 53.3811 110.051 53.1286 111.802 52.4746C113.226 51.9463 114.37 51.2531 115.247 50.6256C115.759 50.2685 115.849 50.8658 115.837 50.9569C115.049 55.1874 116.022 60.2 120.226 62.2784C125.258 64.7593 130.786 61.2722 133.967 58.1243C134.278 57.8214 134.612 57.8533 134.644 58.5073C134.718 59.7092 135.255 61.1354 136.249 62.1335C138.914 64.8085 144.293 63.7483 149.691 59.5704C153.157 56.8954 156.783 53.1162 160.058 49.1143C160.181 48.9591 160.27 48.7104 160.034 48.4579C159.535 47.9358 158.813 47.3385 158.319 46.8785C158.093 46.6864 157.762 46.7418 157.572 46.8851C154.215 50.0783 151.192 53.7199 146.824 56.7313C145.351 57.7596 143.003 58.5892 141.949 57.1613C141.537 56.6071 141.584 55.8408 141.986 54.835C143.259 51.659 163.423 20.9595 164.47 19.1489" fill="black"/><path d="M69.6064 22.8624C69.6926 23.318 69.8701 23.4068 70.0769 23.3686C71.104 23.163 72.228 22.3181 72.8935 21.3388C73.4994 20.4509 73.7838 19.1697 73.1816 18.6563C72.6446 18.1944 71.7704 18.3249 71.1223 18.8975C69.8316 20.0379 69.4397 21.6559 69.606 22.8633M18.2139 62.3803C10.6956 62.4295 4.07203 57.7865 3.31196 49.7433C2.88957 45.2862 4.14939 41.314 6.67158 38.0414C8.90966 35.1254 12.6967 32.7029 15.9022 32.1111C16.9453 31.9202 18.3468 32.0372 18.9262 32.7317C19.835 33.7896 19.5738 34.9516 18.665 35.4152C16.2194 36.6638 13.2767 38.8015 11.8206 41.7203C10.6397 44.1027 10.4011 46.9738 12.2049 49.7091C15.2241 54.2675 23.6402 54.3928 31.4653 47.1231C33.4033 45.3438 35.1375 43.6344 36.9004 41.6094C40.3469 37.6687 41.4933 36.2327 46.0747 29.878C46.1239 29.8041 46.1485 29.7079 46.1239 29.6611C46.0869 29.5749 46.0255 29.5626 45.8888 29.5502C42.8304 29.6364 40.1639 30.5466 37.5722 32.4835C36.8259 33.0278 35.7517 32.9514 35.2814 32.2347C34.758 31.4244 35.1337 30.3695 35.9945 29.7738C40.1638 26.8742 44.7183 26.3483 49.3694 25.5634C49.3656 25.5634 49.6922 25.5756 49.9582 25.2259C51.8674 22.7755 53.3092 20.5652 55.3445 18.0871C57.3953 15.5728 60.0444 13.2639 62.0683 11.5296C64.8934 9.10043 66.7053 8.28296 68.5466 7.28103C69.0318 7.02735 68.4851 6.72445 68.3373 6.72445C58.0569 4.79226 47.3713 2.292 37.1616 6.07165C30.0907 8.71034 26.992 14.3176 28.4825 18.0643C29.5428 20.7221 33.0382 21.1542 36.3107 19.5528C39.0287 18.221 41.544 16.0747 43.3271 13.3118C44.3246 11.7773 46.4266 12.8844 45.2909 15.5488C42.3032 22.5709 36.5956 28.141 29.6432 28.3762C23.7263 28.5683 19.9087 24.2154 19.9212 18.8453C19.9458 8.25336 31.737 1.27621 44.1292 0.233151C59.053 -1.00017 73.1881 2.97511 88.0058 4.77245C99.3588 6.14727 110.243 6.17587 121.655 3.55443C123.004 3.26134 123.95 4.12212 123.862 5.48463C123.752 7.45413 122.226 9.35094 118.467 11.4007C114.193 13.745 109.721 14.4563 105.051 14.4945C93.7583 14.593 83.239 10.1866 72.3535 7.82127C72.3658 8.29785 72.4914 8.86547 72.0924 9.16631C66.0628 13.6138 60.6125 18.1302 56.9622 24.4737C56.8391 24.6203 56.9006 24.7594 57.1186 24.7447C60.2879 24.576 63.138 24.4946 66.0969 24.2582C66.6141 24.2089 66.6336 24.0858 66.588 23.7089C66.3257 21.5224 66.9649 19.0291 68.8882 17.314C70.8567 15.5491 73.3215 15.3484 74.9554 16.6195C76.813 18.067 76.6485 20.6702 75.6326 22.6224C74.5982 24.6033 72.8898 25.6627 71.2502 26.1771C71.2502 26.1771 70.9054 26.251 70.9571 26.5638C71.0187 27.0638 73.2556 28.3018 73.4467 28.6316C73.6314 28.9456 73.533 29.4321 73.1968 29.8052C72.9603 30.0762 72.5897 30.3298 72.1156 30.3212C71.7326 30.3136 71.4998 30.1809 71.0097 29.9161C70.0073 29.373 68.7545 28.4801 67.9188 27.4274C67.6343 27.0715 67.489 27.0643 66.7784 27.1037C63.5766 27.2884 58.5842 27.7711 55.2017 28.1935C54.3816 28.2921 54.2608 28.4484 54.0921 28.7328C48.6991 37.6259 42.9408 47.2161 36.6185 53.6369C29.8373 60.5213 24.2005 62.3339 18.2167 62.3808" fill="black"/></g><defs><clipPath id="clip0_809_254"><rect width="166.368" height="63.6" fill="white"/></clipPath></defs></svg> 