<!-- created by svgstack.com | Attribution is required. --><svg width="84" height="83" viewBox="0 0 84 83" fill="none" xmlns="http://www.w3.org/2000/svg"><g clip-path="url(#clip0_601_24781)"><path d="M41.6258 7.05816e-05C37.3337 0.0299202 33.0472 0.312842 28.7885 0.847362L27.8478 0.975321L26.6789 1.1344C26.4264 1.16553 26.0564 1.22432 25.8627 1.26582C25.6265 1.31402 25.3889 1.35554 25.1503 1.39032C24.844 1.43458 24.5384 1.48416 24.2338 1.53903L23.3174 1.70503C22.6499 1.82261 20.6787 2.22378 19.6827 2.44857C16.003 3.27165 11.9187 4.50282 10.2414 5.29824C9.05521 5.86195 7.57158 7.04815 7.02517 7.86778C6.52383 8.69096 6.18677 9.60349 6.03263 10.5549C5.93233 11.1013 5.92196 11.3503 5.91504 13.4322C5.90467 15.9499 5.94617 17.6618 6.06721 19.882C6.64129 30.3227 8.47421 39.0412 11.898 47.5487C14.1879 53.4715 17.2521 59.065 21.0107 64.1833C24.469 68.897 28.3423 73.0781 32.7517 76.8754C35.4112 79.1579 38.7588 81.7343 39.9312 82.3914C41.2661 83.1419 42.767 83.2007 44.0466 82.5539C45.0841 82.0248 48.826 79.1855 51.3541 77.0068C55.2922 73.5795 58.9033 69.7937 62.1406 65.698C63.9044 63.4674 67.4699 57.9029 68.9778 55.0291C74.5872 44.3428 77.793 31.2254 78.1458 17.6376C78.2495 15.4173 78.3014 13.4046 78.2495 12.3498C78.2373 12.0865 78.2177 11.8235 78.1908 11.5613L78.1942 10.1883L77.6236 9.00211C77.3073 8.30671 76.8573 7.68037 76.2991 7.15882C75.6212 6.44986 75.0125 6.0487 73.5912 5.36395C70.1432 3.70395 65.5056 2.3967 59.9031 1.49753C58.1221 1.19327 56.3321 0.944152 54.5357 0.750529L53.1386 0.584529C52.6672 0.529222 52.1944 0.486554 51.7207 0.456571C49.4326 0.263688 47.1402 0.125316 44.8455 0.0415706C43.7727 0.00555265 42.6992 -0.0071309 41.6258 0.00352892V7.05816e-05ZM42.2033 2.87049C53.7542 2.84628 63.396 4.37832 71.2499 7.47699C74.1549 8.61824 74.6736 8.97445 75.2615 10.216C75.7042 11.1497 75.7111 11.2881 75.5866 16.064C74.9053 42.3128 65.9033 61.7797 47.5292 76.7267C45.302 78.5423 42.978 80.1954 42.397 80.3787C42.11 80.4686 41.5843 80.2645 40.7266 79.7319C39.0251 78.6772 34.7852 75.2257 31.9425 72.5801C27.2668 68.2399 22.5808 62.423 19.3887 56.9969C12.5758 45.4322 9.03792 31.9447 8.61946 15.9603C8.49842 11.2915 8.50879 11.1463 8.95146 10.2125C9.53938 8.9779 10.065 8.61478 12.8594 7.5254C20.5715 4.50628 28.7158 3.11257 39.869 2.8947C40.6575 2.88086 41.4356 2.87049 42.2033 2.87049ZM38.949 5.31899L38.7934 5.32936C38.1017 5.41236 37.2441 6.04178 36.8325 6.78878C35.8884 8.50065 36.0717 12.2944 37.1645 13.6155C37.5899 14.1343 37.8147 14.2242 38.6205 14.2242C39.1565 14.2242 39.7756 14.0859 40.028 13.9026C40.2805 13.7227 40.6851 13.1867 40.9272 12.7094C41.5635 11.4644 41.5774 8.33465 40.9514 6.94095C40.5503 6.05215 39.7998 5.4089 39.0908 5.32936L39.0148 5.32245H38.9456L38.949 5.31899ZM42.7325 5.52649L42.6737 9.79061C42.6486 11.1554 42.637 12.5203 42.6391 13.8853C42.6558 13.9564 42.6789 14.0259 42.7083 14.0928C42.7947 14.1101 43.016 14.1239 43.3065 14.1239H43.936V12.2944C43.936 10.5445 43.9533 10.4719 44.3717 10.5342C44.7175 10.586 44.932 10.9699 45.4334 12.412L46.0628 14.2242H47.5845L46.9136 12.2737L46.2461 10.3197L46.7925 9.79753C47.46 9.15428 47.6675 8.22053 47.3805 7.14499C47.0658 5.94495 46.2669 5.52995 44.2991 5.52649H42.7325ZM50.9495 5.73399C49.203 5.73399 48.4145 7.05853 48.4249 9.98082C48.4249 11.9106 48.7154 13.1279 49.3379 13.8299C50.0572 14.6357 51.6204 14.7775 52.606 14.1204C53.1386 13.7677 53.4775 12.6818 53.4879 11.3261C53.4879 10.9664 53.474 10.6829 53.4256 10.4823C53.3115 10.1572 52.976 10.1157 52.0181 10.0223L51.2054 9.94278C51.0636 10.0258 51.0532 10.2194 51.0532 10.6483V10.7866L51.0567 10.8489C51.0774 11.2569 51.1777 11.3261 51.5616 11.3261C51.9697 11.3261 52.0665 11.4299 52.0665 11.8587C52.0665 13.0864 51.0982 13.6294 50.3719 12.8132C49.3759 11.6927 49.6007 7.4182 50.6728 7.07236C51.1224 6.92711 51.8659 7.47007 51.8659 7.9404C51.8659 8.12024 52.1149 8.21707 52.5749 8.21707C53.3841 8.21707 53.474 7.94386 52.983 6.97899C52.8111 6.58909 52.5243 6.26097 52.1609 6.03848C51.7975 5.816 51.3749 5.70976 50.9495 5.73399ZM32.9696 5.8654C32.592 5.85492 32.2141 5.8711 31.8387 5.91382L30.6179 6.04524L30.5073 14.6842L31.9874 14.5389C32.8001 14.4559 33.682 14.283 33.9552 14.155C34.7887 13.7469 35.2625 12.8893 35.2797 11.7515C35.2901 10.9561 35.1933 10.6137 34.8544 10.2679C34.4186 9.8252 34.4186 9.81828 34.8025 9.17503C35.0309 8.81749 35.1591 8.40517 35.1737 7.98115C35.1883 7.55713 35.0888 7.13697 34.8855 6.76457C34.5985 6.20086 33.976 5.90345 32.9696 5.8654ZM54.7121 6.12132V14.8017L55.4211 14.8847L56.1335 14.9712V13.0449C56.1335 10.9111 56.0678 10.9907 57.6102 11.25L58.371 11.3814V13.3043C58.371 14.9643 58.4195 15.2444 58.7273 15.3274C59.6264 15.566 59.6022 15.6732 59.5434 11.1705L59.4881 6.87178L58.9313 6.80607L58.371 6.74036V10.088L57.5065 9.96353C56.0885 9.76295 56.1335 9.8252 56.1335 8.01995C56.1335 6.82682 56.0643 6.35303 55.881 6.35303C55.6399 6.33444 55.4012 6.29157 55.1686 6.22507L54.8366 6.1317L54.7121 6.12132ZM29.0928 6.23199L28.4011 6.31499C27.7198 6.39453 27.6956 6.43257 27.1665 8.18595C26.8725 9.17157 26.5094 10.3509 26.3642 10.8074L26.0979 11.6374L25.4373 9.46207C25.0742 8.26549 24.7042 7.20724 24.6143 7.1104C24.5278 7.01357 24.1716 6.99628 23.8258 7.07582L23.1963 7.21415V11.4472C23.1963 15.4761 23.2136 15.6767 23.5871 15.6767C23.8101 15.6754 24.0317 15.6404 24.2442 15.5729C24.4448 15.4934 24.5001 15.0888 24.4517 14.0617C24.4152 13.3209 24.4152 12.5787 24.4517 11.8379C24.514 11.0771 24.5762 11.1878 25.3094 13.3804L26.1013 15.7493L26.8345 13.0933L27.5677 10.4408L27.5988 11.6858C27.6512 11.8424 27.6548 12.0112 27.6092 12.1699L27.6265 12.7682C27.6749 14.7672 27.7302 15.0749 27.9965 14.9712C28.2238 14.8935 28.4618 14.8515 28.702 14.8467C29.0755 14.8467 29.0928 14.6461 29.0928 10.5376V6.23199ZM43.936 6.71615L44.7936 6.83028C46.011 6.99974 46.5228 7.85395 45.9176 8.70124C45.6409 9.08165 44.3406 9.3929 44.0847 9.13353C44.0051 9.05053 43.936 8.46953 43.936 7.84703V6.71615ZM38.8799 6.80261C39.1669 6.81645 39.4436 7.0447 39.6649 7.49428C40.1214 8.42111 40.0868 11.6789 39.6096 12.4224C39.1496 13.1383 38.5548 13.1383 38.0948 12.4224C37.832 12.0143 37.7144 11.3538 37.6729 9.9912C37.621 8.38653 37.6729 8.01649 38.036 7.43203C38.2989 6.99974 38.5928 6.79224 38.8799 6.80261ZM31.939 7.18303H32.6099C33.4226 7.18303 33.7685 7.49428 33.7685 8.23436C33.7685 8.89145 33.4918 9.15082 32.5995 9.32374L31.9425 9.4517V8.31736L31.939 7.18303ZM61.3245 7.20032C61.283 7.21804 61.2462 7.24529 61.2173 7.27986V15.8565L61.7775 15.943C62.0853 15.9879 62.4035 16.0433 62.4899 16.0571C62.5729 16.0744 62.6421 14.1862 62.6421 11.8552C62.6421 9.52778 62.5729 7.5842 62.4899 7.53232C62.2593 7.43796 62.021 7.3639 61.7775 7.31099L61.3245 7.20032ZM19.8971 7.95424C19.7367 7.96721 19.578 7.99618 19.4233 8.0407C18.8008 8.21361 18.7939 8.24128 18.04 11.5855C17.625 13.4392 17.1546 15.4934 17.0025 16.1574L16.7223 17.3609L17.3656 17.2226C17.6296 17.1722 17.8887 17.0993 18.1403 17.0047C18.2094 16.9632 18.3305 16.4168 18.41 15.7874C18.5656 14.5078 18.5518 14.5285 19.5651 14.3349L20.3017 14.1931L20.5438 15.2375C20.7859 16.2612 20.8066 16.2784 21.436 16.1574C21.6849 16.1199 21.9286 16.0538 22.1623 15.9603C22.266 15.8738 20.3363 8.16866 20.1668 7.99228C20.1323 7.9577 20.032 7.94386 19.8971 7.95424ZM64.0635 8.01649V12.2564C64.0635 15.5142 64.1223 16.5032 64.3194 16.5067C64.4577 16.5067 64.7759 16.5655 65.0249 16.6347C65.4675 16.7557 65.4745 16.7246 65.5333 14.2346L65.5886 11.71L66.7022 14.5354C67.3108 16.0917 67.9541 17.4474 68.1235 17.5477C68.9328 18.0318 68.9535 17.9142 68.8982 13.4668L68.8429 9.17849L68.2826 9.02978L67.7224 8.87761V11.1878C67.7155 13.8403 67.6947 13.8299 66.4774 10.7036C65.5851 8.4142 65.2981 8.01303 64.5338 8.01303L64.0635 8.01649ZM13.5718 9.88053C13.5303 9.88053 13.2087 9.98428 12.8559 10.1053L12.2161 10.3336V11.4057L12.2749 14.8225C12.3026 16.4479 12.3441 17.7448 12.434 18.9102C12.472 18.9241 12.517 18.9172 12.5723 18.8929C12.7695 18.8134 13.6825 18.471 14.6058 18.1252C16.1828 17.5407 16.2831 17.4681 16.2831 16.9009C16.2831 16.5724 16.252 16.2992 16.214 16.2992C16.1759 16.2992 15.6122 16.4859 14.962 16.7142C14.5493 16.8658 14.1318 17.0043 13.7101 17.1292C13.6721 17.1292 13.641 15.4969 13.641 13.5049C13.641 11.5094 13.6064 9.88053 13.5718 9.88053ZM70.6412 9.88053C70.6032 9.88053 70.5721 11.8241 70.5721 14.2V18.5194L71.2291 18.7339C71.5957 18.8549 71.9139 18.9587 71.9416 18.9725C71.9692 18.9829 71.9934 17.0462 71.9934 14.6634V10.3301L71.3536 10.1019C71.1204 10.0141 70.8826 9.93905 70.6412 9.87707V9.88053ZM32.7794 10.5929C33.6889 10.6275 34.2561 11.6201 33.7443 12.5573C33.5264 12.955 33.2601 13.1072 32.6964 13.1556L31.939 13.2178V11.9867C31.939 10.9111 31.9909 10.7417 32.3678 10.6414C32.5019 10.605 32.6406 10.5886 32.7794 10.5929ZM19.4579 10.6033L19.7276 11.7169C19.8763 12.3394 19.9248 12.6334 19.8694 12.8097C19.8679 12.8348 19.8609 12.8592 19.8489 12.8813C19.837 12.9034 19.8204 12.9227 19.8003 12.9377C19.7744 12.9642 19.7454 12.9875 19.7138 13.0069C19.2262 13.3216 18.8907 13.2247 19.0221 12.7994C19.0913 12.5849 19.2158 12.0039 19.2988 11.5059L19.4579 10.6033ZM43.2478 16.3442C41.3284 16.3891 39.6718 16.9321 38.7312 17.8866C37.8908 18.7408 37.7974 19.6503 38.496 20.1172C39.3779 20.7017 40.8235 20.878 45.9937 21.044C50.7247 21.1962 51.2918 21.2515 52.1149 21.6562C53.1248 22.1576 53.564 22.8078 53.5328 23.7657C53.5121 24.5612 52.9899 25.4154 52.5195 25.4154C51.7276 25.4154 49.0993 24.7444 47.2421 24.0666C46.4962 23.7813 45.7326 23.5444 44.9562 23.3577L44.8247 23.3473C44.3267 23.3611 43.725 23.7657 41.9958 25.2528C41.235 25.9064 39.8862 26.8229 38.9975 27.2932C36.1132 28.8253 35.2244 30.0392 34.8233 32.996C34.6054 34.5972 34.3391 35.237 33.0975 37.1011C32.067 38.6504 31.3407 40.7323 31.3338 42.1399C31.3338 42.8212 31.0917 43.9071 30.6975 45.0414C30.1787 46.5389 30.0611 47.2098 30.0231 48.9217C29.9816 50.6992 29.902 51.135 29.4594 51.9615C29.1378 52.5564 28.8853 53.4486 28.7954 54.2924C28.6674 55.5374 28.5637 55.7657 27.6541 56.8516C27.1043 57.5018 26.6547 58.1485 26.6547 58.2868C26.6547 58.3629 26.5682 58.5289 26.4368 58.7295C26.4091 58.8609 26.3469 58.9543 26.2673 58.9646C26.1964 59.0643 26.1202 59.1601 26.0391 59.2517C25.2644 60.1509 24.884 61.1849 25.2091 61.5134C25.3785 61.6864 25.5169 61.631 25.752 61.2921C26.1982 60.6419 26.4541 60.7215 26.25 61.4443C26.1325 61.8593 26.1532 62.0875 26.3158 62.1602C26.6201 62.295 27.7752 62.1117 28.3804 61.8316C28.6985 61.6829 28.9337 61.3025 29.1066 60.6558C29.245 60.1267 29.5009 59.5249 29.6738 59.3209C29.864 59.0926 30.0231 58.4044 30.075 57.5709C30.151 56.3536 30.2513 56.0804 30.9395 55.1916C31.3891 54.6175 31.8629 53.6803 32.0497 53.0059C32.233 52.3558 32.5235 51.5431 32.6998 51.2007C34.0036 48.6415 34.844 47.1614 34.9927 47.1614C35.4423 47.1614 35.802 48.1435 35.802 49.3747C35.802 50.343 35.885 50.7096 36.127 50.8479C36.421 51.0139 36.4245 51.1004 36.1582 51.6364C35.9728 52.0251 35.8246 52.4304 35.7155 52.8469C35.5184 53.6769 34.8682 54.5657 34.1869 54.9219C33.8757 55.0879 33.1978 55.6412 32.6791 56.1565C31.9321 56.8966 31.735 57.2286 31.7384 57.7715C31.7419 58.6845 32.0358 59.1618 32.3782 58.809C32.7863 58.394 32.973 58.5151 32.8278 59.103C32.6964 59.6356 32.7171 59.6494 33.3742 59.518C34.2146 59.3451 34.9754 58.8505 35.1172 58.3871C35.176 58.1934 35.304 57.896 35.4008 57.7266C35.5011 57.5537 35.8746 56.779 36.2377 55.9974C36.6873 55.0291 37.1818 54.3443 37.8043 53.8256C38.3023 53.4106 38.8418 52.7431 39.0078 52.3454C39.4885 51.1765 40.8857 50.1736 40.8857 51.0036C40.8857 51.4877 40.0972 52.9541 39.5231 53.5385C38.8003 54.2752 38.2435 55.2642 38.2435 55.8107C38.2435 56.2914 38.5271 56.4332 38.7519 56.07C38.9733 55.7034 39.2257 55.8487 39.115 56.2775C39.1048 56.3174 39.0967 56.3578 39.0908 56.3986C39.1254 56.5023 39.1773 56.5888 39.2465 56.6579C39.3329 56.6822 39.454 56.6925 39.6338 56.6925C40.6782 56.6925 41.6638 56.0908 41.8125 55.3611C41.9284 54.907 42.1052 54.4708 42.3382 54.0642C42.5941 53.6354 42.684 53.2273 42.601 52.8849C42.4627 52.3281 42.8362 50.8894 43.1198 50.8894C43.3273 50.8894 44.0674 52.4353 44.2541 53.2757C44.3566 53.6649 44.5405 54.0279 44.7936 54.3409C45.1671 54.7593 45.3297 54.7835 47.1557 54.6798C49.0474 54.5726 49.1373 54.5414 49.6284 53.9293C49.995 53.4659 50.1679 52.9437 50.2509 52.0376C50.3961 50.4399 51.0878 49.3539 52.6717 48.2196L53.8545 47.3758L54.145 47.8392C54.3075 48.0917 54.6533 48.8387 54.9162 49.4957C55.3588 50.5886 55.3761 50.7684 55.141 51.7091C54.9992 52.2762 54.9438 52.9333 55.0165 53.1719C55.0925 53.414 54.9922 54.0573 54.7917 54.6244L54.636 55.0671L54.6049 55.2608C54.5668 55.4333 54.5506 55.6099 54.5565 55.7864L54.9127 56.1669C55.4557 56.7617 55.8326 56.8343 56.0055 56.3813C56.1577 55.9663 56.5416 55.9801 56.5416 56.3986C56.5416 56.8378 56.9393 56.6752 57.3993 56.0527C57.752 55.5686 57.7555 55.4821 57.4546 54.6141C57.2747 54.1022 57.1745 53.5247 57.2229 53.331C57.2713 53.1339 57.2229 52.5737 57.1122 52.086C56.8591 50.835 56.872 49.5448 57.1503 48.2992C57.3474 47.3377 57.3232 47.1268 56.8632 46.1204C56.5831 45.5083 56.3929 44.9653 56.4378 44.9204C56.4863 44.8719 56.8701 44.9722 57.2955 45.1417C59.2668 45.9302 60.8057 45.7504 61.7429 44.6229L62.2202 44.0454C62.2277 44.0136 62.2324 43.9812 62.234 43.9486L61.0962 43.8448C60.8364 43.8203 60.577 43.7915 60.3181 43.7584C59.6299 43.6442 59.329 43.3952 58.2293 42.4131C57.2125 41.507 57.1779 41.4378 57.2851 40.6286C57.3508 40.1479 57.2505 39.1 57.0534 38.2043C56.7353 36.7449 56.7353 36.5339 57.0327 35.4929C57.209 34.8704 57.3543 34.0854 57.3543 33.7534C57.3543 32.7505 56.8079 31.2081 56.1612 30.3884C55.798 29.9065 55.5196 29.3662 55.3381 28.7907C55.1718 28.2323 54.9298 27.6994 54.6188 27.2068C54.1484 26.5013 54.1346 26.4148 54.4147 25.737C54.6109 25.1363 54.7113 24.5084 54.7121 23.8764C54.7121 22.8839 54.6257 22.6349 54.0516 21.9709C52.8066 20.5253 52.2187 20.3904 46.2703 20.214C39.4055 20.0065 38.3265 19.7437 39.3917 18.5437C39.8275 18.0526 40.5399 18.0664 42.02 18.5921C43.642 19.1662 45.6236 19.3079 46.7822 18.9344C47.7782 18.6128 47.7955 18.6301 46.0697 18.2635C45.7931 18.2047 45.5614 18.056 45.5614 17.9281C45.5614 17.8831 45.589 17.852 45.634 17.8278C45.6651 17.7655 45.8104 17.7517 46.0836 17.7828C46.2081 17.7897 46.3533 17.8036 46.5263 17.8278C49.1857 18.1874 49.6284 18.2151 49.6284 18.0111C49.6284 17.6756 47.8439 16.9839 45.9798 16.6001C45.0816 16.4124 44.1652 16.3266 43.2478 16.3442ZM43.9844 18.0422C44.2592 18.0669 44.5292 18.1298 44.7867 18.2289L45.6651 18.5471L45.0357 18.5575L44.9527 18.5609L44.8455 18.554C44.5346 18.562 44.2255 18.5031 43.9394 18.3811C43.5832 18.1494 43.6628 18.0249 43.9844 18.0422Z" fill="black"/></g><defs><clipPath id="clip0_601_24781"><rect width="83" height="83" fill="white" transform="translate(0.592712)"/></clipPath></defs></svg> 