<!-- created by svgstack.com | Attribution is required. --><svg width="58" height="91" viewBox="0 0 58 91" fill="none" xmlns="http://www.w3.org/2000/svg"><g clip-path="url(#clip0_809_1079)"><path d="M54.0604 0.0388794C55.6212 0.0388794 56.8833 1.28749 56.8833 2.83172V87.4303C56.8833 88.9732 55.6212 90.2232 54.0604 90.2232H3.50777C1.94844 90.2232 0.686035 88.9734 0.686035 87.4303V2.83172C0.686035 1.28749 1.94844 0.0388794 3.50777 0.0388794H54.0604Z" fill="white"/><path d="M1.78345 12.5799H55.8231V87.2613C55.8231 87.8824 55.7171 88.2664 55.2982 88.6829C54.8435 89.1348 54.4447 89.1754 53.7247 89.1754L3.39694 89.1803C3.00038 89.1803 2.69623 89.0539 2.36795 88.7763C1.96138 88.4279 1.78345 87.9936 1.78345 87.534V12.5799" fill="#FFF200"/><path d="M55.8231 8.82257H1.78345V12.6593H55.8231V8.82257Z" fill="#ED1C24"/><path d="M55.8231 4.97809H1.78345V8.81503H55.8231V4.97809Z" fill="white"/><path d="M3.3111 1.0755H54.2602C55.0761 1.0755 55.8285 1.86206 55.8285 2.62974V5.07904H1.78345L1.78837 2.92503V2.74579C1.78837 1.87732 2.45757 1.16135 3.3111 1.0755Z" fill="#009A4E"/><path d="M54.0604 0.0388794C55.6212 0.0388794 56.8833 1.28749 56.8833 2.83172V87.4303C56.8833 88.9732 55.6212 90.2232 54.0604 90.2232H3.50777C1.94844 90.2232 0.686035 88.9734 0.686035 87.4303V2.83172C0.686035 1.28749 1.94844 0.0388794 3.50777 0.0388794H54.0604ZM54.0604 1.15372H3.50777C2.57086 1.15372 1.81351 1.90614 1.81351 2.83172V87.4303C1.81351 88.3571 2.57102 89.1044 3.50777 89.1044H54.0604C54.9975 89.1044 55.7549 88.3571 55.7549 87.4303V2.83172C55.7549 1.9063 54.9975 1.15372 54.0604 1.15372Z" fill="black"/><path d="M27.7908 17.3196C27.7908 17.3196 27.7567 17.6452 27.6823 17.836C27.6091 18.0126 27.4184 18.1314 27.431 18.2499C27.4437 18.3661 27.5674 18.5063 27.7593 18.6033C27.9474 18.7018 28.0231 18.7776 28.2163 18.8269C28.3955 18.8712 28.6228 19.0023 28.6872 18.8522C28.7517 18.6993 28.6545 18.5137 28.5459 18.3358C28.3564 18.0252 28.2606 17.9494 27.9815 17.5226C27.9221 17.4307 27.8755 17.3321 27.7908 17.3196Z" fill="black"/><path d="M26.3755 50.872C26.3944 50.8163 26.8414 51.0993 27.0736 51.2357C27.5623 51.5285 27.7819 51.7027 28.2137 52.0259C28.556 52.286 28.7213 52.4198 29.0648 52.7153C29.4863 53.0788 29.7136 53.3894 29.8274 53.3188C29.9915 53.1218 29.5585 52.546 29.1758 52.2332C28.8035 51.9249 28.4184 51.6751 28.1216 51.4806C27.739 51.2254 27.7049 51.1674 27.133 50.7835C26.5182 50.372 25.988 49.8545 25.988 49.8545L25.3907 49.3848L24.4552 48.5957L23.4149 47.6374L22.6297 46.7624C22.6297 46.7624 22.0186 46.0151 21.9214 45.8709C21.8229 45.7283 21.535 45.2661 21.2979 44.8749C21.0856 44.5238 20.6741 43.9786 20.6362 43.9318C20.414 43.6628 19.9064 43.7714 19.3167 43.4243C18.6009 43.0013 18.4279 42.6149 18.4279 42.6149C18.4279 42.6149 18.4013 42.5583 18.3735 42.5279C18.3469 42.4962 18.2928 42.4572 18.2928 42.4572L17.9177 42.1958L17.703 42.0544C17.703 42.0544 17.5402 41.9193 17.3357 41.8321C17.1298 41.7412 16.6716 41.4748 16.6716 41.4748L15.8522 40.9522C15.8522 40.9522 15.5314 40.6946 15.4254 40.6088C15.3169 40.5267 15.1149 40.4093 15.1149 40.4093C15.1149 40.4093 14.986 40.3448 14.9469 40.3424C14.9079 40.3397 14.7375 40.3246 14.7375 40.3246C14.7375 40.3246 14.5796 40.283 14.4192 40.4712C14.2589 40.6606 14.2981 40.5595 14.5594 41.6251C14.6628 42.0442 14.6528 43.5228 14.7639 43.9733C14.9053 44.5516 15.3118 45.2991 15.3535 45.3874C15.3941 45.4745 15.423 45.7977 15.423 45.7977C15.423 45.7977 15.4054 46.0592 15.4331 46.2247C15.5569 46.9884 16.6742 46.4858 16.9206 47.5338C17.163 48.5679 16.7753 49.5994 16.7753 49.5994C16.7753 49.5994 16.5353 50.1122 16.1957 50.1927C15.8574 50.2712 15.3322 49.5213 14.9522 48.9139C14.5773 48.3166 14.2705 47.5338 14.172 47.2852C14.0736 47.0363 14.0217 46.982 13.9081 46.8016C13.7402 46.5326 13.6051 46.582 13.417 46.1577C13.2276 45.7336 13.3955 45.563 13.311 45.1932C13.2617 44.9887 13.2176 44.9659 13.1532 44.6729C13.0913 44.3814 13.008 43.4533 13.008 43.4533L12.8893 42.5898C12.8893 42.5898 12.8476 42.1958 12.7934 41.9483C12.6053 41.0848 12.5397 40.249 12.5397 40.249L12.5044 39.9056L12.4917 39.5509C12.4917 39.5509 12.4804 39.3803 12.5221 39.2049C12.5638 39.0296 12.6485 38.8843 12.6485 38.8843C12.6485 38.8843 12.8228 38.5926 12.853 38.5194C12.8821 38.45 13.2381 38.0359 13.2381 38.0359C13.2381 38.0359 13.4249 37.8806 13.7292 37.695C14.0348 37.5093 14.3088 37.522 14.3088 37.522C14.3088 37.522 14.3895 37.5144 14.93 37.5814C15.4704 37.6482 16.5815 37.9436 16.8618 38.0157C17.1382 38.0904 17.4691 38.2064 17.6837 38.3262C18.301 38.6621 18.4879 38.5196 17.9968 38.1345C17.6659 37.8757 17.5727 37.7595 17.3061 37.5172C17.0813 37.3101 16.9046 37.1723 16.7367 36.9818C16.5688 36.7873 16.0903 36.0816 16.0903 36.0816L15.7911 35.6398C15.7911 35.6398 15.6308 35.4581 15.6042 35.4453C15.579 35.4302 15.4981 35.3683 15.4981 35.3683C15.4981 35.3683 15.3 35.3783 15.0953 35.3392C14.8883 35.2975 14.7923 35.5881 14.7923 35.5881C14.7923 35.5881 14.3478 36.4175 13.896 36.9251C13.1637 37.7495 12.6385 38.3102 12.3696 38.7494C11.9921 39.358 12.0755 40.0248 11.881 40.3327C11.7674 40.5132 11.7055 40.5398 11.6436 40.6976C11.4542 41.1762 12.1423 41.4387 11.9845 41.9688C11.7332 42.8099 9.76373 43.6418 9.50226 43.5029C9.23077 43.3603 9.45301 42.2228 9.54395 41.8553C9.63734 41.4854 9.91376 40.94 9.9392 40.9123C9.96316 40.8857 10.0301 40.7568 10.0502 40.6483C10.0717 40.5398 10.0792 40.2936 10.0918 40.1572C10.1045 40.0195 10.1613 39.8025 10.1613 39.8025C10.1613 39.8025 10.1688 39.7557 10.343 39.3784C10.5184 38.9984 11.1599 38.1145 11.6195 37.2712C11.9225 36.7206 12.0487 36.3874 12.3517 35.8356C12.6308 35.3294 13.1092 34.5566 13.1092 34.5566C13.1092 34.5566 13.3111 34.1627 13.4058 34.0163C13.5019 33.8659 13.7037 33.5819 13.8932 33.3016C14.0839 33.0225 14.1305 32.8129 14.3792 32.5831C14.585 32.3913 14.7252 32.289 14.9941 32.2032C15.3942 32.0705 15.6683 32.1414 16.0774 32.255C16.5015 32.3711 16.7932 32.5656 17.0711 32.7954C17.3475 33.0278 17.5533 33.284 17.5533 33.284L17.6884 33.4835L17.7716 33.5327L18.0293 33.6981L18.6189 34.0881C18.6189 34.0881 20.0179 35.0402 20.0962 35.0919C20.1707 35.1411 20.4218 35.3469 20.4711 35.3634C20.5229 35.3785 20.8954 34.9743 21.6265 34.4708C22.4723 33.8836 22.7715 33.9278 23.052 33.7751C23.3284 33.6223 23.442 33.4961 23.6593 33.2789C23.9876 32.9507 23.9901 32.7752 24.3625 32.3169C24.7376 31.8599 25.0885 31.6036 25.0885 31.6036C25.0885 31.6036 25.1402 31.5519 25.8083 30.7968C26.4748 30.0444 26.7703 29.4748 26.7703 29.4748L27.1365 28.7413C27.1365 28.7413 27.6667 27.6013 27.8372 27.1504C28.0089 26.6986 28.0089 26.5482 28.0089 26.5482C28.0089 26.5482 28.034 26.4295 27.9053 26.1997C27.7727 25.9711 27.6363 26.0747 27.3825 26.1265C26.8965 26.2301 26.6011 26.1037 26.1099 26.018C25.6605 25.9434 25.4256 25.8084 24.9749 25.7339C24.518 25.6569 24.2516 25.5813 23.7931 25.6254C23.7237 25.633 23.5837 25.662 23.5165 25.6847C23.2577 25.7705 23.1858 25.7907 22.9939 25.9018C22.7717 26.0054 22.6253 26.0382 22.379 26.0445C22.2085 26.0496 22.1051 26.0546 21.9474 25.9928C21.8387 25.9511 21.7768 25.9196 21.691 25.8426C21.6393 25.7958 21.6115 25.7654 21.5723 25.7049C21.5674 25.6569 21.5521 25.6594 21.5989 25.5813C21.6444 25.5017 21.7011 25.4877 21.7011 25.4877L21.9108 25.436C21.9108 25.436 22.2062 25.359 22.2339 25.3513C22.2605 25.3438 22.542 25.2528 22.6656 25.2137C22.7907 25.1747 22.9271 25.1026 22.9271 25.1026C22.9271 25.1026 23.0028 24.9815 22.9737 24.9121C22.9371 24.8336 22.7692 24.8262 22.7692 24.8262C22.7692 24.8262 22.5343 24.9121 22.5079 24.9196C22.4826 24.9247 22.1076 25.0432 22.1076 25.0432C22.1076 25.0432 21.8134 25.1077 21.5849 25.1619C21.3551 25.2136 21.0269 25.2402 21.0269 25.2402L20.9284 25.2136C20.9284 25.2136 20.8173 25.1391 20.7997 25.0609C20.7833 24.9915 20.7731 24.9396 20.7605 24.8602C20.7112 24.5697 20.652 24.3942 20.7214 24.1078C20.748 23.9878 20.7757 23.9208 20.8274 23.8099C20.8716 23.7176 20.9006 23.6646 20.9574 23.5774L21.1381 23.282L21.4791 22.7782C21.5964 22.6596 21.6736 22.6003 21.8211 22.5169C22.0383 22.3958 22.1645 22.3617 22.436 22.3313C22.7024 22.3022 22.739 22.3049 23.1165 22.2202C23.4965 22.1343 23.7655 21.9841 23.7655 21.9841C23.7655 21.9841 24.6734 21.6508 25.2262 21.3793C25.8056 21.0953 26.0582 20.7921 26.658 20.5574C26.9118 20.4589 27.0595 20.4122 27.3208 20.3454C27.3536 20.3239 27.37 20.3037 27.3802 20.2644C27.4055 20.1697 27.2591 20.1256 27.158 20.1356C27.067 20.1431 26.8601 20.2392 26.8133 20.1356C26.7778 20.0561 27.0025 20.0094 27.0025 20.0094C27.0025 20.0094 27.1086 19.9601 27.1112 19.9009C27.1138 19.8099 26.9586 19.8692 26.889 19.8616C26.5367 19.8224 26.509 19.7581 26.2652 19.6988C25.9786 19.6269 25.8235 19.5384 25.5254 19.5258C25.2628 19.5156 25.0166 19.5713 24.8513 19.6103C24.6885 19.652 24.6834 19.4917 24.7477 19.4601C25.2087 19.2455 25.2187 19.2277 25.5445 19.2126C25.7224 19.2051 25.9712 19.243 25.999 19.2568C26.0256 19.2719 26.3816 19.2543 26.4725 19.1609C26.5659 19.07 26.1809 19.0751 25.999 19.003C25.8312 18.9362 25.5748 18.9173 25.5799 18.8061C25.5888 18.6949 25.7126 18.7568 25.8009 18.7342C25.9118 18.7076 25.9763 18.7102 26.0899 18.6951C26.2946 18.6674 26.3122 18.6483 26.6152 18.6232C26.9144 18.5941 27.3462 18.7217 27.3462 18.7217C27.3462 18.7217 27.7994 18.9226 28.0217 19.0286C28.2439 19.132 28.5128 19.1864 28.5128 19.1864C28.5128 19.1864 28.8283 19.2305 29.0684 19.0803C29.312 18.9313 29.1744 18.8328 29.0897 18.6953C29.0064 18.5664 28.9005 18.3796 29.0556 18.0261C29.1933 17.718 29.2652 17.3582 29.3044 17.3253C29.3538 17.2863 29.5444 17.5627 29.668 17.6764C30.1112 18.0906 30.6972 18.2951 31.2502 19.1611C31.2932 19.2305 31.4977 19.1194 32.139 19.2179C32.7803 19.3164 33.341 20.0031 33.4825 20.1674C33.629 20.3327 33.8183 20.3239 33.8183 20.3239L34.1264 20.3655L35.2448 20.3844C35.2448 20.3844 35.7525 20.2935 36.0453 20.4048C36.2499 20.4818 36.9317 20.9376 36.6211 21.1104C36.404 21.2317 36.1995 20.9653 36.0025 20.9527C35.7701 20.9376 35.6691 20.9817 35.462 21.0334C35.0277 21.1421 34.096 21.4236 34.4343 21.5372C34.4594 21.5472 34.5075 21.5547 34.5075 21.5547L34.6741 21.5838C34.6741 21.5838 35.0833 21.6772 35.3307 21.7744C35.7043 21.9221 35.8812 22.0851 36.2246 22.287C36.4214 22.4006 36.5074 22.5143 36.7219 22.5786C36.9189 22.6356 37.0451 22.5786 37.2472 22.6128C37.5123 22.6596 37.6611 22.7139 37.9037 22.8299C38.2647 23.0029 38.396 23.2126 38.7193 23.4448C38.8809 23.5622 39.0171 23.5799 39.1384 23.7378C39.1663 23.7731 39.1891 23.7921 39.2018 23.8337C39.2448 23.9776 38.9642 23.8929 38.8154 23.8691C38.6512 23.8414 38.5831 23.7605 38.4316 23.691C38.2069 23.585 38.1007 23.4688 37.8558 23.4246C37.679 23.3905 37.573 23.4171 37.3913 23.4271C37.2145 23.4346 37.1211 23.4612 36.9442 23.4637C36.6438 23.4688 36.4746 23.4424 36.1791 23.3803C35.8482 23.311 35.6841 23.1822 35.356 23.1139C34.9847 23.0369 34.3283 22.7188 34.3913 23.0369C34.4241 23.1897 34.7726 23.3184 34.7726 23.3184C34.7726 23.3184 35.0124 23.4473 35.2397 23.5482C35.4671 23.6467 35.5931 23.7971 35.5931 23.7971L35.7497 23.9133C35.7497 23.9133 35.9112 24.1355 36.1235 24.3867C36.3305 24.6342 36.6991 24.6265 36.6991 24.6265C36.6991 24.6265 36.9214 24.6265 37.401 24.7249C37.8783 24.8234 38.3707 25.1187 38.3707 25.1187C38.3707 25.1187 38.7418 25.3738 38.959 25.6302C39.1737 25.8866 39.0499 26.0152 39.0222 26.0417C38.9971 26.0694 39.0069 26.0568 38.9767 26.0694C38.9516 26.0821 38.6839 25.7462 38.6839 25.7462L38.492 25.5834C38.492 25.5834 38.3051 25.4521 38.0628 25.3738C37.8204 25.2968 37.7394 25.3485 37.7394 25.3485C37.7394 25.3485 37.2244 25.4925 36.7749 25.4798C36.3305 25.4672 36.0982 25.2891 36.0982 25.2891L35.8154 25.0997C35.8154 25.0997 35.3911 24.702 35.3758 24.8902C35.3656 25.0178 35.5628 25.1591 35.5628 25.1591C35.5628 25.1591 35.6992 25.2966 35.7901 25.384C35.9618 25.553 36.0327 25.6377 36.2295 25.813C36.4265 25.99 36.5476 25.99 36.5476 25.99C36.5476 25.99 36.6536 26.0151 36.694 26.0228C36.7346 26.0303 36.8053 26.0494 36.8053 26.0494C36.8053 26.0494 36.871 26.0747 37.1789 26.1997C37.4844 26.3233 37.8153 26.5924 37.8153 26.5924C37.8153 26.5924 37.8456 26.6176 37.8911 26.6265C37.9364 26.6316 38.0273 26.6771 38.0526 26.6846C38.0804 26.6908 38.1586 26.6908 38.3354 26.7161C38.5148 26.7427 38.4465 26.8563 38.4465 26.8563L38.4162 26.8991L38.2696 26.9976C38.2696 26.9976 38.0803 27.052 37.9515 27.0582C37.8202 27.0657 37.6334 26.9927 37.6334 26.9927L37.2368 26.8437C37.2368 26.8437 36.8355 26.7376 36.7495 26.7237C36.6637 26.711 36.3052 26.6391 36.2446 26.6265C36.1865 26.6127 36.0073 26.5482 35.9593 26.5205C35.9112 26.494 35.8229 26.4763 35.6058 26.3703C35.3911 26.2642 35.3052 26.1418 35.0377 26.0571C34.7675 25.9713 34.6034 25.9537 34.4013 26.0939C34.0528 26.3337 34.9264 26.3729 35.3609 26.5899C36.0023 26.9055 36.3633 27.1378 36.5148 27.4789C36.6687 27.821 36.8229 27.9447 36.8229 27.9447C36.8229 27.9447 37.2749 28.172 37.4768 28.4105C37.5879 28.5392 37.6032 28.6454 37.7142 28.7741C37.9615 29.0645 38.4415 29.0481 38.5375 29.2943C38.6284 29.5239 38.1485 29.4205 37.8985 29.3977C37.4491 29.3535 37.3404 28.9419 36.9212 28.7766C36.684 28.6819 36.5325 28.6819 36.2899 28.5986C35.848 28.4534 35.6411 28.2628 35.199 28.1253C34.9313 28.0432 34.4465 27.691 34.5072 27.9623C34.5172 28.0279 34.5576 28.0785 34.5751 28.1177C34.598 28.1568 34.7091 28.3007 34.7091 28.3007C34.7091 28.3007 34.858 28.4977 34.9261 28.5496C34.9893 28.6039 35.2745 28.8184 35.6836 29.0407C36.0877 29.2629 36.4411 29.6897 36.4411 29.6897C36.4411 29.6897 36.5624 29.864 36.6205 29.9853C36.6811 30.1217 36.6381 30.1632 36.7341 30.3526C36.8224 30.5408 36.8654 30.5774 36.9865 30.6936C37.2844 30.9802 37.5976 30.9232 37.9763 31.0786C38.0799 31.1228 38.0874 31.1379 38.1985 31.2566C38.3097 31.3739 38.1782 31.4243 38.1782 31.4243C38.1782 31.4243 37.7567 31.533 37.4839 31.5102C37.1305 31.4824 36.9713 31.3738 36.6279 31.2021C36.2794 31.0317 36.0977 30.7249 36.0624 30.706C36.032 30.6857 35.9462 30.5949 35.8805 30.5481C35.8151 30.5015 35.6457 30.4661 35.4942 30.4244C35.3402 30.3828 35.2542 30.3751 35.1004 30.3334C34.8908 30.274 34.6735 30.1819 34.575 30.1504C34.4765 30.1163 34.2518 30.0759 34.0876 30.1731C33.7594 30.3676 34.5976 30.4987 34.8578 30.7779C34.9916 30.9181 35.047 31.0166 35.1734 31.1643C35.2695 31.2779 35.3098 31.3575 35.4287 31.4458C35.5093 31.5051 35.6583 31.5694 35.6583 31.5694C35.6583 31.5694 35.8602 31.663 36.1556 31.8258C36.4511 31.9886 36.7969 32.4494 36.7969 32.4494L37.0065 32.7701L37.1303 32.9531L37.1631 33.0378L37.2084 33.1412C37.2084 33.1412 37.3601 33.3382 37.4711 33.4025C37.5824 33.4695 37.562 33.5276 37.562 33.5276C37.562 33.5276 37.5495 33.5682 37.4711 33.6123C37.3954 33.6591 37.3524 33.6199 37.2414 33.587C37.1303 33.5555 37.0571 33.4495 36.9612 33.3723C36.8601 33.2916 36.7541 33.0959 36.5749 32.9848C36.4158 32.8889 36.2088 32.8548 36.1279 32.8295C36.0496 32.8006 35.8526 32.6769 35.7743 32.6427C35.6987 32.6124 35.4942 32.519 35.4942 32.519C35.4942 32.519 35.1004 32.2993 34.8829 32.2401C34.6659 32.1794 34.8046 32.312 34.8046 32.312C34.8046 32.312 34.9993 32.615 35.1859 32.7361C35.4285 32.8965 35.7693 33.038 35.6581 33.1678C35.5823 33.2525 35.4814 33.2221 35.3702 33.2095C35.1885 33.1882 34.9687 32.9708 34.9687 32.9708C34.9687 32.9708 34.878 32.9116 34.4714 32.7827C34.0673 32.6501 34.2163 32.8724 34.3097 32.9923C34.4008 33.1086 34.5246 33.1754 34.5246 33.1754L34.7998 33.2991L34.9261 33.3382C34.9261 33.3382 35.0374 33.3584 35.4034 33.4442C35.7694 33.5276 35.9716 33.7057 35.9716 33.7057C35.9716 33.7057 36.1684 33.8887 36.4411 34.0908C36.7188 34.2953 36.9916 34.3472 37.1431 34.3673C37.2946 34.3862 37.2895 34.4923 37.2895 34.4923C37.2895 34.4923 37.3097 34.5896 37.2999 34.6211C37.2948 34.6539 37.2619 34.6805 37.229 34.6805C37.1986 34.6805 37.1837 34.6932 37.1433 34.7147C37.1029 34.7349 36.9463 34.7601 36.9463 34.7601C36.9463 34.7601 36.5373 34.7475 36.2141 34.6679C35.896 34.5896 35.613 34.3673 35.5826 34.3549C35.5575 34.3422 35.2594 34.1769 35.0525 34.1113C34.853 34.0443 34.5323 34.0734 34.4968 34.086C34.4642 34.0987 34.3529 34.1164 34.1636 34.1719C33.9718 34.2224 34.2116 34.2955 34.2116 34.2955L34.348 34.3081L34.6736 34.3334C34.6736 34.3334 35.0121 34.3724 35.2974 34.4785C35.5826 34.582 35.7696 34.7917 35.959 34.9835C36.1483 35.1716 36.358 35.2954 36.358 35.2954L36.5095 35.3939L36.5878 35.4531L36.608 35.5048C36.608 35.5048 36.6005 35.5314 36.5878 35.5641C36.5752 35.5982 36.5273 35.6233 36.5273 35.6233C36.5273 35.6233 36.4565 35.6107 36.4263 35.6107C36.3909 35.6107 36.1763 35.4971 36.0173 35.4277C35.8531 35.3558 35.7698 35.2875 35.593 35.2445C35.4415 35.2079 35.2396 35.1915 35.1939 35.2054C35.1486 35.2181 34.8151 35.2649 34.5576 35.2824C34.3002 35.3026 34.0778 35.3064 33.7748 35.2698C33.3431 35.2181 32.7699 34.877 32.6966 34.9719C32.5477 35.1713 33.0022 35.2281 33.2244 35.3556C33.5274 35.5311 34.0527 35.689 34.0527 35.689C34.0527 35.689 34.4364 35.7735 34.6611 35.8796C35.1536 36.1082 35.3026 36.4465 35.699 36.8025C35.9162 37.002 36.0929 37.0878 36.3858 37.1308C36.6384 37.1676 36.6333 37.1372 37.0322 37.0589C37.4336 36.9795 37.6762 36.5993 37.7923 36.7384C37.8151 36.7649 37.8049 36.7901 37.7998 36.8293C37.7923 36.8684 37.7596 36.9404 37.7596 36.9404C37.7596 36.9404 37.7142 37.0048 37.6434 37.078C37.5702 37.1499 37.2949 37.3002 37.151 37.3595C37.007 37.4189 36.6536 37.5174 36.2092 37.5034C35.7647 37.4908 35.1386 37.1499 35.1386 37.1499L34.6892 36.9604C34.6892 36.9604 34.4821 36.8633 34.3407 36.8102C33.967 36.6688 33.7297 36.6814 33.3457 36.5804C33.1084 36.5161 32.952 36.4491 32.7373 36.405C32.5201 36.3584 32.6439 36.4442 32.6641 36.4744C32.765 36.612 32.9012 36.6561 33.0731 36.7357C33.3004 36.8468 33.4595 36.8242 33.6917 36.9227C33.9519 37.0276 34.1792 37.1753 34.3232 37.2687C34.4645 37.3596 34.5707 37.4632 34.7096 37.6071L35.1867 38.0162C35.1867 38.0162 35.2978 38.1071 35.3105 38.145C35.323 38.1843 35.376 38.2826 35.3509 38.4405C35.323 38.5984 35.1943 38.4873 35.1943 38.4873L35.0681 38.4065L34.9417 38.2903L34.7421 38.125C34.7421 38.125 34.5705 37.9696 34.2749 37.8194C33.9821 37.6666 33.6285 37.6286 33.6285 37.6286C33.6285 37.6286 33.3154 37.582 33.3255 37.6805C33.3406 37.7777 33.4111 37.7865 33.6586 37.8509C33.9086 37.9154 34.0727 38.0416 34.0727 38.0416C34.0727 38.0416 34.3279 38.231 34.5121 38.4405C34.6938 38.6503 34.747 38.8535 34.747 38.8535C34.747 38.8535 34.8404 39.0251 35.0753 39.2523C35.3102 39.4821 35.4339 39.4025 35.4211 39.5138C35.4085 39.6249 35.3049 39.6451 35.3049 39.6451C35.3049 39.6451 35.2443 39.6399 35.2192 39.6399C35.1939 39.6399 35.1334 39.6059 35.0677 39.5806C35.0021 39.5553 34.7545 39.3836 34.7545 39.3836C34.7545 39.3836 34.3659 39.0682 34.3229 39.0378C34.2748 39.0036 33.9087 38.7297 33.9087 38.7297C33.9087 38.7297 33.6916 38.5908 33.5374 38.5125C33.3784 38.4356 33.1688 38.3548 33.0501 38.3156C32.9341 38.2777 32.7167 38.265 32.7167 38.265C32.7167 38.265 32.4567 38.226 32.2977 38.1665C32.0477 38.0705 31.7572 37.8041 31.7245 37.7915C31.6891 37.7777 31.4568 37.6981 31.4113 37.7056C31.366 37.7107 31.2598 38.1501 31.2347 38.4039C31.1287 39.467 31.4113 40.1727 31.8507 41.1475C32.4845 42.564 34.2495 44.3252 34.2495 44.3252C34.2495 44.3252 34.694 44.5765 34.8809 44.7267C35.4086 45.1397 36.2824 45.7242 37.0576 46.4968C37.7191 47.1596 38.598 48.335 38.598 48.335C38.598 48.335 39.1079 49.0446 39.3454 49.547C39.6333 50.1632 39.8657 51.1027 39.8657 51.1027C39.8657 51.1027 39.8859 51.2643 39.901 51.2997C39.9212 51.3324 39.9665 51.3754 39.997 51.3754L40.3049 51.3856C40.3353 51.3856 40.6862 51.3604 40.9187 51.3022C41.1485 51.2441 41.6939 50.9941 42.0575 50.8048C42.4159 50.6128 42.8478 50.2492 42.8478 50.2492C42.8478 50.2492 42.931 50.1785 43.3504 49.7089C43.7747 49.2393 44.0473 48.5348 44.1507 48.2684C44.2519 48.0046 44.3352 47.4958 44.3958 46.627C44.4613 45.7547 44.3428 44.8354 44.3428 44.8354C44.3428 44.8354 44.1837 43.5526 44.0875 43.1157C43.9917 42.6815 43.7594 41.9693 43.7594 41.9693C43.7594 41.9693 43.5979 41.3357 43.5474 40.9356C43.4942 40.5352 43.4868 39.8838 43.4868 39.8838C43.4868 39.8838 43.4868 39.4849 43.6153 38.7476C43.7493 38.014 44.1988 37.2741 44.1988 37.2741C44.1988 37.2741 44.3251 37.0253 44.8101 36.4445C45.3074 35.8499 45.4663 35.7565 45.9563 35.4016C46.3453 35.1226 46.8476 34.6731 47.012 34.7792C47.1937 34.8928 46.8349 35.1201 46.7138 35.2388C46.4083 35.5418 45.8378 36.077 45.3756 36.8838C44.9716 37.582 44.8201 38.0441 44.7193 38.4999C44.618 38.9546 44.6612 39.4544 44.6739 39.6249C44.6891 39.7955 44.7824 39.7336 44.7824 39.7336C44.7824 39.7336 45.7646 38.9444 46.2974 38.3473C46.8756 37.7009 47.3907 36.5506 47.5926 36.5406C47.729 36.5317 47.7922 36.8398 47.7594 36.9824C47.6333 37.5796 47.5905 37.6541 47.3956 38.0505C47.1735 38.505 46.9667 38.707 46.6585 39.1263C46.3351 39.5657 46.1762 39.7336 45.9162 40.3155C45.5402 41.1526 45.7596 41.7991 45.7596 41.7991C45.7596 41.7991 45.8051 42.1917 45.9817 42.1866C46.2775 42.1765 46.9262 41.3571 47.3505 40.6866C47.6638 40.1955 47.7773 39.6274 47.9819 39.3293C48.1687 39.0655 48.333 39.7587 48.2521 40.1677C48.1585 40.6537 47.9187 41.0907 47.391 41.7788C46.876 42.4503 46.8911 43.0893 46.8911 43.0893C46.8911 43.0893 46.838 43.3809 46.795 44.0173C46.7548 44.6509 46.9365 45.6132 46.9365 45.6132C46.9365 45.6132 47.0979 46.4174 47.131 47.0271C47.1614 47.6407 47.141 49.0334 46.5677 50.1179C46.3405 50.5522 45.853 51.1533 45.853 51.1533C45.853 51.1533 45.4768 51.5397 45.1687 51.7642C44.8605 51.9891 44.1207 52.3402 44.1207 52.3402C44.1207 52.3402 43.6083 52.5168 43.5375 52.5321C43.4617 52.5523 43.4164 52.6153 43.4164 52.6153C43.4164 52.6153 43.4617 52.7139 43.4819 52.7543C43.4994 52.7949 43.6434 53.1481 43.6434 53.1481C43.6434 53.1481 43.7973 53.6481 43.8555 54.0446C43.9136 54.441 43.8453 54.532 43.79 54.835C43.7343 55.1255 43.6083 54.9914 43.5753 55.5621C43.5475 56.0673 43.7749 56.3196 43.7343 56.8854C43.7169 57.1329 43.4364 56.5724 43.3 56.335C43.0121 55.8196 43.0802 55.0268 43.0753 54.83C43.0676 54.6331 43.0523 54.4157 42.9793 54.1684C42.891 53.845 42.757 53.5952 42.6082 53.3982C42.4565 53.2037 42.2974 53.0928 42.2444 53.113C42.1914 53.1307 42.1863 53.2341 42.1863 53.2847C42.1837 53.3403 42.2897 53.5271 42.3125 53.5676C42.3403 53.6054 42.5297 53.9514 42.5297 53.9514C42.5297 53.9514 42.6129 54.2191 42.6457 54.7394C42.6787 55.2545 42.5195 55.8958 42.5195 55.8958C42.5195 55.8958 42.3124 56.6155 42.0954 57.0398C41.8526 57.5068 41.3151 58.1432 41.3151 58.1432C41.3151 58.1432 40.9287 58.4968 40.6381 59.0775C40.353 59.6582 40.5979 59.9108 40.4917 59.9865C40.3806 60.0597 40.1533 59.6507 40.0927 59.3754C40.0346 59.1179 40.0623 58.9966 40.1685 58.7087C40.267 58.4309 40.4994 58.0293 40.4994 58.0293L40.8453 57.441C40.8453 57.441 41.2645 56.6431 41.3958 56.0622C41.5271 55.4866 41.3756 54.8453 41.3756 54.8453C41.3756 54.8453 41.3581 54.6332 41.2141 54.6432C41.0675 54.6508 40.9668 54.7772 40.906 54.9311C40.7872 55.2492 40.9566 55.1913 40.7745 55.7215C40.6334 56.1381 40.5928 56.0826 40.517 56.3299C40.4261 56.6254 40.3781 56.9284 40.3834 57.1129C40.391 57.2946 40.29 57.2189 40.29 57.2189C40.29 57.2189 40.1132 56.8905 40.1132 56.4816C40.1132 56.2594 40.1234 56.1331 40.1487 55.9107C40.1891 55.5547 40.3355 55.0094 40.3355 55.0094C40.3355 55.0094 40.4921 54.4715 40.4592 53.9816C40.4216 53.4867 40.2498 53.3959 40.2498 53.3959C40.2498 53.3959 40.2045 53.3303 40.0124 53.3403C39.8232 53.3556 39.8332 53.6963 39.8332 53.6963C39.8332 53.6963 39.7751 54.1838 39.6994 54.4866C39.4898 55.3225 39.2096 55.7619 38.7146 56.4663C38.2652 57.1027 37.6567 57.6634 37.3509 57.926C37.0479 58.1938 36.1136 58.873 36.1136 58.873L35.0178 59.6026C35.0178 59.6026 34.5835 60.0269 34.3864 60.5319C34.1845 61.0345 34.1945 61.4283 34.3105 61.8904C34.4269 62.355 34.5935 62.5671 34.6818 62.6983C34.7677 62.8248 34.9371 63.0518 34.9925 63.3197C35.0278 63.4837 35.0027 63.5821 35.0127 63.7487C35.0231 63.8953 35.0431 63.9761 35.038 64.1251C35.0329 64.3574 35.0758 64.5214 34.942 64.7108C34.846 64.8547 34.5833 64.9809 34.5833 64.9809C34.5833 64.9809 34.2856 65.1121 34.1085 65.2208C32.2448 66.3445 31.5835 67.0742 30.533 68.3266C30.1997 68.7281 30.4447 68.703 30.0887 69.1777C29.8727 69.4607 29.374 69.4607 29.1935 69.7988C28.9423 70.2608 29.7591 70.7155 28.816 71.1221C27.6002 71.6473 25.508 71.271 25.4664 71.107C25.3528 70.6574 25.8754 70.1374 26.061 69.9303C26.9119 69.0009 27.6721 68.9781 27.9511 68.2081C28.0117 68.044 27.9877 67.9026 28.6656 67.4C29.1416 67.0489 31.043 65.6173 31.8739 64.6628C32.1592 64.3346 32.4041 64.1176 32.5278 63.7638C32.6542 63.405 32.4041 63.1805 32.4041 63.1805L32.0631 62.6249L31.4092 61.4557C31.4092 61.4557 31.1341 60.8346 30.9851 60.476C30.8311 60.1173 30.5457 59.1527 30.5457 59.1527C30.5457 59.1527 30.3362 58.2842 30.3006 57.7184C30.2376 56.7034 30.3764 56.1126 30.6443 55.1278C30.9902 53.8501 31.7754 53.3147 32.0886 52.047C32.1797 51.6785 32.1997 51.0471 32.0127 51.0775C31.836 51.1103 31.8209 51.6076 31.6846 51.9412C31.1796 53.1986 30.5128 53.7492 30.1468 55.0519C29.9019 55.9332 29.801 56.4562 29.8033 57.3701C29.8061 57.8927 29.7857 57.7969 29.9195 58.7034C29.9725 59.0366 30.0532 59.2159 30.1519 59.5415C30.2225 59.7739 30.4119 60.2082 30.4119 60.2082C30.4119 60.2082 30.6721 60.7814 30.763 61.1829C30.7906 61.3219 30.8262 61.3999 30.8158 61.5389C30.7983 61.7787 30.8411 61.8295 30.7251 62.0465C30.5811 62.3168 30.6693 62.4758 30.2098 62.5766C29.8008 62.6625 28.965 62.3898 28.965 62.3898C28.965 62.3898 25.5295 61.3495 23.3365 61.6499C22.9022 61.708 22.6686 61.867 22.2318 61.8595C21.8341 61.8544 21.632 61.5437 21.2343 61.6625C21.1536 61.6853 21.1283 61.7433 21.0551 61.7914C20.4744 62.1953 20.9187 62.867 19.3886 62.5185C18.4492 62.3038 17.3117 61.7283 17.5085 61.3671C17.7723 60.8873 18.1258 60.809 18.8684 60.5034C19.6625 60.1802 20.8543 60.2711 21.0892 60.256C21.3758 60.2332 21.7875 60.0338 22.2999 60.0211C23.1863 60.0059 23.344 60.1121 23.344 60.1121L24.8489 60.2457L27.7289 60.2813C27.7289 60.2813 28.2439 60.2434 28.4484 60.2028C28.6556 60.1623 28.8184 59.7559 28.9318 59.5614C29.0431 59.3697 28.9269 59.0867 28.9269 59.0867L28.8412 58.9529L28.5671 58.511L28.0609 57.6575L27.4991 56.5364C27.4991 56.5364 27.1317 55.7563 26.9361 55.2437C26.7416 54.7335 26.628 54.4456 26.4991 53.9181C26.364 53.3749 26.2807 52.9357 26.2631 52.4989C26.2418 51.8719 26.2001 51.3846 26.3755 50.872Z" fill="black"/><path d="M45.071 49.8317C45.6769 49.054 45.7353 48.3316 45.7704 47.3141C45.7982 46.5744 45.5182 45.4342 45.5182 45.4342L45.4801 45.3509C45.4801 45.3509 45.374 45.2131 45.3087 45.395C45.3187 45.5555 45.3391 45.6842 45.3391 45.6842L45.3742 47.1526C45.3742 47.1526 45.3287 47.8924 45.0765 48.655C44.6522 49.9428 43.526 50.516 43.362 50.9807C43.0812 51.7507 44.3464 50.7685 45.071 49.8317Z" fill="white"/><path d="M38.7181 52.2079C38.7181 52.2079 38.4706 52.2787 38.4655 52.5234C38.4606 52.7685 38.5261 52.9805 38.5185 53.276C38.5136 53.6524 38.1676 54.0865 38.3898 54.228C38.7711 54.4704 39.0992 52.7634 38.9832 52.5109C38.867 52.2582 38.7534 52.2051 38.7181 52.2079Z" fill="white"/><path d="M34.4401 64.0429C34.4401 64.0429 34.3693 64.0052 34.2308 64.0581C34.0948 64.1109 34.1046 64.2523 34.1046 64.2523C34.1046 64.2523 34.0769 64.4035 34.1879 64.4187C34.299 64.4389 34.4804 64.1666 34.4804 64.1363C34.4804 64.1059 34.4401 64.0429 34.4401 64.0429Z" fill="white"/><path d="M30.4156 66.9038C30.4156 66.9038 30.3751 66.9444 30.4105 66.9719C30.4483 67.0049 30.5015 66.9644 30.5015 66.9644C30.5015 66.9644 31.1958 66.4216 31.6074 66.0403C32.0418 65.6312 32.6681 64.9268 32.6681 64.9268C32.6681 64.9268 32.711 64.8737 32.663 64.8283C32.6123 64.7828 32.4938 64.8534 32.3953 64.8989C32.3095 64.9443 32.2589 64.9922 32.1934 65.0454C32.1329 65.1011 31.9257 65.3131 31.9257 65.3131L31.3903 65.8333L31.0518 66.1514L30.7237 66.4644L30.5873 66.6212C30.5873 66.6212 30.5519 66.6817 30.542 66.6968C30.5317 66.7144 30.4965 66.7599 30.4965 66.7599C30.4965 66.7599 30.4458 66.808 30.4458 66.8231C30.4458 66.8357 30.4307 66.8483 30.4307 66.8636C30.4256 66.8836 30.4156 66.9038 30.4156 66.9038Z" fill="white"/><path d="M29.2139 67.6919C29.2139 67.6919 29.1395 67.6314 29.0224 67.6892C28.9039 67.7523 28.7779 67.9134 28.7676 67.9313C28.7564 67.954 28.692 68.0397 28.7363 68.1153C28.7804 68.191 28.9303 68.0799 28.9529 68.075C28.9744 68.075 29.1699 67.9188 29.1699 67.9188C29.1699 67.9188 29.2833 67.848 29.2139 67.6919Z" fill="white"/><path d="M26.9158 70.0199C26.9158 70.0199 26.8173 69.8382 26.6884 69.9139C26.5596 69.9897 26.489 70.015 26.3703 70.179C26.3501 70.2067 26.2226 70.371 26.1998 70.4139C26.1771 70.4544 26.0496 70.6968 26.3084 70.7144C26.7529 70.7395 26.4611 70.4544 26.6139 70.3431C26.7377 70.2574 26.9699 70.2801 26.9726 70.1891C26.975 70.0984 26.9158 70.0199 26.9158 70.0199Z" fill="white"/><path d="M19.0377 60.7173C19.0377 60.7173 18.7713 60.7831 18.7511 60.874C18.7296 60.9699 18.9064 61.0608 18.9341 61.0657C18.9656 61.0708 19.025 61.1416 19.203 61.0203C19.3784 60.9017 19.3709 60.8006 19.3709 60.8006C19.3709 60.8006 19.4744 60.6795 19.0377 60.7173Z" fill="white"/><path d="M23.3698 60.5758C23.3698 60.5758 23.3672 60.4775 23.1794 60.4903C22.9879 60.5004 22.9475 60.5355 22.9425 60.5658C22.9362 60.5935 22.9526 60.6415 23.1227 60.6566C23.2954 60.6668 23.3647 60.6564 23.3698 60.5758Z" fill="white"/><path d="M27.4676 60.6946C27.1229 60.6919 27.2315 60.7023 27.0194 60.7123C26.6344 60.7325 26.4248 60.7172 26.0448 60.6919C25.5118 60.6566 24.6875 60.5253 24.6875 60.5253C24.6875 60.5253 24.5839 60.5002 24.5422 60.5683C24.5043 60.6314 24.6432 60.7778 24.767 60.8159C25.4424 61.0255 25.479 60.9902 25.9386 60.9976C26.195 61.0002 26.3376 60.9748 26.5927 60.9597C26.9159 60.9347 27.0661 60.9849 27.4183 60.8915C27.5104 60.8687 27.5989 60.6972 27.4676 60.6946Z" fill="white"/><path d="M29.7748 60.0102C29.7748 60.0102 29.7055 59.9297 29.5629 60.0002C29.422 60.0682 29.3362 60.2219 29.3362 60.2219C29.3362 60.2219 29.2695 60.3277 29.4119 60.3128C29.5505 60.2927 29.6752 60.2322 29.708 60.212C29.7445 60.1916 29.8479 60.0959 29.7748 60.0102Z" fill="white"/><path d="M27.7666 32.3085C27.7666 32.3085 28.7413 31.3957 29.4393 30.1888C29.8533 29.4691 30.0339 27.7937 29.678 28.2103C29.5175 28.401 29.3231 29.2696 29.015 29.9134C28.5756 30.8299 27.6376 32.128 27.6376 32.128C27.6376 32.128 27.4358 32.5598 27.7666 32.3085Z" fill="white"/><path d="M23.8704 34.628C23.8704 34.628 23.7669 34.7088 23.8136 34.8376C23.8629 34.969 24.0612 34.8705 24.0612 34.8705C24.0612 34.8705 24.5119 34.7001 24.9841 34.6824C25.4575 34.6622 26.1141 34.8035 26.1141 34.8035C26.1141 34.8035 26.4271 34.8893 26.479 34.9095C26.5307 34.931 26.7012 35.0131 26.7303 35.0231C26.7555 35.0344 26.9184 35.1141 27.0093 35.032C27.1002 34.9486 26.4399 34.349 25.7658 34.2581C24.6432 34.1053 23.9061 34.5888 23.9061 34.5888L23.8704 34.628Z" fill="white"/><path d="M19.2469 38.581C19.3263 38.6493 19.7014 37.9346 20.0144 37.4826C20.2442 37.1518 20.6636 36.5988 20.6636 36.5988C20.6636 36.5988 20.8529 36.3451 20.5323 36.4866C20.4023 36.5447 20.0463 36.816 19.795 37.3148C19.5827 37.739 19.1635 38.514 19.2469 38.581Z" fill="white"/><path d="M16.6538 35.4763C16.6538 35.4763 16.5729 35.7529 16.8962 36.0987C17.2219 36.446 17.3052 36.7325 17.5124 36.5255C17.5692 36.4687 17.3103 36.0016 17.179 35.8716C17.0439 35.7427 16.9479 35.6367 16.9479 35.6367L16.8634 35.5672L16.7547 35.5067L16.6928 35.4816C16.6928 35.4816 16.6764 35.4663 16.6538 35.4763Z" fill="white"/><path d="M15.6031 32.825C15.6031 32.825 15.2522 32.8906 15.1664 33.061C15.0792 33.2315 15.5703 33.128 15.5703 33.128C15.5703 33.128 15.896 33.1455 15.9037 33.0219C15.9112 32.8957 15.8622 32.8831 15.6031 32.825Z" fill="white"/><path d="M10.0262 42.0669C9.84701 42.0151 9.8168 42.3676 9.79267 42.481C9.77249 42.5946 9.8736 42.8219 9.91512 42.8219C9.9555 42.8193 10.0981 42.5972 10.1057 42.4887C10.1134 42.3776 10.1841 42.1163 10.0262 42.0669Z" fill="white"/><path d="M15.8181 48.9503C15.8181 48.9503 15.4974 48.6964 15.4481 48.7975C15.4002 48.8985 15.7121 49.3441 15.7121 49.3441C15.7121 49.3441 15.8079 49.4907 15.9556 49.4249C16.1007 49.3543 16.049 49.1926 16.049 49.1926C16.049 49.1926 15.9506 48.9856 15.8181 48.9503Z" fill="white"/><path d="M13.4001 41.5063C13.4001 41.5063 13.318 41.4849 13.2889 41.5833C13.2586 41.6818 13.2612 41.8421 13.2397 42.0365C13.2221 42.1881 13.2789 42.5921 13.2789 42.5921C13.2789 42.5921 13.3104 42.9128 13.3748 43.1035C13.4442 43.313 13.6285 43.6111 13.6285 43.6111C13.6285 43.6111 13.698 43.7639 13.7838 43.7563C13.8684 43.7475 13.8482 43.6477 13.8482 43.6477C13.8482 43.6477 13.5793 42.5822 13.5718 42.4736C13.5401 42.1189 13.5401 41.687 13.5401 41.687L13.5376 41.6225C13.5376 41.6225 13.535 41.5088 13.4001 41.5063Z" fill="white"/><path d="M13.8191 38.2554C13.8191 38.2554 13.6714 38.2276 13.5351 38.5116C13.3976 38.7995 13.4266 38.9157 13.4391 38.9284C13.4493 38.941 13.5578 38.9385 13.7321 38.6721C13.9051 38.4082 13.8659 38.3071 13.8659 38.3071C13.8659 38.3071 13.8557 38.2554 13.8191 38.2554Z" fill="white"/><path d="M17.8821 41.2008C17.8821 41.2008 18.0601 41.4671 17.7193 41.4053C17.3772 41.3435 16.6588 40.7765 16.3658 40.6239C16.0766 40.4711 15.6006 40.423 15.8002 40.2439C15.8368 40.2135 15.8468 40.1843 15.9036 40.182C15.963 40.1794 16.16 40.2564 16.1724 40.2652C16.1826 40.2702 16.6888 40.4798 16.7077 40.4849C16.7254 40.4924 17.0096 40.6137 17.2115 40.7322C17.4135 40.852 17.7416 41.0818 17.7416 41.0818L17.8821 41.2008Z" fill="white"/><path d="M27.3525 49.3545C27.4459 49.6473 26.2743 48.7357 25.6468 48.2521C23.9841 46.9718 21.9487 44.3471 22.2025 44.1148C22.4121 43.9241 23.2466 45.1261 24.4701 46.4504C25.7781 47.862 27.2982 49.1802 27.3525 49.3545Z" fill="white"/><path d="M32.2438 48.0993C31.8802 48.4869 31.7515 48.9832 31.961 49.3544C32.1655 49.7153 32.2287 48.8265 32.456 48.5652C32.653 48.3365 32.7741 48.3733 33.0973 48.1435C33.6478 47.756 32.7035 47.6058 32.2438 48.0993Z" fill="white"/><path d="M30.163 39.8145C29.913 39.7741 29.9206 40.1541 29.9558 40.4231C30.1226 41.6274 30.6631 42.5555 31.385 43.4292C31.8246 43.962 33.029 44.9114 33.1677 44.7587C33.2185 44.7044 32.0214 43.779 31.2588 42.5898C30.7184 41.7464 30.4305 41.0331 30.3624 40.3373C30.355 40.2488 30.3751 39.8486 30.163 39.8145Z" fill="white"/><path d="M25.499 21.9632C24.9561 22.2573 24.0142 22.5163 24.0142 22.5163C24.0142 22.5163 23.9712 22.6097 24.0925 22.5997C24.8994 22.5352 25.2074 22.4342 25.6368 22.2448C26.066 22.0593 26.3779 21.5441 26.3779 21.5441C26.3779 21.5441 26.5522 21.2234 26.229 21.4873C26.1279 21.5681 25.797 21.8003 25.499 21.9632Z" fill="white"/><path d="M32.0494 19.894C32.0494 19.894 31.8651 19.8535 31.7413 19.9306C31.6176 20.0089 31.6528 20.0708 31.6528 20.0708C31.6528 20.0708 31.8449 20.2172 31.9811 20.2413C32.1175 20.2615 32.4104 20.3891 32.4005 20.2906C32.3877 20.1896 32.2237 20.0091 32.1655 19.9598C32.1126 19.9078 32.0494 19.894 32.0494 19.894Z" fill="white"/><path d="M28.966 25.5503C28.9974 25.6146 29.5479 25.4645 29.7601 25.3456C29.9256 25.2522 29.9911 24.939 29.9911 24.939C29.9911 24.939 30.0366 24.636 29.966 24.7534C29.6515 25.2675 28.9355 25.4845 28.966 25.5503Z" fill="white"/><path d="M28.9484 24.1373C29.1707 23.7105 28.3385 24.5805 27.9143 24.8052C27.6555 24.9416 27.2338 25.1233 27.2338 25.1233C27.2338 25.1233 27.1227 25.2621 27.278 25.2495C27.4333 25.2393 27.8285 25.3732 28.1492 25.1257C28.2251 25.0652 28.5583 24.5803 28.5583 24.5803C28.5583 24.5803 28.8422 24.3392 28.9484 24.1373Z" fill="white"/><path d="M28.8198 25.9528C28.8373 26.0223 29.7703 25.9995 30.004 25.9289C30.1884 25.8783 30.2893 25.5527 30.2893 25.5527C30.2893 25.5527 30.4004 25.2674 30.3044 25.3633C29.8816 25.7951 28.8035 25.8834 28.8198 25.9528Z" fill="white"/><path d="M13.8343 34.4991C13.8343 34.4991 13.693 34.4474 13.5175 34.7112C13.3432 34.9738 12.5579 36.1669 12.6968 36.3424C12.8621 36.5494 13.5426 35.2768 13.7499 35.0394C13.9594 34.7983 13.8735 34.5559 13.8735 34.5559C13.8735 34.5559 13.871 34.5016 13.8343 34.4991Z" fill="white"/><path d="M30.9407 56.0106C30.8548 56.407 30.9558 57.2177 31.0923 57.3766C31.4255 57.7781 31.221 56.7479 31.269 56.3867C31.3093 56.051 31.3497 55.9348 31.5165 55.5762C31.8144 54.9298 31.1152 55.1671 30.9407 56.0106Z" fill="white"/><path d="M28.0749 21.534C28.0749 21.534 27.8162 21.5416 27.6142 21.6527C27.4097 21.7638 27.3591 21.9217 27.3591 21.9217C27.3591 21.9217 27.3174 22.0353 27.3453 22.0972C27.4046 22.2323 27.6849 22.0278 27.8806 22.0946C28.0383 22.1514 28.1141 22.1981 28.2353 22.3432C28.3413 22.4696 28.527 22.6513 28.6432 22.5478C28.763 22.4468 28.719 22.188 28.719 22.188C28.719 22.188 28.5813 21.7663 28.4009 21.6476C28.2189 21.5265 28.0749 21.534 28.0749 21.534Z" fill="white"/><path d="M23.7743 24.4997C23.7743 24.4997 23.6293 24.5223 23.6634 24.6988C23.6975 24.8715 23.792 24.8449 23.792 24.8449C23.792 24.8449 24.092 24.7163 24.0743 24.5362C24.0529 24.3547 23.7743 24.4997 23.7743 24.4997Z" fill="white"/><path d="M21.6748 23.5579C21.6748 23.5579 21.5171 23.5643 21.4059 23.7598C21.2974 23.9543 21.2329 24.1564 21.2329 24.1564C21.2329 24.1564 21.1812 24.4114 21.272 24.4922C21.3642 24.5716 21.4652 24.3269 21.5976 24.2309C21.6771 24.1741 21.7265 24.1488 21.8086 24.0907C21.921 24.0136 22.104 24.112 22.0914 23.8849C22.0751 23.6562 21.8327 23.5477 21.6748 23.5579Z" fill="white"/><path d="M28.4597 21.1148C28.4597 21.1148 28.1026 21.0631 28.1164 21.2007C28.129 21.3293 28.3097 21.2524 28.4258 21.3042C28.5393 21.3559 28.6152 21.3761 28.7059 21.4595C28.7729 21.5188 28.7652 21.635 28.8474 21.6374C28.961 21.6401 28.9384 21.5933 28.9384 21.5933C28.9384 21.5933 28.8348 21.2852 28.6999 21.1982C28.5659 21.1097 28.4597 21.1148 28.4597 21.1148Z" fill="white"/><path d="M32.4458 22.5553C32.3952 22.7498 32.3649 22.8166 32.3649 22.8166C32.3649 22.8166 32.2641 23.2119 32.663 23.0666C33.062 22.92 32.8548 22.9819 33.1426 22.8419C33.4255 22.7031 33.4205 22.78 33.6276 22.7902C33.6982 22.7927 33.7436 22.7951 33.8498 22.7751C33.9406 22.7548 33.9027 22.6487 33.7008 22.5944C33.4838 22.5376 33.2186 22.5502 32.9106 22.5476C32.7288 22.5453 32.4988 22.361 32.4458 22.5553Z" fill="white"/><path d="M32.6226 21.0947C32.6226 21.0947 32.4407 21.053 32.3145 21.1313C32.1907 21.2083 32.2286 21.2702 32.2286 21.2702C32.2286 21.2702 32.418 21.4205 32.5569 21.4407C32.6933 21.4647 32.9861 21.5909 32.9761 21.49C32.9608 21.3915 32.7993 21.2085 32.7412 21.1592C32.6833 21.1098 32.6226 21.0947 32.6226 21.0947Z" fill="white"/><path d="M33.3248 23.8383C33.3248 23.8383 33.1301 23.799 32.9963 23.8736C32.865 23.9468 32.9003 24.0062 32.9003 24.0062C32.9003 24.0062 33.1075 24.1452 33.2539 24.1665C33.4004 24.1867 33.7135 24.3054 33.7008 24.2107C33.6883 24.1173 33.5114 23.9443 33.4533 23.8977C33.3952 23.8507 33.3248 23.8383 33.3248 23.8383Z" fill="white"/><path d="M33.385 24.8329C33.385 24.8329 33.1777 24.7863 33.0363 24.8721C32.895 24.9566 32.9377 25.0249 32.9377 25.0249C32.9377 25.0249 33.1526 25.1878 33.3091 25.2106C33.4631 25.2345 33.7965 25.3709 33.7812 25.2623C33.7687 25.1538 33.5818 24.9568 33.5161 24.9038C33.4556 24.848 33.385 24.8329 33.385 24.8329Z" fill="white"/><path d="M33.4785 25.8027C33.4785 25.8027 33.2538 25.751 33.1021 25.8468C32.9481 25.9427 32.9961 26.0198 32.9961 26.0198C32.9961 26.0198 33.2283 26.2015 33.3951 26.2294C33.5643 26.256 33.9253 26.4111 33.9103 26.2887C33.8951 26.1676 33.693 25.9427 33.6224 25.8834C33.5568 25.8202 33.4785 25.8027 33.4785 25.8027Z" fill="white"/><path d="M33.4584 27.0021C33.4584 27.0021 33.2337 26.9541 33.0821 27.0488C32.9281 27.1422 32.9711 27.2192 32.9711 27.2192C32.9711 27.2192 33.2083 27.4009 33.375 27.4288C33.5418 27.4554 33.9028 27.6107 33.8877 27.4894C33.8701 27.3669 33.6705 27.1422 33.6024 27.0828C33.5316 27.0211 33.4584 27.0021 33.4584 27.0021Z" fill="white"/><path d="M33.2942 29.3404C33.2942 29.3404 33.0669 29.2911 32.9154 29.3872C32.7639 29.4819 32.8094 29.5577 32.8094 29.5577C32.8094 29.5577 33.0416 29.7407 33.2084 29.7673C33.3776 29.7926 33.7387 29.9503 33.7236 29.8266C33.7084 29.7054 33.5066 29.4819 33.4357 29.42C33.3675 29.3581 33.2942 29.3404 33.2942 29.3404Z" fill="white"/><path d="M33.4458 28.1712C33.4458 28.1712 33.1881 28.1119 33.0062 28.2229C32.8319 28.3314 32.8851 28.4199 32.8851 28.4199C32.8851 28.4199 33.1553 28.6319 33.3496 28.6623C33.5416 28.6938 33.9609 28.8719 33.9456 28.7331C33.9254 28.5904 33.693 28.3316 33.6124 28.2621C33.5315 28.1914 33.4458 28.1712 33.4458 28.1712Z" fill="white"/><path d="M33.1829 30.3985C33.1829 30.3985 32.9959 30.3542 32.8699 30.4338C32.7435 30.5121 32.784 30.5739 32.784 30.5739C32.784 30.5739 32.9759 30.7268 33.1123 30.7469C33.2512 30.7698 33.5466 30.8971 33.5364 30.7962C33.5213 30.6951 33.3572 30.5121 33.2993 30.4628C33.2436 30.4111 33.1829 30.3985 33.1829 30.3985Z" fill="white"/><path d="M33.0063 31.4108C33.0063 31.4108 32.8548 31.378 32.7488 31.4425C32.648 31.5068 32.678 31.5585 32.678 31.5585C32.678 31.5585 32.8371 31.6823 32.9508 31.7012C33.0642 31.7189 33.3144 31.8276 33.3042 31.7417C33.294 31.6597 33.1527 31.5068 33.1072 31.4651C33.0593 31.4235 33.0063 31.4108 33.0063 31.4108Z" fill="white"/><path d="M32.7886 32.3351C32.7886 32.3351 32.6524 32.3036 32.5566 32.3628C32.4658 32.4195 32.491 32.4686 32.491 32.4686C32.491 32.4686 32.6347 32.5796 32.7381 32.5948C32.8415 32.6136 33.0632 32.7082 33.0534 32.6338C33.0457 32.5594 32.9221 32.4195 32.8792 32.3829C32.8363 32.3452 32.7886 32.3351 32.7886 32.3351Z" fill="white"/><path d="M32.5714 33.0927C32.5714 33.0927 32.4304 33.061 32.3397 33.1177C32.2437 33.177 32.2716 33.2236 32.2716 33.2236C32.2716 33.2236 32.4153 33.337 32.5187 33.3522C32.6221 33.3686 32.8438 33.4656 32.8338 33.3889C32.8262 33.3145 32.7027 33.1772 32.6573 33.1405C32.6168 33.1028 32.5714 33.0927 32.5714 33.0927Z" fill="white"/><path d="M32.3066 33.9714C32.3066 33.9714 32.1957 33.9449 32.1175 33.9916C32.0418 34.0408 32.067 34.0773 32.067 34.0773C32.067 34.0773 32.1829 34.1682 32.2661 34.1833C32.3494 34.1958 32.5307 34.2741 32.5209 34.2108C32.5132 34.1517 32.4124 34.0408 32.3797 34.0093C32.3443 33.979 32.3066 33.9714 32.3066 33.9714Z" fill="white"/><path d="M31.9911 34.7933C31.9911 34.7933 31.8952 34.7705 31.8297 34.8108C31.7643 34.8524 31.7844 34.8863 31.7844 34.8863C31.7844 34.8863 31.8852 34.9632 31.9558 34.9734C32.0264 34.9873 32.1826 35.0541 32.1751 34.9999C32.1702 34.9483 32.0818 34.8524 32.0541 34.8272C32.021 34.8008 31.9911 34.7933 31.9911 34.7933Z" fill="white"/><path d="M31.6651 35.5749C31.6651 35.5749 31.5666 35.5535 31.5013 35.5951C31.438 35.6341 31.4608 35.6669 31.4608 35.6669C31.4608 35.6669 31.5566 35.745 31.6297 35.7576C31.7028 35.7678 31.8565 35.8345 31.849 35.7842C31.844 35.7286 31.7557 35.6341 31.728 35.6077C31.6979 35.5823 31.6651 35.5749 31.6651 35.5749Z" fill="white"/><path d="M10.5276 39.5507C10.5276 39.5507 10.3648 39.8662 10.4456 40.0394C10.5252 40.2137 10.7448 39.7628 10.7448 39.7628C10.7448 39.7628 10.972 39.3132 10.8799 39.2313C10.7865 39.1479 10.7323 39.3802 10.5276 39.5507Z" fill="white"/><path d="M33.5112 80.0874V79.474C33.5112 78.08 34.2159 77.8073 36.2739 77.7973C38.1677 77.8073 38.8367 78.0447 38.8367 79.2467V83.8853H39.5361V84.9307H34.9102C33.9355 84.9307 33.2993 84.2615 33.2993 83.4383V82.4988C33.2993 81.6882 33.7133 80.9813 35.1628 80.9736H36.9708V79.562C36.9708 78.8247 36.9202 78.7363 36.1806 78.7363H36.1729C35.2867 78.7363 35.2286 78.8526 35.2286 79.562V80.0872H33.5112M35.6578 81.7516C35.2943 81.7516 35.0796 82.0444 35.0796 82.408V83.3044C35.0796 83.6656 35.2337 83.9534 35.6578 83.9585H36.3093C36.668 83.9585 36.961 83.8473 36.961 83.3044L36.9659 81.7516H36.3497C36.3346 81.7516 35.6578 81.7516 35.6578 81.7516Z" fill="black"/><path d="M29.1114 79.5446V77.9234H26.5308V78.888H27.2188V83.8826H26.5308V84.9307H29.763V83.8826H29.1114V81.2062C29.1114 80.9564 30.6328 79.0348 30.6328 79.2567V81.9156H32.4208V78.9235C32.4208 78.2392 31.9736 77.7975 31.158 77.7975C30.1883 77.7973 29.533 79.0169 29.1114 79.5446Z" fill="black"/><path d="M49.6824 83.8778V77.9235H47.0486V78.8881H47.7861V83.8778H47.0486V84.9308H50.3742V83.8778H49.6824Z" fill="black"/><path d="M22.4717 79.5446V77.9234H19.8911V78.888H20.5792V83.8826H19.8911V84.9307H23.1207V83.8826H22.4717V81.2062C22.4717 80.9564 23.9918 79.0348 23.9918 79.2567V81.9156H25.7783V78.9235C25.7783 78.2392 25.3338 77.7975 24.5171 77.7975C23.5498 77.7973 22.8934 79.0169 22.4717 79.5446Z" fill="black"/><path fill-rule="evenodd" clip-rule="evenodd" d="M18.9035 82.6354H17.0931V83.1606C17.0931 83.8728 16.9744 83.903 16.0918 83.913H16.0792C15.0677 83.9181 15.1247 83.8172 15.136 83.1606V81.9156H18.9034V79.2112C18.9034 78.2313 18.1636 77.8198 16.2116 77.8124H15.9314C13.8242 77.8225 13.2637 78.3022 13.2637 79.5144V83.4736C13.2637 84.8068 14.0514 85.0317 15.9705 85.0847H16.1799C18.2747 85.0366 18.9034 84.8926 18.9034 83.6478V82.6354M15.1564 79.3122C15.1564 78.9437 15.2675 78.7617 15.6892 78.7566H16.4833C16.8116 78.7566 16.9946 78.9031 16.9946 79.1656V81.1934H15.1562V79.3122H15.1564Z" fill="black"/><path d="M48.7278 76.4842V75.2166" stroke="black" stroke-width="2.08766" stroke-miterlimit="10"/><path d="M42.8188 79.5446V77.9234H40.2356V78.888H40.9225V83.8826H40.2356V84.9307H43.4677V83.8826H42.8188V81.2062C42.8188 80.9564 44.3365 79.0348 44.3365 79.2567V81.9156H46.1267V78.9235C46.1267 78.2392 45.677 77.7975 44.8588 77.7975C43.8944 77.7973 43.2377 79.0169 42.8188 79.5446Z" fill="black"/><path d="M11.0063 81.5242V80.59H10.0001V83.8852H11.7436V84.9306H6.63159V83.8852H7.99133V76.4842H6.92327V75.2114H46.7402V76.4842H10.0001V79.4561H11.0063V78.5774H12.1641V81.5242H11.0063Z" fill="black"/><path d="M49.6568 75.166H47.7581V76.4186H49.6568V75.166Z" fill="black"/></g><defs><clipPath id="clip0_809_1079"><rect width="56.4642" height="90.277" fill="white" transform="translate(0.566406 0.0327148)"/></clipPath></defs></svg> 