<!-- created by svgstack.com | Attribution is required. --><svg width="72" height="71" viewBox="0 0 72 71" fill="none" xmlns="http://www.w3.org/2000/svg"><path d="M35.6561 71L45.6315 14.8981C55.1398 14.8981 58.1389 15.9407 58.5719 20.1965C58.5719 20.1965 64.9504 17.8182 68.1674 12.988C55.6136 7.1708 42.9999 6.90845 42.9999 6.90845L35.6395 15.8732L35.6561 15.8721L28.2958 6.90704C28.2958 6.90704 15.6818 7.16967 3.12967 12.9868C6.3439 17.8171 12.7249 20.1953 12.7249 20.1953C13.1604 15.9393 16.1559 14.8967 25.6004 14.8899L35.6561 71Z" fill="#E82127"/><path d="M35.6521 4.31902C45.8001 4.24141 57.4156 5.88888 69.3064 11.0714C70.8957 8.21091 71.3042 6.9467 71.3042 6.9467C58.3059 1.80409 46.133 0.0441462 35.6507 0C25.169 0.0441462 12.9967 1.80437 0 6.9467C0 6.9467 0.579805 8.50391 1.99642 11.0714C13.885 5.88888 25.5024 4.24141 35.6507 4.31902H35.6521" fill="#E82127"/></svg> 