<!-- created by svgstack.com | Attribution is required. --><svg width="118" height="62" viewBox="0 0 118 62" fill="none" xmlns="http://www.w3.org/2000/svg"><g clip-path="url(#clip0_809_1154)"><path d="M68.1939 31.3686L63.0897 41.3922H62.9835L62.7254 31.3686H58.456L58.2894 31.7293L58.6555 31.9527C59.0089 32.2016 59.1078 32.4543 59.1535 33.15L59.732 45.3137H64.4884L72.1649 31.3686H68.1939ZM53.0003 38.5874C52.5224 39.9587 52.1471 40.8411 51.5924 41.4233C51.1567 41.881 50.5818 42.2087 49.2581 42.2087C48.2201 42.2087 47.6416 41.784 47.6416 40.9802C47.6342 40.4621 47.7752 39.6749 48.3299 38.1425C48.8096 36.7731 49.1849 35.8907 49.7415 35.3085C50.1717 34.8508 50.7484 34.5212 52.0739 34.5212C53.1119 34.5212 53.6886 34.946 53.6868 35.746C53.6978 36.2715 53.5568 37.0587 53.0003 38.5874ZM52.7787 31.1965H52.3357C49.7085 31.1965 48.2073 31.9051 46.9752 33.2141C45.4428 34.8343 44.0038 39.2154 44.0313 41.5331C44.0605 43.8967 45.5893 45.5352 48.8023 45.5352H49.2728C51.9073 45.5352 53.4085 44.8267 54.6406 43.5177C56.1712 41.8938 57.5809 37.5146 57.5534 35.1986C57.5223 32.8369 55.9936 31.1965 52.7787 31.1965M39.879 36.4307C39.6392 37.0258 39.3756 37.1686 39.0296 37.3095C38.797 37.4011 38.3046 37.434 37.8304 37.434H35.9941L36.9937 34.5524H39.2126C39.8772 34.5524 40.1482 34.8984 40.1573 35.292C40.161 35.5428 40.0456 36.0023 39.879 36.4307ZM39.5495 31.3686H33.5281L33.4072 31.7293L33.6507 31.9691C33.907 32.2218 33.8979 32.522 33.6727 33.1665L29.4655 45.3137H33.3102L34.9542 40.4914L36.2559 40.4933L37.7022 45.3137H41.5652L39.7491 40.3797C40.8036 40.2095 41.3327 39.9074 41.8618 39.4369C42.5868 38.7741 43.0884 37.8441 43.504 36.4747C44.1118 34.4883 43.7438 33.3532 43.3539 32.771C42.8174 31.9691 41.6879 31.3686 39.5495 31.3686ZM79.8853 39.7207L80.9508 36.8042H76.0498L76.8096 34.578H82.1189L83.2851 31.3595H73.2615L73.1224 31.7696L73.3622 32.0057C73.6204 32.2566 73.6094 32.555 73.386 33.2031L69.2118 45.3082H78.5781L79.7096 42.0677H74.2428L75.0484 39.7207H79.8853ZM91.1318 36.4307C90.892 37.0258 90.6247 37.1686 90.2841 37.3095C90.0461 37.4011 89.561 37.434 89.0868 37.434H87.2524L88.2428 34.5524H90.4654C91.1263 34.5524 91.4009 34.8984 91.4064 35.292C91.4137 35.5428 91.2947 36.0023 91.1318 36.4307ZM90.7968 31.3686H84.7772L84.66 31.7293L84.9016 31.9691C85.1598 32.2218 85.147 32.522 84.9255 33.1665L80.7147 45.3137H84.5648L86.207 40.4933H87.5069L88.955 45.3137H92.8143L91.0018 40.3797C92.0545 40.2095 92.5836 39.9074 93.1109 39.4369C93.8377 38.7741 94.3412 37.8441 94.7568 36.4747C95.3646 34.4883 94.9966 33.3532 94.6085 32.771C94.072 31.9691 92.9406 31.3686 90.7968 31.3686ZM98.6911 50.0829C88.1293 55.5405 74.0414 58.5466 59.0162 58.5466C43.9928 58.5466 29.9068 55.5405 19.3431 50.0829C9.18413 44.8322 3.5856 37.9942 3.5856 30.8322C3.5856 23.6647 9.18413 16.8267 19.3431 11.5797C29.9068 6.12396 43.9928 3.11416 59.0162 3.11416C74.0414 3.11416 88.1293 6.12396 98.6911 11.5797C108.852 16.8267 114.445 23.6647 114.445 30.8322C114.445 37.9942 108.852 44.8322 98.6911 50.0829M100.121 8.81155C89.1216 3.1288 74.5248 -5.71809e-06 59.0162 -5.71809e-06C43.5076 -5.71809e-06 28.909 3.1288 17.9133 8.81155C11.3994 12.1784 0.469604 19.5161 0.469604 30.8322C0.469604 42.1428 11.3994 49.4824 17.9133 52.8492C28.9072 58.532 43.504 61.6608 59.0162 61.6608C74.5266 61.6608 89.1234 58.532 100.121 52.8492C106.635 49.4824 117.561 42.1446 117.561 30.8322C117.561 19.5143 106.635 12.1784 100.121 8.81155M97.2118 47.2214C85.8482 53.0909 71.7127 55.3226 59.0162 55.3226C46.3179 55.3226 32.1861 53.0909 20.8188 47.2214C14.8046 44.1109 6.80961 38.3805 6.80961 30.8322C6.80961 23.2766 14.8028 17.5517 20.8188 14.443C32.1861 8.57355 46.3179 6.34183 59.0162 6.34183C71.7127 6.34183 85.8482 8.56989 97.2118 14.443C103.231 17.5517 111.223 23.2766 111.223 30.8322C111.223 38.3842 103.23 44.1109 97.2118 47.2214M97.8013 13.2988C86.2638 7.33228 71.8976 5.04929 59.0162 5.04929C46.133 5.04929 31.7705 7.33411 20.2274 13.2988C13.7464 16.6455 5.52073 22.6871 5.52073 30.8322C5.52073 38.97 13.7464 45.0153 20.2274 48.3656C31.7705 54.3267 46.1367 56.6115 59.0162 56.6115C71.8976 56.6115 86.2638 54.3303 97.8013 48.3656C104.286 45.0153 112.512 38.97 112.512 30.8322C112.512 22.6871 104.288 16.6455 97.8013 13.2988M29.9141 33.1665L19.3926 36.6266L18.1074 40.1527H27.3858L28.5941 36.8299H22.1626L29.4637 34.3583L29.9141 33.1665ZM71.7804 17.7165H73.3055C74.3435 17.7165 74.9166 18.0643 74.9294 18.868C74.9385 19.3862 74.7994 20.0965 74.2611 21.6252C73.7851 22.9928 73.4043 23.7855 72.8643 24.3659C72.4304 24.8236 71.8537 25.0268 70.53 25.0268H69.2558L71.7804 17.7165ZM68.4374 16.2061L64.2742 28.3533H70.4165C73.0492 28.3533 74.5522 27.7693 75.7715 26.4621C77.3021 24.8437 78.7008 20.6329 78.655 18.3152C78.6093 15.9498 77.0824 14.4101 73.8694 14.4101H68.2891L68.172 14.7689L68.4136 15.0051C68.6699 15.2596 68.6608 15.5598 68.4374 16.2061ZM91.6151 19.41H82.3367L81.1284 22.7292H87.5581L80.2551 25.208L79.8047 26.3962L90.3263 22.936L91.6151 19.41ZM50.1461 28.346H53.6429L56.6929 19.3257L58.4761 28.346H61.9766L66.7476 14.4046L63.0897 14.4101L60.5413 21.9877L59.0858 14.4101H54.1555L54.0346 14.7689L54.2763 15.0051C54.5363 15.2596 54.5235 15.5598 54.3019 16.2061L50.1461 28.346ZM25.0753 28.3533L34.5899 28.3497L35.7396 25.0268H30.2088L33.8631 14.4101H29.0921L28.9731 14.7689L29.2111 15.0051C29.471 15.2596 29.4601 15.5598 29.2367 16.2061L25.0753 28.3533ZM45.3183 18.2639H45.4428L45.5087 22.4747H42.9419L45.3183 18.2639ZM35.5767 28.346H39.6246L41.3785 25.2648H45.5691L45.6112 28.346H49.2838L48.491 14.4101H42.9932L42.8705 14.7689L43.0481 14.9465C43.3374 15.2303 43.2184 15.6385 42.1474 17.3375L35.5767 28.346Z" fill="black"/></g><defs><clipPath id="clip0_809_1154"><rect width="117.091" height="61.6608" fill="white" transform="translate(0.469604)"/></clipPath></defs></svg> 