<!-- created by svgstack.com | Attribution is required. --><svg width="65" height="48" viewBox="0 0 65 48" fill="none" xmlns="http://www.w3.org/2000/svg"><path fill-rule="evenodd" clip-rule="evenodd" d="M33.7109 3.00369C34.7199 3.03162 34.6127 3.74068 34.4458 3.98512C31.468 8.61748 24.4319 16.7741 19.3088 25.7233C18.4606 27.1733 17.8289 28.2401 17.8289 29.8313C17.8289 31.9887 19.1757 34.5394 21.8813 35.6339C23.6611 36.3469 24.7815 36.3688 26.7024 36.3966C40.9635 36.8376 46.6807 36.4523 59.4419 36.0192C60.1789 36.0171 60.8642 35.5206 61.1105 35.2207C63.5777 32.6481 65 28.0236 65 23.9433C65 14.8552 58.4546 6.66884 48.244 2.73166L46.6052 4.83332C55.5543 8.53213 60.1789 15.9199 60.1789 23.8321C60.1789 25.6121 59.8769 27.3362 59.3305 28.983C58.9254 30.1313 58.4268 30.7907 56.9766 30.8126C46.5773 31.035 40.6894 31.1979 30.2622 30.9238C28.9173 30.8961 28.4824 30.4054 28.2638 29.3405C28.0969 28.7089 28.2361 28.1844 28.6712 27.3919C34.2015 17.5946 43.8359 6.39664 45.7272 3.74067C46.0866 3.25004 45.9178 2.2608 44.6841 1.93308C41.0747 0.866289 37.0244 0.433258 32.9182 0.433258C14.3266 0.508726 1.21374 10.9655 0.911865 23.9433C1.65683 39.5215 15.2026 47.5667 32.9182 47.5667C43.7586 47.5667 53.689 43.7347 59.4995 37.658L54.1319 37.8745C49.1756 42.2826 41.2357 44.6386 33.0235 44.6386C18.0553 44.6386 5.86813 37.1951 5.86813 23.8321C5.86813 12.3383 18.0532 2.97593 33.0235 2.97593L33.7109 3.00369Z" fill="black"/></svg> 