<!-- created by svgstack.com | Attribution is required. --><svg width="63" height="40" viewBox="0 0 63 40" fill="none" xmlns="http://www.w3.org/2000/svg"><path d="M3.20064 38.9859C1.74685 38.7615 0.865223 38.2264 0.508965 37.235L0.31942 36.7075L0.0318604 34.0411V31.2962L1.32162 31.2761C2.46952 31.2582 2.62155 31.2698 2.70387 31.3816C2.77355 31.4762 2.79636 32.0937 2.79636 33.8855C2.79636 36.1338 2.80463 36.2809 2.94751 36.574C3.03064 36.7445 3.21312 36.9707 3.353 37.0766C3.89381 37.4862 3.84437 37.4813 7.49365 37.481H10.8687L11.151 36.9349C11.3101 36.6273 11.64 36.1673 11.9067 35.8813C12.167 35.6021 12.38 35.355 12.38 35.3321C12.38 35.3092 12.0068 35.2812 11.5506 35.2698L10.7213 35.2491L10.7382 34.9683C10.7777 34.3148 11.6436 33.0697 12.5288 32.3933C12.7731 32.2067 13.2127 31.9441 13.5058 31.8096C14.5323 31.3388 14.6268 31.3328 21.0686 31.3351L26.8659 31.3372L28.6182 32.6161C29.582 33.3195 30.406 33.895 30.4494 33.895C30.5477 33.895 33.2197 32.2527 34.0157 31.703L34.6045 31.2965L36.8532 31.3029C39.1503 31.3094 39.0957 31.3076 39.1949 31.3603C39.3391 31.437 39.2878 31.481 39.2878 33.9365C39.2878 36.0433 39.3066 36.5062 39.4012 36.7311C39.5482 37.0804 39.6999 37.242 40.0618 37.4346C40.3455 37.5855 40.4603 37.5923 43.078 37.6147C44.5747 37.6275 45.8764 37.6186 45.9707 37.5952L46.1421 37.5525L46.1614 34.4977L46.1806 31.4429H47.5444H48.9082L48.9451 34.4806L48.982 37.5183L53.929 37.5371L58.8761 37.5559L59.0799 37.3967C59.192 37.3091 59.33 37.1277 59.3864 36.9936C59.4741 36.7852 59.4741 36.7142 59.3864 36.5058C59.33 36.3717 59.1923 36.1905 59.0806 36.1032L58.8774 35.9445H54.3626C50.4406 35.9445 49.8357 35.9301 49.7561 35.8348C49.6381 35.6937 49.76 34.8174 49.9782 34.2386C50.1468 33.7911 50.5645 33.118 50.9303 32.7043C51.2893 32.2984 52.1655 31.7482 52.7454 31.5647C53.2531 31.404 53.2957 31.4027 57.4966 31.4227L61.7355 31.4429L61.757 32.0955C61.7726 32.5682 61.7523 32.7646 61.6833 32.808C61.6309 32.841 59.9363 32.8685 57.9176 32.8691C54.4309 32.8704 54.233 32.8773 53.9666 33.0123C53.4883 33.2546 52.9257 34.037 53.0319 34.312C53.0615 34.3886 53.7743 34.4074 56.6429 34.4074C59.0084 34.4074 60.3491 34.4352 60.6077 34.4897C61.1855 34.6114 61.6361 34.8658 62.0147 35.2839C62.4518 35.7666 62.6079 36.2262 62.5706 36.9199C62.51 38.0439 61.7701 38.824 60.5833 39.0152C59.9119 39.1234 39.6094 39.1202 38.9058 39.0118C37.6833 38.8234 37.0601 38.4598 36.6935 37.7208L36.4496 37.2291L36.4127 34.708C36.3887 33.065 36.3492 32.1781 36.2994 32.1617C36.1229 32.1035 31.9158 34.7829 31.9158 34.9535L37.1593 39.184C37.1593 39.2269 36.2403 39.0188 35.0372 39.0188H33.0719L31.3217 37.7745C30.3592 37.0901 29.5253 36.5301 29.4688 36.5301C29.3677 36.5301 26.4324 38.2977 25.6606 38.8234L25.2662 39.092L14.5289 39.0847C6.35201 39.0792 3.65067 39.0557 3.20064 38.9862V38.9859ZM24.1906 37.8425C24.4457 37.6788 25.3842 37.0925 26.2762 36.5396C27.1682 35.9866 27.898 35.4964 27.898 35.4501C27.898 35.3734 24.1592 32.4827 23.5393 31.9354C23.3148 31.7372 23.0405 32.2955 23.1704 32.5118L22.8615 32.8594L19.4571 32.8699C15.7433 32.8813 15.6541 32.91 15.3656 33.0645C14.9311 33.2973 13.9474 34.1744 13.9474 34.4443C13.9474 34.5674 14.739 34.5222 18.5219 34.5232C20.7215 34.5245 22.59 34.5189 22.59 34.5189C22.5769 34.5842 22.5853 35.3177 22.5853 35.3177L22.5901 35.8345L19.199 35.8711C15.5424 35.9105 15.7242 35.8901 15.1667 36.3239C14.8639 36.5596 14.2188 37.4317 14.3302 37.5424L23.4748 37.518L23.4974 38.2474C23.514 38.7798 23.598 38.2228 24.1905 37.8426L24.1906 37.8425Z" fill="url(#paint0_linear_809_1162)"/><path d="M0.0579834 31.2453V31.9384H2.95156V31.2453H0.0579834ZM45.7673 31.2865V31.9819H48.9376V31.2865H45.7673ZM34.6185 31.2888L34.36 31.4695H35.3939C35.735 31.4612 35.9692 31.4799 36.1419 31.5107L36.1396 31.9934H39.1795V31.2911L37.8437 31.3094C36.6059 31.3005 35.73 31.2944 34.6184 31.2888H34.6185ZM22.3168 31.33C21.7013 31.3313 20.9885 31.334 20.1666 31.3369C15.0797 31.3552 14.6686 31.3645 14.5007 31.4833C14.5007 31.5353 14.2677 31.6316 14.8484 31.5908C14.9344 31.5848 14.9732 31.6002 15.0977 31.5862C15.9054 31.5991 17.2013 31.5725 20.0065 31.5725C23.1556 31.5725 25.7713 31.5867 25.7708 31.5565C25.7688 31.4591 25.9417 31.4021 25.5557 31.3689C25.1348 31.3327 24.1632 31.3262 22.3168 31.33V31.33ZM59.0183 31.3895C58.5376 31.3908 57.9811 31.3934 57.3393 31.3964C53.3668 31.4146 53.0442 31.4263 52.9132 31.5451C52.9132 31.5971 52.7319 31.691 53.1854 31.6503C53.2525 31.6443 53.2826 31.6619 53.3798 31.648C54.0105 31.6609 55.0229 31.6343 57.2135 31.6343C59.6727 31.6343 61.7156 31.6484 61.7151 31.6182C61.7136 31.5209 61.8473 31.4639 61.5458 31.4307C61.2171 31.3945 60.4601 31.3856 59.0183 31.3895V31.3895Z" fill="url(#paint1_linear_809_1162)"/><path d="M52.2181 34.4636C52.0333 34.1639 52.662 33.3214 53.3616 32.933C54.1533 32.4933 54.4644 32.4633 58.2428 32.4622L61.7734 32.5042L61.8281 33.078C61.644 33.0869 60.9447 33.0894 58.171 33.0922C54.0967 33.0964 54.0513 33.101 53.4907 33.5625C53.3107 33.7106 53.1256 33.9393 53.0705 34.0815C53.0327 34.1793 53.0343 34.2619 52.9705 34.3224C52.8075 34.4057 52.6162 34.4828 52.4656 34.5224C52.3978 34.5401 52.3285 34.5878 52.2872 34.5667C52.2586 34.552 52.2759 34.5519 52.2502 34.5169L52.2181 34.4636Z" fill="url(#paint2_linear_809_1162)"/><path d="M12.9241 34.9932C12.9229 34.9151 12.9778 34.6907 13.0523 34.4685C13.2443 33.8959 13.7264 33.3454 14.36 32.975C15.1219 32.5297 15.3298 32.5107 19.5009 32.5066C21.8118 32.5043 23.1608 32.5066 23.1608 32.5066C23.1608 32.5066 23.1608 32.6939 23.1608 32.837C23.1608 32.966 23.1608 33.1842 23.1608 33.1842C22.9814 33.1625 21.7202 33.189 19.5324 33.189C15.7111 33.189 15.5292 33.1772 14.9861 33.5103C14.8522 33.5925 14.6097 33.8039 14.4613 33.9734C14.2638 34.1989 14.069 34.4013 13.9712 34.6287C13.7945 34.7856 13.568 34.7899 13.3995 34.8675C13.0573 35.0252 12.9132 35.0558 12.9132 35.0558L12.9241 34.9932Z" fill="url(#paint3_linear_809_1162)"/><path d="M59.2834 37.0784C59.3867 36.6669 58.8677 36.1212 58.2847 35.9897C58.1409 35.9573 56.2473 35.9479 54.0767 35.969C51.9061 35.99 50.0132 35.9594 49.8647 35.9574C49.7087 35.9553 49.6475 35.9686 49.618 35.9341C49.5601 35.8665 49.6971 35.7022 49.9677 35.4952L50.2788 35.2572L54.0976 35.2612C58.3166 35.2656 58.9174 35.2985 59.2631 35.5447C59.8519 35.964 60.0905 36.6449 59.7845 37.0328C59.5836 37.2873 59.0232 37.6383 58.898 37.5609C59.2093 37.3062 59.1912 37.3174 59.2834 37.0784V37.0784Z" fill="url(#paint4_linear_809_1162)"/><path d="M46.0881 37.7146C45.9679 37.6464 45.7897 37.6515 45.7636 37.5834C45.7374 37.5152 45.7291 36.0191 45.7291 34.3705C45.7291 32.2655 45.724 31.607 45.7053 31.267C45.8086 31.2618 46.0527 31.3742 46.2603 31.5818L46.5954 31.9907L46.5732 37.576C46.5726 37.6912 46.5856 37.8088 46.5703 37.9242C46.36 37.8332 46.2326 37.7775 46.0881 37.7146H46.0881Z" fill="url(#paint5_linear_809_1162)"/><path d="M13.2474 37.8695C13.2474 37.8695 13.2078 37.4631 13.3579 37.0627C13.5182 36.6352 14.1155 36.0233 14.5826 35.8082C15.3025 35.4767 15.4591 35.4646 19.0255 35.4638C21.4991 35.4625 22.5777 35.4823 22.5777 35.4823L22.602 36.1356C22.602 36.1356 21.2758 36.138 19.1991 36.1381C17.2037 36.1381 15.8708 36.1651 15.7021 36.2083C15.17 36.3446 14.6029 36.8953 14.3909 37.4816C14.3561 37.5781 13.3741 37.8599 13.2936 37.8949L13.2474 37.8695Z" fill="url(#paint6_linear_809_1162)"/><path d="M39.2511 39.1257C38.6422 39.0478 37.6006 38.6919 37.2295 38.435C36.9566 38.2461 36.6004 37.8414 36.4371 37.5349C36.2299 37.1456 36.1454 36.2457 36.1428 34.4015C36.1414 33.3873 36.1491 32.5217 36.1148 32.5005C36.0804 32.4792 35.2572 32.953 34.3306 33.5307C32.5967 34.6117 32.0992 34.9448 31.7625 35.0999L30.4075 35.1065C30.5828 34.9426 35.7154 31.6791 35.9859 31.5661C36.1717 31.4884 36.0505 31.4684 36.1392 31.5192C36.2701 31.5943 36.7025 31.7554 36.7548 31.8775C36.8475 32.0938 36.7755 32.5383 36.8028 34.0649C36.8508 36.7467 36.8803 36.8933 37.4931 37.4915C37.7503 37.7427 38.0503 37.9419 38.3831 38.0826C38.3831 38.0826 38.7402 38.19 38.9221 38.2302C39.0504 38.2584 39.3107 38.2956 39.3107 38.2956L49.4194 38.3144L59.7837 38.3208C59.7837 38.3208 60.0281 38.2821 60.1444 38.242C60.2334 38.2114 60.3141 38.1604 60.399 38.1196C61.7349 37.4769 62.1988 36.606 61.7185 35.6422C61.6155 35.4356 61.3993 35.1473 61.238 35.0016C61.0766 34.8558 60.8373 34.6277 60.85 34.5904C60.8848 34.4882 61.6933 34.914 61.9348 35.1551C62.5386 35.7578 62.7942 36.969 62.3991 37.7766C61.9932 38.6063 61.1711 39.0379 60.0169 39.1411C59.0817 39.2247 39.9133 39.2104 39.2511 39.1256V39.1257Z" fill="url(#paint7_linear_809_1162)"/><path d="M3.16506 39.1005C2.38449 38.9893 2.02732 38.8667 1.49933 38.529C0.989181 38.2027 0.602601 37.7504 0.329355 37.1603C0.280939 37.0558 0.22499 36.9541 0.186709 36.8454C0.154088 36.7528 0.130315 36.6569 0.113276 36.5602C0.0794841 36.3684 0.0674788 36.1731 0.0567664 35.9787C0.0233818 35.3727 0.0327434 34.1582 0.0327434 34.1582L0.00670558 31.4316C0.00592998 31.3504 0 31.2358 0 31.2358C0 31.2358 0.297144 31.3872 0.510217 31.5707L0.904122 31.9101L0.906581 33.805C0.909316 35.9135 0.948463 36.1577 1.2756 36.8517C1.47239 37.2692 1.90214 37.6403 2.59598 37.9919C3.41192 38.4054 3.39323 38.4047 13.6684 38.4047H23.0913L23.5643 38.057C23.8245 37.8657 24.8334 37.2152 25.8064 36.6113C26.7793 36.0074 27.5756 35.4784 27.5758 35.4356C27.5767 35.2799 27.1321 34.9427 23.8246 32.5904C23.1873 32.1372 22.6966 31.81 22.4488 31.5838C22.6855 31.5897 23.2272 31.5975 23.5665 31.5977L24.0994 31.5981L25.7098 32.7448C26.5955 33.3755 27.6495 34.1269 28.052 34.4145C28.4545 34.7021 29.0061 35.1264 28.9533 35.1603L26.9175 36.4666C26.2981 36.8641 25.6183 37.2826 25.417 37.4127C25.2157 37.5427 24.8122 37.8029 24.5203 37.9909C24.2284 38.1789 23.97 38.4111 23.97 38.451C24.0289 38.4867 24.2425 38.4776 24.5935 38.4772L25.1974 38.4759L27.2642 37.1277C28.401 36.3862 29.3962 35.7588 29.4757 35.7336C29.6768 35.6698 29.7422 35.71 31.6753 37.0859C32.6214 37.7593 33.4983 38.4268 33.5788 38.4677C33.6594 38.5086 34.0835 38.4774 34.5666 38.5003C34.9169 38.5168 35.1063 38.4949 35.3415 38.5347C36.5939 38.9917 35.4904 38.5934 37.131 39.1952L32.8796 39.1995C32.6542 39.0814 30.5689 37.5783 29.9947 37.1121C29.7314 36.8984 29.4696 36.7229 29.4128 36.7221C29.3561 36.7208 29.0102 36.9258 28.6443 37.1766C28.2783 37.4274 27.454 37.9873 26.8126 38.4209L25.6463 39.2093L14.7351 39.2015C6.28736 39.1955 3.6751 39.1725 3.16506 39.0999V39.1005Z" fill="url(#paint8_linear_809_1162)"/><path d="M39.5025 37.4505C39.031 37.3233 38.7042 37.0832 38.5704 36.9017C38.4838 36.7841 38.4794 36.8078 38.4575 36.7418C38.4371 36.6799 38.3885 36.5734 38.3788 36.509C38.2804 35.8551 38.2879 34.3054 38.2879 34.3054V32.0511L38.6966 31.6871C38.9213 31.487 39.1181 31.3103 39.134 31.2945C39.1498 31.2787 39.176 31.289 39.2373 31.3398C39.3335 31.4196 39.2935 31.8488 39.2937 34.0957C39.2937 37.0636 39.5302 37.1403 40.1603 37.5095C40.4337 37.5816 39.8829 37.5598 39.5025 37.4505V37.4505ZM2.91725 37.2971C2.51432 37.1994 2.16779 36.8537 2.09637 36.6544L2.00389 36.3964C1.94313 34.9077 1.90112 33.4432 1.90112 31.9111L2.19103 31.6215C2.51557 31.2974 2.92504 31.2372 2.92504 31.2372C2.95211 31.2935 2.94385 32.511 2.95451 33.9369C2.97773 37.0415 2.93248 36.8134 3.59831 37.1821C3.78729 37.2868 4.15598 37.3876 4.13502 37.4221C4.0903 37.4957 3.23801 37.3749 2.91725 37.2971V37.2971ZM47.95 34.9174V31.9605L48.2071 31.7347C48.4877 31.4884 48.8949 31.2555 48.9495 31.3102C48.9952 31.3559 49.0068 37.4078 48.9606 37.5279C48.9409 37.5793 48.7384 37.6783 48.5425 37.7479C48.2817 37.8405 47.98 37.9231 47.9854 37.8936C47.946 37.925 47.9499 36.9088 47.9499 34.9174H47.95Z" fill="url(#paint9_linear_809_1162)"/><path d="M49.5937 35.9409C49.596 35.5657 49.8238 34.4292 50.138 33.7861C50.5355 32.9726 51.2441 32.1913 51.894 31.85C52.1431 31.7191 52.3859 31.6119 52.4334 31.6116C52.6978 31.5323 53.1054 31.4596 53.4541 31.4308C53.1957 31.5465 52.9793 31.6136 52.6819 31.7875C52.2778 32.0084 51.9179 32.2028 51.3601 32.8849C51.1612 33.1282 51.0119 33.3369 50.8627 33.7555C50.6634 34.3145 50.6087 34.8874 50.5528 35.248C50.3591 35.3536 50.3728 35.4027 49.5937 35.9409V35.9409ZM10.5022 35.2198C10.5022 34.9571 10.8522 34.1456 11.2665 33.4486C11.745 32.6436 12.1832 32.2544 12.9946 31.9139C13.5927 31.6628 14.6779 31.4084 14.9572 31.4161C15.1256 31.4207 14.4931 31.634 14.1379 31.766C13.514 31.9978 13.1435 32.2763 12.6008 32.8228C12.2647 33.1613 11.9286 33.5963 11.4474 34.7984L11.297 35.2719L10.8669 35.2654C10.5598 35.2608 10.5545 35.2514 10.5022 35.2198V35.2198ZM25.3189 31.3357L26.8615 31.3338C28.917 32.8513 30.0767 33.6376 30.4443 33.9022L29.5639 34.4467C27.5946 33.0329 27.0301 32.5668 25.3189 31.3357V31.3357Z" fill="url(#paint10_linear_809_1162)"/><path d="M31.8278 36.1283L30.439 35.0968H31.1508C31.5423 35.0968 31.9011 34.9399 31.9588 34.9905C31.9588 34.9905 33.1086 35.9254 37.153 39.1641C34.5451 38.4951 33.7942 37.5888 31.8278 36.1283V36.1283Z" fill="url(#paint11_linear_809_1162)"/><path d="M10.9792 37.5517C10.8572 37.4661 10.8627 37.4316 11.0715 36.9662C11.3235 36.4045 12.2282 35.399 12.595 35.1529C12.7366 35.0579 12.9571 34.9145 13.1584 34.8402C13.3597 34.7659 13.5502 34.6748 13.7211 34.6087C13.8238 34.5689 14.0281 34.5142 14.4008 34.5176L14.9883 34.5229L14.6224 34.6534C13.9297 34.9003 13.4513 35.1925 12.9495 35.6753C12.3751 36.2279 12.0283 36.7323 11.7573 37.4093C11.6535 37.6685 11.5658 37.8753 11.5399 37.8913C11.3253 37.8864 11.1622 37.6778 10.9792 37.5518V37.5517Z" fill="url(#paint12_linear_809_1162)"/><path d="M28.5083 27.3295C25.86 27.0515 23.3818 26.3435 20.947 25.1692C18.9176 24.1903 17.6282 23.2873 16.2523 21.8813C14.7093 20.3044 13.9567 19.1512 13.2513 17.2827C12.4082 15.0495 12.7011 12.0619 14.0184 9.45897C15.1277 7.26701 16.5195 5.73103 18.7035 4.28852C19.5158 3.75205 21.5292 2.71922 22.0584 2.56759C22.4316 2.46062 21.8734 2.67007 21.2354 3.03906C20.8418 3.25713 20.5987 3.39167 20.2357 3.6071C19.3921 4.12126 19.1733 4.30335 18.2984 5.00872C15.9076 6.9362 14.4229 9.22245 13.8902 11.797C13.7161 12.6384 13.7161 14.5238 13.8902 15.3652C14.5218 18.4177 16.3571 20.9186 19.4872 22.9924C21.2877 24.1853 23.3748 25.0637 25.8078 25.6525C27.8643 26.1502 28.6399 26.2301 31.4165 26.2301C33.4402 26.2301 34.0968 26.2013 34.9063 26.077C37.4919 25.6802 40.2477 24.7859 42.0937 23.7446C43.6041 22.8927 44.1062 22.5959 44.2425 22.4744C44.3203 22.405 44.6689 22.2203 45.0171 22.0639C45.4343 21.8766 45.731 21.68 45.8869 21.4873C46.1192 21.2005 46.1349 21.1951 46.726 21.1951C47.0801 21.1951 47.6228 20.6829 47.6228 20.732C46.9323 21.7173 45.7905 22.813 45.1422 23.3118C44.1795 24.0544 43.4234 24.5622 42.0522 25.2145C39.7455 26.3118 37.8569 26.9525 34.9479 27.3022C32.8157 27.5586 30.5468 27.5436 28.5083 27.3295V27.3295Z" fill="url(#paint13_linear_809_1162)"/><path d="M28.3238 26.0213C26.794 25.8584 24.5502 25.3714 23.3653 24.945C22.5266 24.6431 20.7508 23.867 20.2906 23.6011C19.7802 23.3062 18.5376 22.382 17.8134 21.7587C16.8742 20.9503 15.3686 19.0527 15.499 18.8417C15.5363 18.7813 16.2105 18.5303 16.3341 18.5303C16.3565 18.5303 16.481 18.716 16.6289 18.9792C17.3013 20.1758 18.3021 21.2499 19.4166 22.1585C20.9079 23.3743 21.9831 23.9118 24.1615 24.5306C28.6545 25.8068 33.8822 25.7476 38.0634 24.3732C39.6963 23.8365 41.3486 22.9398 41.9701 22.2531C42.1386 22.0669 43.4754 21.5955 43.5691 21.6893C43.6873 21.8074 43.3732 22.2074 42.7252 22.7641C41.5705 23.7561 38.6984 24.9935 36.3985 25.4898C34.3294 25.9363 33.5999 26.0109 31.0709 26.0343C29.7431 26.0467 28.5069 26.0408 28.3238 26.0213V26.0213Z" fill="url(#paint14_linear_809_1162)"/><path d="M20.1889 23.1888C19.5155 22.9747 19.1442 22.7628 18.3158 22.1197C16.495 20.7062 15.1788 18.9166 14.5978 17.0643C14.2546 15.9702 14.1765 15.2535 14.2279 13.6687C14.2673 12.4526 14.3074 12.1236 14.4934 11.4915C14.957 9.91655 15.5999 8.71888 16.6748 7.42805C19.1104 4.50292 23.6602 2.29613 28.2916 1.79347C29.5739 1.65429 31.97 1.64224 32.3388 1.77311C32.7177 1.90761 33.1141 2.34629 33.2415 2.77221C33.3257 3.05369 33.3147 3.1367 33.1505 3.45896C33.0478 3.66057 32.8569 3.95727 32.7262 4.11829C32.5955 4.27931 32.2548 4.7201 31.969 5.09782C31.6833 5.47554 31.0161 6.31839 30.4863 6.97083C29.9565 7.62326 29.0938 8.75644 28.5692 9.48899C27.5981 10.845 25.4718 14.0617 25.0476 14.8167C24.9189 15.0456 24.6899 15.4057 24.5387 15.6168C24.3875 15.8279 24.1281 16.2867 23.9624 16.6363C23.685 17.2214 23.6635 17.3203 23.6919 17.8832C23.7305 18.6491 23.9693 19.0474 24.6548 19.4895C25.6868 20.1551 24.7489 20.1027 35.638 20.1027H45.3511L46.193 19.1953C46.8433 18.4943 47.0999 18.1468 47.3209 17.6678C47.6438 16.9676 47.9777 15.8744 48.1219 15.0446C48.2443 14.3405 48.168 12.4542 47.9976 11.9725C47.677 10.6686 47.1097 9.39415 46.4098 8.28194C45.0762 6.19916 43.1763 4.54511 40.43 3.0761C39.9426 2.81536 38.6974 2.21453 38.7168 2.19513C38.7765 2.13529 40.6306 2.90983 41.545 3.36537C43.8036 4.49059 45.7456 6.10136 47.0354 7.91929C47.9914 9.26669 48.7844 10.8001 49.1755 12.3454C49.3931 13.2053 49.4198 13.9537 49.4172 14.8904C49.412 16.7598 49.0219 17.9875 48.1075 19.7706C47.4661 21.0215 47.3195 21.1817 46.3478 21.693L45.2713 22.0828L35.6879 22.1422C25.9065 22.2029 25.8791 22.1417 24.9258 21.9578C22.8859 21.5641 22.0503 21.0781 21.5174 19.9754C21.253 19.4284 21.1939 18.3662 21.3854 17.6022C21.8236 15.8541 24.8297 11.1965 29.0351 5.74989C29.8359 4.71272 30.5291 3.79297 30.5756 3.70602C30.7972 3.29132 30.5755 3.01679 29.9435 2.9232C29.5027 2.85791 27.2554 3.20771 26.2827 3.49302C23.9052 4.19042 22.9877 4.54562 21.8006 5.22829C20.014 6.2558 18.5488 7.51772 17.5318 8.90501C16.4471 10.3846 16.0159 11.3153 15.6058 13.0617C15.3633 14.0944 15.4196 15.7068 15.738 16.8533C16.4018 19.2429 17.811 21.1003 20.2512 22.8018C20.6283 23.0648 20.9368 23.2955 20.9368 23.3146C20.9368 23.3822 20.6401 23.3323 20.1889 23.1888V23.1888Z" fill="url(#paint15_linear_809_1162)"/><path d="M20.2366 23.2057C19.5632 22.9916 19.1919 22.7797 18.3635 22.1366C16.5428 20.7231 15.2266 18.9334 14.6455 17.0812C14.3023 15.987 14.2242 15.2704 14.2756 13.6856C14.315 12.4694 14.3551 12.1404 14.5412 11.5084C15.0047 9.93342 15.6477 8.73575 16.7225 7.44493C19.1582 4.5198 23.7079 2.313 28.3393 1.81034C29.6216 1.67117 32.0178 1.65911 32.3865 1.78999C32.7654 1.92449 33.1618 2.36317 33.2892 2.78909C33.3734 3.07057 33.3624 3.15357 33.1983 3.47584C33.0956 3.67745 32.9046 3.97415 32.7739 4.13517C32.6432 4.29619 32.3025 4.73697 32.0168 5.11469C31.7311 5.49241 31.0638 6.33527 30.534 6.98771C30.0043 7.64014 29.1416 8.77332 28.6169 9.50587C27.6458 10.8619 25.5195 14.0786 25.0953 14.8336C24.9667 15.0625 24.7377 15.4225 24.5864 15.6337C24.4352 15.8448 24.1759 16.3036 24.0101 16.6531C23.7327 17.2383 23.7112 17.3372 23.7396 17.9C23.7782 18.6659 24.017 19.0643 24.7026 19.5064C25.7345 20.172 24.7966 20.1196 35.6857 20.1196H45.3988L46.2407 19.2122C46.8911 18.5112 47.1477 18.1637 47.3686 17.6847C47.6915 16.9845 48.0254 15.8913 48.1697 15.0614C48.2921 14.3573 48.2158 12.4711 48.0454 11.9894C47.7247 10.6855 47.0291 9.52525 46.3291 8.41304C44.9956 6.33025 43.224 4.972 40.4778 3.503C39.9903 3.24226 37.5782 1.94755 38.7645 2.21201C38.8243 2.15217 40.6783 2.9267 41.5927 3.38225C43.8513 4.50747 45.7933 6.11823 47.0831 7.93617C48.0391 9.28356 48.8321 10.8169 49.2232 12.3623C49.4409 13.2222 49.4676 13.9706 49.465 14.9072C49.4597 16.7767 49.0697 18.0043 48.1553 19.7875C47.5138 21.0384 47.3672 21.1985 46.3955 21.7099L45.319 22.0996L35.7356 22.1591C25.9542 22.2198 25.9268 22.1586 24.9736 21.9747C22.9336 21.581 22.098 21.095 21.5651 19.9923C21.3007 19.4453 21.2417 18.383 21.4332 17.6191C21.8713 15.8709 24.8774 11.2134 29.0828 5.76677C29.8836 4.72959 30.5769 3.80985 30.6233 3.7229C30.8449 3.3082 30.6232 3.03366 29.9913 2.94007C29.5504 2.87479 27.3031 3.22459 26.3305 3.5099C23.9529 4.2073 23.0354 4.5625 21.8484 5.24517C20.0617 6.27267 18.5965 7.5346 17.5795 8.92189C16.4949 10.4015 16.0636 11.3322 15.6535 13.0786C15.4111 14.1112 15.4673 15.7237 15.7858 16.8701C16.4495 19.2598 17.8588 21.1172 20.2989 22.8187C20.676 23.0816 20.9845 23.3124 20.9845 23.3315C20.9845 23.399 20.6879 23.3491 20.2366 23.2057V23.2057Z" fill="url(#paint16_linear_809_1162)"/><path d="M20.2366 23.2057C19.5632 22.9916 19.1919 22.7797 18.3635 22.1366C16.5428 20.7231 15.2266 18.9334 14.6455 17.0812C14.3023 15.987 14.2242 15.2704 14.2756 13.6856C14.315 12.4694 14.3551 12.1404 14.5412 11.5084C15.0047 9.93342 15.6477 8.73575 16.7225 7.44493C19.1582 4.5198 23.7079 2.313 28.3393 1.81034C29.6216 1.67117 32.0178 1.65911 32.3865 1.78999C32.7654 1.92449 33.1618 2.36317 33.2892 2.78909C33.3734 3.07057 33.3624 3.15357 33.1983 3.47584C33.0956 3.67745 32.9046 3.97415 32.7739 4.13517C32.6432 4.29619 32.3025 4.73697 32.0168 5.11469C31.7311 5.49241 31.0638 6.33527 30.534 6.98771C30.0043 7.64014 29.1416 8.77332 28.6169 9.50587C27.6458 10.8619 25.5195 14.0786 25.0953 14.8336C24.9667 15.0625 24.7377 15.4225 24.5864 15.6337C24.4352 15.8448 24.1759 16.3036 24.0101 16.6531C23.7327 17.2383 23.7112 17.3372 23.7396 17.9C23.7782 18.6659 24.017 19.0643 24.7026 19.5064C25.7345 20.172 24.7966 20.1196 35.6857 20.1196H45.3988L46.2407 19.2122C46.8911 18.5112 47.1477 18.1637 47.3686 17.6847C47.6915 16.9845 48.0254 15.8913 48.1697 15.0614C48.2921 14.3573 48.2158 12.4711 48.0454 11.9894C47.7247 10.6855 47.1575 9.41103 46.4576 8.29882C45.124 6.21604 43.224 4.56198 40.4778 3.09298C39.9903 2.83224 38.7452 2.23141 38.7645 2.21201C38.8243 2.15217 40.6783 2.9267 41.5927 3.38225C43.8513 4.50747 45.7933 6.11823 47.0831 7.93617C48.0391 9.28356 48.8321 10.8169 49.2232 12.3623C49.4409 13.2222 49.4676 13.9706 49.465 14.9072C49.4597 16.7767 49.0697 18.0043 48.1553 19.7875C47.5138 21.0384 47.3672 21.1985 46.3955 21.7099L45.319 22.0996L35.7356 22.1591C25.9542 22.2198 25.9268 22.1586 24.9736 21.9747C22.9336 21.581 22.098 21.095 21.5651 19.9923C21.3007 19.4453 21.2417 18.383 21.4332 17.6191C21.8713 15.8709 24.8774 11.2134 29.0828 5.76677C29.8836 4.72959 30.5769 3.80985 30.6233 3.7229C30.8449 3.3082 30.6232 3.03366 29.9913 2.94007C29.5504 2.87479 27.3031 3.22459 26.3305 3.5099C23.9529 4.2073 23.0354 4.5625 21.8484 5.24517C20.0617 6.27267 18.5965 7.5346 17.5795 8.92189C16.4949 10.4015 16.0636 11.3322 15.6535 13.0786C15.4111 14.1112 15.4673 15.7237 15.7858 16.8701C16.4495 19.2598 17.8588 21.1172 20.2989 22.8187C20.676 23.0816 20.9845 23.3124 20.9845 23.3315C20.9845 23.399 20.6879 23.3491 20.2366 23.2057V23.2057Z" fill="url(#paint17_linear_809_1162)"/><path d="M14.228 13.6687C14.2674 12.4526 14.3076 12.1236 14.4936 11.4915C14.9572 9.91655 15.6001 8.71887 16.675 7.42805C19.1106 4.50292 23.6603 2.29613 28.2917 1.79347C29.5741 1.65429 31.9702 1.64224 32.3389 1.77311C32.7179 1.90761 33.1142 2.34629 33.2416 2.77221C33.3258 3.05369 33.3148 3.1367 33.1507 3.45896C33.048 3.66057 32.8571 3.95727 32.7264 4.11829C32.5957 4.27931 32.255 4.7201 31.9692 5.09782C31.6835 5.47554 31.0163 6.31839 30.4865 6.97083C29.9567 7.62326 29.094 8.75644 28.5694 9.48899C27.5982 10.845 25.472 14.0617 25.0477 14.8167C24.9191 15.0456 24.6901 15.4057 24.5389 15.6168C24.3876 15.8279 24.1283 16.2867 23.9626 16.6363C23.6851 17.2214 23.6637 17.3203 23.6921 17.8832C23.7307 18.6491 23.9695 19.0474 24.655 19.4895C25.687 20.1551 24.7491 20.1027 35.6381 20.1027H45.3512L46.1931 19.1953C46.8435 18.4943 47.1001 18.1468 47.3211 17.6678C47.644 16.9676 47.9778 15.8744 48.1221 15.0446C48.2445 14.3405 48.1682 12.4542 47.9978 11.9725C47.6771 10.6686 46.9522 9.55185 46.2523 8.43964C44.9187 6.35686 43.0187 4.70281 40.2725 3.2338C39.7851 2.97307 38.6976 2.21453 38.717 2.19513C38.7767 2.13529 40.6308 2.90983 41.5452 3.36537C43.8037 4.49059 45.7458 6.10136 47.0356 7.91929C47.9916 9.26669 48.7846 10.8 49.1757 12.3454C49.3933 13.2053 49.42 13.9537 49.4174 14.8904C49.4122 16.7598 49.0221 17.9875 48.1077 19.7706C47.4662 21.0215 47.3196 21.1817 46.348 21.693L45.2714 22.0828L35.6881 22.1422C25.9067 22.2029 25.8793 22.1417 24.926 21.9578C22.8861 21.5641 22.0504 21.0781 21.5175 19.9754C21.2532 19.4284 21.1941 18.3661 21.3856 17.6022C21.8238 15.8541 24.8298 11.1965 29.0353 5.74989C29.8361 4.71271 30.5293 3.79297 30.5758 3.70602C30.7973 3.29132 30.5757 3.01679 29.9437 2.9232C29.5029 2.85791 27.2556 3.20771 26.2829 3.49302C23.9053 4.19042 22.9879 4.54562 21.8008 5.22829C20.0141 6.2558 18.549 7.51772 17.532 8.90501C16.4473 10.3846 16.0161 11.3153 15.606 13.0617C15.3635 14.0944 15.4197 15.7068 15.7382 16.8533C14.3557 15.6984 14.1981 14.6743 14.228 13.6687V13.6687Z" fill="url(#paint18_linear_809_1162)"/><path d="M14.5978 17.0643C14.2546 15.9702 14.1765 15.2535 14.2279 13.6687C14.2673 12.4526 14.3074 12.1236 14.4934 11.4915C14.957 9.91655 15.5999 8.71887 16.6748 7.42805C19.1104 4.50292 23.6602 2.29613 28.2916 1.79347C29.5739 1.65429 31.97 1.64224 32.3388 1.77311C32.7177 1.90761 33.1141 2.34629 33.2415 2.77221C33.3257 3.05369 33.3147 3.1367 33.1505 3.45896C33.0478 3.66057 32.8569 3.95727 32.7262 4.11829C32.5955 4.27931 32.2548 4.7201 31.969 5.09782C31.6833 5.47554 31.0161 6.31839 30.4863 6.97083C29.9565 7.62326 29.0938 8.75644 28.5692 9.48899C27.5981 10.845 25.4718 14.0617 25.0476 14.8167C24.9189 15.0456 24.6899 15.4057 24.5387 15.6168C24.3875 15.8279 24.1281 16.2867 23.9624 16.6363C23.685 17.2214 23.6635 17.3203 23.6919 17.8832C23.7305 18.6491 23.9693 19.0474 24.6548 19.4895C25.6868 20.1551 24.7489 20.1027 35.638 20.1027H45.3511L46.193 19.1953C46.8433 18.4943 47.0999 18.1468 47.3209 17.6678C47.6438 16.9676 47.9776 15.8744 48.1219 15.0446C48.2443 14.3405 48.168 12.4542 47.9976 11.9725C47.677 10.6686 47.1097 9.39415 46.4098 8.28194C45.0762 6.19916 43.1763 4.54511 40.43 3.0761C39.9426 2.81536 38.6974 2.21453 38.7168 2.19513C38.7765 2.13529 40.6306 2.90983 41.545 3.36537C43.8036 4.49059 45.7456 6.10136 47.0354 7.91929C47.9914 9.26669 48.7844 10.8 49.1755 12.3454C49.3931 13.2053 49.4198 13.9537 49.4172 14.8904C49.412 16.7598 49.0219 17.9875 48.1075 19.7706C47.4661 21.0215 47.3195 21.1817 46.3478 21.693L45.2713 22.0828L35.6879 22.1422C25.9065 22.2029 25.8791 22.1417 24.9258 21.9578C22.8859 21.5641 22.0503 21.0781 21.5174 19.9754C21.253 19.4284 21.1939 18.3661 21.3854 17.6022C21.8236 15.8541 24.8297 11.1965 29.0351 5.74989C29.8359 4.71271 30.5291 3.79297 30.5756 3.70602C30.7971 3.29132 30.5755 3.01679 29.9435 2.9232C29.5027 2.85791 27.2554 3.20771 26.2827 3.49302C23.9052 4.19042 22.9877 4.54562 21.8006 5.22829C20.014 6.2558 18.5488 7.51772 17.5318 8.90501C16.4471 10.3846 16.0159 11.3153 15.6058 13.0617C15.3633 14.0944 15.4196 15.7068 15.738 16.8533C15.3502 17.0805 16.3862 18.6604 14.5978 17.0643V17.0643Z" fill="url(#paint19_linear_809_1162)"/><path d="M14.6892 16.9729C14.346 15.8787 14.2679 15.1621 14.3193 13.5773C14.3587 12.3611 14.3988 12.0321 14.5849 11.4001C15.0485 9.82512 15.6914 8.62744 16.7662 7.33662C19.2019 4.41149 23.7516 2.2047 28.383 1.70204C29.6653 1.56286 32.0615 1.55081 32.4302 1.68168C32.8091 1.81618 33.2055 2.25486 33.3329 2.68078C33.4171 2.96226 33.4061 3.04526 33.242 3.36753C33.1393 3.56914 32.9483 3.86584 32.8176 4.02686C32.6869 4.18788 32.3462 4.62867 32.0605 5.00639C31.7747 5.38411 31.1075 6.22697 30.5777 6.8794C30.048 7.53184 29.1853 8.66501 28.6606 9.39756C27.6895 10.7536 25.5632 13.9703 25.139 14.7252C25.0104 14.9542 24.7814 15.3142 24.6301 15.5254C24.4789 15.7365 24.2195 16.1953 24.0538 16.5448C23.7764 17.13 23.7549 17.2289 23.7833 17.7917C23.8219 18.5576 24.0607 18.9559 24.7463 19.3981C25.7782 20.0637 24.8403 20.0113 35.7294 20.0113H45.4425L46.2844 19.1039C46.9347 18.4029 47.1913 18.0554 47.4123 17.5763C47.7352 16.8762 48.0691 15.783 48.2133 14.9531C48.3358 14.249 48.2595 12.3628 48.0891 11.881C47.7684 10.5772 47.0435 9.46042 46.3435 8.34821C45.01 6.26543 43.11 4.61138 40.3638 3.14237C39.8763 2.88163 38.7889 2.1231 38.8082 2.1037C38.868 2.04386 40.722 2.8184 41.6364 3.27394C43.895 4.39916 45.837 6.00993 47.1268 7.82786C48.0828 9.17526 48.8758 10.7086 49.2669 12.254C49.4846 13.1139 49.5113 13.8623 49.5087 14.7989C49.5034 16.6684 49.1133 17.896 48.199 19.6792C47.5575 20.9301 47.4109 21.0902 46.4392 21.6016L45.3627 21.9913L35.7793 22.0508C25.9979 22.1115 25.9705 22.0503 25.0173 21.8664C22.9773 21.4727 22.1417 20.9867 21.6088 19.884C21.3444 19.337 21.2854 18.2747 21.4768 17.5108C21.915 15.7626 24.9211 11.1051 29.1265 5.65846C29.9273 4.62128 30.6206 3.70154 30.667 3.61459C30.8886 3.19989 30.6669 2.92535 30.035 2.83177C29.5941 2.76648 27.3468 3.11628 26.3742 3.40159C23.9966 4.09899 23.0791 4.45419 21.8921 5.13686C20.1054 6.16436 18.6402 7.4263 17.6232 8.81359C16.5386 10.2932 16.1073 11.2239 15.6972 12.9703C15.4548 14.0029 15.511 15.6154 15.8295 16.7618C15.4416 16.989 15.526 16.8974 14.6892 16.9729V16.9729Z" fill="url(#paint20_linear_809_1162)"/><g opacity="0.8"><path d="M28.455 1.86841C29.6614 1.73502 31.9157 1.72347 32.2626 1.8489C32.6191 1.97781 32.992 2.39825 33.1118 2.80646C33.191 3.07624 33.1807 3.15579 33.0263 3.46466C32.9297 3.65789 32.75 3.94225 32.6271 4.09658C32.5041 4.2509 32.1836 4.67336 31.9147 5.03538C29.9708 6.9915 30.3365 5.87987 30.6038 3.70145C30.8122 3.30399 30.6037 3.04087 30.0091 2.95117C29.251 2.35124 29.9745 2.4514 28.455 1.86841Z" fill="url(#paint21_linear_809_1162)"/></g><path d="M29.9692 7.47933C29.4708 8.10464 28.6591 9.1907 28.1656 9.8928C27.2519 11.1924 25.2515 14.2754 24.8524 14.999C24.7314 15.2184 24.5159 15.5635 24.3737 15.7658C24.2314 15.9682 23.9874 16.4079 23.8315 16.7429C23.5705 17.3038 23.5503 17.3986 23.577 17.938C23.6133 18.672 23.8379 19.0538 24.4829 19.4776C25.4538 20.1155 24.5714 20.0653 34.8159 20.0653C36.1484 20.6581 46.5428 21.6447 34.8628 22.02C25.6605 22.0781 25.6347 22.0195 24.7379 21.8432C22.8187 21.4659 22.0325 21.0001 21.5312 19.9433C21.2825 19.419 21.2269 18.4009 21.407 17.6687C23.6784 9.7754 31.0518 5.79558 29.9692 7.47933V7.47933Z" fill="url(#paint22_linear_809_1162)"/><path d="M27.7881 18.5169C27.3736 17.9359 27.3621 17.2545 27.7519 16.368C28.4373 14.8092 32.317 9.38298 35.2457 5.88707C36.9357 3.86969 37.6179 2.90951 37.6179 2.54817C37.6179 2.38916 37.5162 2.19542 37.3169 1.97479L36.7846 1.49442L37.2602 1.64158C37.5557 1.73301 38.3991 2.01425 38.6511 2.17938C39.0643 2.45007 38.993 3.20416 38.5707 3.93937C38.3694 4.28977 37.5699 5.32365 36.8714 6.1368C34.9627 8.35871 32.7065 11.4016 30.6066 14.5862C29.4911 16.2778 29.1344 16.9972 29.2551 17.3117C29.3175 17.4743 28.2587 18.7079 28.0599 18.7042C27.9829 18.7028 27.8606 18.6185 27.7881 18.5169V18.5169Z" fill="#505050"/><path d="M45.5868 19.083C45.4075 18.8846 44.9633 17.9548 44.9633 17.8023C44.9633 17.736 45.144 17.7358 45.2196 17.6747C45.4478 17.4902 45.6061 17.1163 45.831 16.2306C46.3571 14.1593 46.1377 12.1074 45.1766 10.1094C43.9932 7.64898 41.5435 5.54923 38.8101 4.65217C38.4241 4.52551 38.3018 4.47986 38.2203 4.38723C38.0802 4.2279 38.0984 4.16864 38.3282 3.66613C38.4989 3.29295 38.5378 3.09665 38.6653 3.07825C38.7651 3.06384 39.2501 3.25776 39.9701 3.6091C43.4986 5.33077 45.8138 7.50505 46.9789 10.1913C47.5891 11.5984 47.7216 12.1546 47.775 13.5345C47.8413 15.2432 47.57 16.5006 46.8164 17.9785C46.2081 19.1715 45.8835 19.4113 45.5868 19.083Z" fill="url(#paint23_linear_809_1162)"/><path d="M28.8323 19.1786C28.4017 19.1247 28.0039 18.8464 28.0039 18.6807C28.0039 18.5157 29.1101 17.2404 29.2486 17.2404C29.2953 17.2404 29.3193 17.4214 29.4683 17.4974C29.7134 17.6223 30.4775 17.6387 37.4827 17.6692L45.2263 17.703L45.5601 18.3083C45.7622 18.6746 45.9331 19.0278 45.9004 19.1116C45.8505 19.2396 41.1363 19.3159 33.4473 19.3043C28.8715 19.2975 28.9719 19.196 28.8323 19.1785V19.1786Z" fill="url(#paint24_linear_809_1162)"/><path opacity="0.5" d="M28.8323 19.1786C28.4017 19.1247 28.0039 18.8464 28.0039 18.6807C28.0039 18.5157 29.1101 17.2404 29.2486 17.2404C29.2953 17.2404 29.3193 17.4214 29.4683 17.4974C29.7134 17.6223 30.4775 17.6387 37.4827 17.6692L45.2263 17.703L45.5601 18.3083C45.7622 18.6746 45.9331 19.0278 45.9004 19.1116C45.8505 19.2396 41.1363 19.3159 33.4473 19.3043C28.8715 19.2975 28.9719 19.196 28.8323 19.1785V19.1786Z" fill="url(#paint25_linear_809_1162)"/><path d="M28.8419 26.5166C20.7947 25.8146 14.36 21.0984 13.4037 15.2017C12.8061 11.5169 14.3872 7.92084 17.8735 5.03533C19.0734 4.04218 19.3891 3.83796 20.9337 3.05589C23.8211 1.59386 26.6248 0.927022 30.2987 0.828513C32.2756 0.775506 33.7103 0.864903 35.3321 1.14216C36.7444 1.38362 36.9133 1.44324 37.3107 1.84062C37.5952 2.12514 37.6659 2.25457 37.6659 2.49094C37.6659 2.85195 37.2708 3.4027 35.1718 5.96713C32.6794 9.01236 31.1476 11.0737 29.1598 14.0579C27.5117 16.5321 27.2838 17.0835 27.5418 17.9713C27.7324 18.6269 28.3293 18.931 28.9158 19.0427C29.6752 19.1872 30.5303 19.1532 36.2837 19.1441C39.3058 19.1393 45.7162 19.1531 45.915 19.1385C46.1736 19.1195 46.3244 19.0446 46.4975 18.8787C47.0916 18.1097 47.3247 17.7884 46.539 19.185C46.2026 19.7828 45.6899 20.2461 45.1252 20.3633C44.4712 20.4991 27.2622 20.4321 26.316 20.2901C25.4894 20.166 25.0106 19.9835 24.37 19.5485C23.9684 19.2758 23.8132 19.1051 23.6343 18.7396C23.4333 18.3287 23.4134 18.2145 23.4586 17.7309C23.5153 17.124 23.7682 16.5042 24.2485 15.7954C24.4224 15.5388 24.6909 15.1041 24.8452 14.8294C24.9996 14.5547 25.6547 13.5245 26.3012 12.5401C28.0166 9.92794 29.7629 7.54878 31.0061 6.13026C31.7882 5.23781 32.9168 3.6931 32.998 3.40399C33.1556 2.84289 32.7148 2.08507 32.1051 1.86904C31.6897 1.72184 29.4808 1.75348 28.1506 1.92569C20.8445 2.8715 15.331 7.0839 14.3982 12.4328C14.2397 13.3419 14.2387 15.1466 14.3962 16.0463C14.8312 18.5302 16.4217 20.8352 18.9407 22.6323C19.8583 23.2869 21.8669 24.3169 23.0563 24.7427C28.4519 26.6743 35.2888 26.3668 40.4272 23.9613C41.6629 23.3828 42.1927 23.0238 42.9624 22.2432L43.6388 21.5572L44.8058 21.5015C45.92 21.4483 46.5363 21.5058 46.4547 21.6379C46.3802 21.7583 44.8088 22.373 44.1802 22.5961C43.8251 22.7221 43.495 22.9499 42.9925 23.2659C39.1393 25.6881 33.7885 26.9482 28.8419 26.5167L28.8419 26.5166Z" fill="url(#paint26_linear_809_1162)"/><path opacity="0.3" d="M28.9335 26.5018C20.8863 25.7998 14.4515 21.0836 13.4952 15.1869C12.8977 11.5021 14.4787 7.90604 17.965 5.02053C19.165 4.02738 19.4807 3.82316 21.0252 3.04109C23.9126 1.57906 26.7163 0.912216 30.3903 0.813705C29.1872 1.40197 29.8419 1.84326 28.2421 1.91088C20.936 2.85669 15.4225 7.06909 14.4898 12.4179C14.3312 13.3271 14.3302 15.1318 14.4877 16.0315C14.9227 18.5154 16.5133 20.8204 19.0323 22.6175C19.9499 23.2721 21.9585 24.3021 23.1479 24.7279C28.5434 26.6595 35.3804 26.352 40.5188 23.9465C41.7545 23.368 42.2842 23.009 43.0539 22.2284L43.7304 21.5424L44.8973 21.4867C46.0116 21.4335 46.6278 21.491 46.5462 21.623C46.4717 21.7435 44.9004 22.3582 44.2717 22.5813C43.9167 22.7073 43.5866 22.9351 43.084 23.251C39.2308 25.6733 33.8801 26.9334 28.9334 26.5018L28.9335 26.5018Z" fill="url(#paint27_linear_809_1162)"/><path d="M28.8788 26.5116C20.8316 25.8095 14.586 21.4088 13.6297 15.512C13.0322 11.8273 14.6132 8.29429 18.0995 5.40878C19.2995 4.41563 19.6544 4.20824 21.1043 3.36309C23.9004 1.73324 26.6616 0.921987 30.3356 0.823478C32.3125 0.770471 33.7471 0.859864 35.3689 1.13712C36.7812 1.37858 36.9501 1.4382 37.3475 1.83558C37.632 2.12011 37.7027 2.24953 37.7027 2.4859C37.7027 2.84692 37.3076 3.39767 35.2087 5.96209C32.7162 9.00732 31.1845 11.0687 29.1967 14.0529C27.5485 16.5271 27.3206 17.0784 27.5787 17.9662C27.7693 18.6219 28.3662 18.926 28.9526 19.0376C29.7121 19.1822 30.5671 19.1482 36.3205 19.1391C39.3427 19.1343 45.7531 19.148 45.9519 19.1334C46.2104 19.1144 46.3612 19.0396 46.5344 18.8737C47.1284 18.1047 47.3616 17.7834 46.5758 19.18C46.2395 19.7777 45.7267 20.2411 45.162 20.3583C44.5081 20.4941 27.299 20.427 26.3528 20.285C25.5263 20.161 25.0474 19.9785 24.4068 19.5435C24.0053 19.2708 23.85 19.1001 23.6712 18.7345C23.4702 18.3236 23.4503 18.2095 23.4954 17.7259C23.5521 17.119 23.805 16.4992 24.2853 15.7904C24.4592 15.5338 24.7277 15.099 24.8821 14.8243C25.0364 14.5496 25.6915 13.5195 26.338 12.5351C28.0534 9.92291 29.7998 7.54374 31.0429 6.12523C31.825 5.23277 32.9536 3.68807 33.0349 3.39896C33.1925 2.83785 32.7516 2.08003 32.142 1.86401C31.7265 1.71681 29.5176 1.74845 28.1874 1.92065C20.8813 2.86646 15.3678 7.07886 14.435 12.4277C14.2765 13.3369 14.2755 15.1416 14.433 16.0413C14.868 18.5252 16.4586 20.8302 18.9775 22.6272C19.8952 23.2819 21.9038 24.3118 23.0932 24.7377C28.4887 26.6693 35.3256 26.3617 40.4641 23.9562C41.6998 23.3778 42.2295 23.0188 42.9992 22.2382L43.6757 21.5522L44.8426 21.4965C45.9569 21.4433 46.5731 21.5008 46.4915 21.6328C46.417 21.7533 44.8456 22.368 44.217 22.5911C43.8619 22.7171 43.5318 22.9449 43.0293 23.2608C39.1761 25.683 33.8254 26.9432 28.8787 26.5116L28.8788 26.5116Z" fill="url(#paint28_linear_809_1162)"/><path opacity="0.5" d="M28.8419 26.5166C20.7947 25.8146 14.36 21.0984 13.4037 15.2017C12.8061 11.5169 14.3872 7.92084 17.8735 5.03533C19.0734 4.04218 19.3891 3.83796 20.9337 3.05588C23.8211 1.59385 26.6248 0.927016 30.2987 0.828506C30.2213 1.62882 28.9546 1.92906 28.1506 1.92568C20.8445 2.87149 15.331 7.08389 14.3982 12.4327C14.2397 13.3419 14.2387 15.1466 14.3962 16.0463C14.8312 18.5302 16.4217 20.8352 18.9407 22.6323C19.8583 23.2869 21.8669 24.3169 23.0563 24.7427C28.4519 26.6743 35.2888 26.3668 40.4272 23.9613C41.6629 23.3828 42.1926 23.0238 42.9624 22.2432L43.6388 21.5572L44.8058 21.5015C45.92 21.4483 46.5363 21.5058 46.4547 21.6378C46.3802 21.7583 44.8088 22.373 44.1802 22.5961C43.8251 22.7221 43.495 22.9499 42.9924 23.2658C39.1393 25.6881 33.7885 26.9482 28.8419 26.5166H28.8419Z" fill="url(#paint29_linear_809_1162)"/><path opacity="0.3" d="M28.9335 26.5018C20.8863 25.7998 14.4515 21.0836 13.4952 15.1869C12.8977 11.5021 14.4787 7.90604 17.965 5.02053C19.165 4.02738 19.4807 3.82316 21.0252 3.04109C23.9126 1.57906 26.7163 0.912216 30.3903 0.813705C29.1872 1.40197 29.8419 1.84326 28.2421 1.91088C20.936 2.85669 15.4225 7.06909 14.4898 12.4179C14.3312 13.3271 14.3302 15.1318 14.4877 16.0315C14.9227 18.5154 16.5133 20.8204 19.0323 22.6175C19.9499 23.2721 21.9585 24.3021 23.1479 24.7279C28.5434 26.6595 35.3804 26.352 40.5188 23.9465C41.7545 23.368 42.2842 23.009 43.0539 22.2284L43.7304 21.5424L44.8973 21.4867C46.0116 21.4335 46.6278 21.491 46.5462 21.623C46.4717 21.7435 44.9004 22.3582 44.2717 22.5813C43.9167 22.7073 43.5866 22.9351 43.084 23.251C39.2308 25.6733 33.8801 26.9334 28.9334 26.5018L28.9335 26.5018Z" fill="url(#paint30_linear_809_1162)"/><path opacity="0.3" d="M29.7673 19.5363C29.1059 19.5203 27.8774 18.5572 27.9683 18.6344C28.6617 19.2229 31.5737 19.1693 37.2713 19.1554L45.9177 19.1342L46.138 18.9231C46.2592 18.807 46.5313 18.3483 46.7428 17.9038C47.9972 15.2669 48.0017 12.5935 46.7564 9.9921C46.2501 8.93445 45.6582 8.09959 44.719 7.11848C43.357 5.69569 42.0726 4.72902 40.0156 3.82121C38.5569 3.17738 38.5146 3.31989 38.5747 2.9151C38.5747 2.81479 38.5201 2.68621 38.4756 2.52757C38.2836 1.84225 38.3722 1.99312 40.1036 2.89773C42.4302 4.11326 43.6859 4.94109 45.1504 6.4669C48.3853 9.83725 49.1898 14.1864 47.3012 18.0944C46.94 18.8419 46.4219 19.3524 45.8452 19.5291C45.5883 19.6078 44.0801 19.614 38.0532 19.607C33.7265 19.602 33.1566 19.618 29.7673 19.5363V19.5363Z" fill="url(#paint31_linear_809_1162)"/><path d="M29.7672 19.3142C28.6152 19.2985 27.5765 18.3572 27.6674 18.4333C28.3609 19.0141 31.5736 18.9521 37.2712 18.9383L45.9176 18.9174L46.1379 18.7091C46.2591 18.5945 46.5312 18.1418 46.7427 17.703C47.997 15.1006 48.0016 12.4621 46.7563 9.89464C46.25 8.8508 45.658 8.02685 44.7189 7.05855C43.3569 5.65433 42.0725 4.70029 40.0155 3.80432C38.5567 3.1689 38.5145 3.30955 38.5745 2.91005C38.5745 2.81105 38.5199 2.68415 38.4755 2.52758C38.2835 1.8512 38.4613 2.35229 40.1927 3.24508C42.5193 4.44474 43.5073 5.08568 44.9718 6.59157C48.2068 9.91791 49.1897 14.0341 47.3011 17.8911C46.9398 18.6289 46.4218 19.1327 45.8451 19.3071C45.5881 19.3849 44.08 19.3909 38.0531 19.384C33.7264 19.3791 33.1571 19.3605 29.7672 19.3142V19.3142Z" fill="url(#paint32_linear_809_1162)"/><path opacity="0.5" d="M46.7565 9.9921C46.2502 8.93444 45.6582 8.09958 44.7191 7.11847C43.3571 5.69568 42.0726 4.72901 40.0157 3.8212C38.5569 3.17737 38.5147 3.31988 38.5747 2.9151C38.5747 2.81478 38.5201 2.68621 38.4757 2.52757C38.2837 1.84224 38.2607 2.21614 39.9922 3.12074C42.3188 4.33628 43.686 4.94108 45.1505 6.4669C46.4004 8.16889 45.5722 7.25987 46.7565 9.9921V9.9921Z" fill="url(#paint33_linear_809_1162)"/><path opacity="0.3" d="M43.0542 22.2284L43.7306 21.5424L44.8975 21.4867C46.0118 21.4335 46.628 21.491 46.5464 21.623C45.7641 22.5084 42.2992 23.1372 43.0542 22.2284Z" fill="url(#paint34_linear_809_1162)"/><path opacity="0.6" d="M28.8788 26.4933C20.8316 25.7913 14.5861 21.3905 13.6298 15.4938C13.0322 11.809 14.6132 8.27601 18.0995 5.3905C19.2995 4.39735 19.6544 4.18996 21.1043 3.34481C23.9004 1.71496 26.6616 0.903707 30.3356 0.805197C32.3125 0.75219 33.7471 0.841588 35.3689 1.11885C36.7812 1.3603 36.9501 1.41992 37.3475 1.8173C37.632 2.10183 37.7027 2.23125 37.7027 2.46762C37.7027 2.82864 37.3076 3.37938 35.2087 5.94381C32.7162 8.98904 31.1845 11.0504 29.1967 14.0346C27.5485 16.5088 27.3206 17.0602 27.5787 17.9479C27.7693 18.6036 28.3662 18.9077 28.9526 19.0193C29.7121 19.1639 30.5671 19.1299 36.3205 19.1208C39.3427 19.116 45.7531 19.1297 45.9519 19.1151C46.2104 19.0962 46.3612 19.0213 46.5344 18.8554C47.1284 18.0864 47.3616 17.7651 46.5758 19.1617C46.2395 19.7594 45.7267 20.2228 45.162 20.34C44.5081 20.4758 27.299 20.4087 26.3528 20.2667C25.5263 20.1427 25.0474 19.9602 24.4068 19.5252C24.0053 19.2525 23.85 19.0818 23.6712 18.7162C23.4702 18.3054 23.4503 18.1912 23.4954 17.7076C23.5521 17.1007 23.805 16.4809 24.2853 15.7721C24.4592 15.5155 24.7277 15.0808 24.8821 14.806C25.0364 14.5313 25.6916 13.5012 26.338 12.5168C28.0534 9.90462 29.7998 7.52547 31.0429 6.10695C31.825 5.2145 32.9536 3.66979 33.0349 3.38068C33.1925 2.81957 32.7516 2.06175 32.142 1.84573C31.7266 1.69853 29.5176 1.73017 28.1874 1.90237C20.8813 2.84818 15.3678 7.06058 14.435 12.4094C14.2765 13.3186 14.2755 15.1233 14.433 16.023C14.868 18.5069 16.4586 20.8119 18.9775 22.609C19.8952 23.2636 21.9038 24.2936 23.0932 24.7194C28.4887 26.651 35.3256 26.3435 40.4641 23.938C41.6998 23.3595 42.2295 23.0005 42.9992 22.2199L43.6757 21.5339L44.8426 21.4782C45.9569 21.425 46.5731 21.4825 46.4915 21.6145C46.417 21.735 44.8456 22.3497 44.217 22.5728C43.8619 22.6988 43.5319 22.9266 43.0293 23.2425C39.1761 25.6648 33.8254 26.9249 28.8787 26.4933H28.8788Z" fill="url(#paint35_radial_809_1162)"/><defs><linearGradient id="paint0_linear_809_1162" x1="29.3107" y1="41.6081" x2="29.0098" y2="29.1646" gradientUnits="userSpaceOnUse"><stop stop-color="#505050"/><stop offset="0.0584744" stop-color="#525252"/><stop offset="0.56152" stop-color="#555555"/><stop offset="0.786532" stop-color="#5A5A5A"/><stop offset="1" stop-color="#C8C8C8"/></linearGradient><linearGradient id="paint1_linear_809_1162" x1="43.1555" y1="30.9619" x2="43.1555" y2="32.145" gradientUnits="userSpaceOnUse"><stop stop-color="#B8B8B8"/><stop offset="1" stop-color="#828282"/></linearGradient><linearGradient id="paint2_linear_809_1162" x1="33.1226" y1="29.7822" x2="32.9159" y2="38.751" gradientUnits="userSpaceOnUse"><stop stop-color="#464646"/><stop offset="1"/></linearGradient><linearGradient id="paint3_linear_809_1162" x1="33.122" y1="29.7165" x2="32.8984" y2="39.045" gradientUnits="userSpaceOnUse"><stop stop-color="#464646"/><stop offset="1"/></linearGradient><linearGradient id="paint4_linear_809_1162" x1="33.1221" y1="29.0235" x2="32.8479" y2="39.3538" gradientUnits="userSpaceOnUse"><stop stop-color="#464646"/><stop offset="1"/></linearGradient><linearGradient id="paint5_linear_809_1162" x1="33.122" y1="29.0235" x2="32.8478" y2="39.3538" gradientUnits="userSpaceOnUse"><stop stop-color="#464646"/><stop offset="1"/></linearGradient><linearGradient id="paint6_linear_809_1162" x1="33.1223" y1="29.7155" x2="32.8892" y2="39.241" gradientUnits="userSpaceOnUse"><stop stop-color="#464646"/><stop offset="1"/></linearGradient><linearGradient id="paint7_linear_809_1162" x1="33.1221" y1="29.0235" x2="32.8478" y2="39.3538" gradientUnits="userSpaceOnUse"><stop stop-color="#464646"/><stop offset="1"/></linearGradient><linearGradient id="paint8_linear_809_1162" x1="33.1221" y1="29.0234" x2="32.8479" y2="39.3538" gradientUnits="userSpaceOnUse"><stop stop-color="#464646"/><stop offset="1"/></linearGradient><linearGradient id="paint9_linear_809_1162" x1="26.5191" y1="29.4831" x2="26.2973" y2="40.2045" gradientUnits="userSpaceOnUse"><stop stop-color="#787878"/><stop offset="1" stop-color="#1E1E1E"/></linearGradient><linearGradient id="paint10_linear_809_1162" x1="29.2549" y1="29.631" x2="29.6246" y2="38.356" gradientUnits="userSpaceOnUse"><stop stop-color="#B4B4B4"/><stop offset="0.322353" stop-color="#828282"/><stop offset="1" stop-color="#3C3C3C"/></linearGradient><linearGradient id="paint11_linear_809_1162" x1="30.5895" y1="40.7352" x2="30.9555" y2="34.6589" gradientUnits="userSpaceOnUse"><stop stop-color="#828282"/><stop offset="0.5" stop-color="#828282"/><stop offset="1" stop-color="#3C3C3C"/></linearGradient><linearGradient id="paint12_linear_809_1162" x1="29.7725" y1="33.9195" x2="29.9204" y2="38.5038" gradientUnits="userSpaceOnUse"><stop stop-color="#828282"/><stop offset="0.5" stop-color="#828282"/><stop offset="1" stop-color="#3C3C3C"/></linearGradient><linearGradient id="paint13_linear_809_1162" x1="12.612" y1="8.68698" x2="45.4729" y2="30.0962" gradientUnits="userSpaceOnUse"><stop stop-color="#000032"/><stop offset="0.25" stop-color="#646464"/><stop offset="0.423823"/><stop offset="1" stop-color="#787878"/></linearGradient><linearGradient id="paint14_linear_809_1162" x1="14.1273" y1="24.34" x2="47.8124" y2="24.0877" gradientUnits="userSpaceOnUse"><stop stop-color="#999999"/><stop offset="0.220528" stop-color="#3C3C3C" stop-opacity="0.87451"/><stop offset="0.515847" stop-color="#969696"/><stop offset="0.752781" stop-color="#828282"/><stop offset="1" stop-color="#5A5A5A"/></linearGradient><linearGradient id="paint15_linear_809_1162" x1="36.2686" y1="27.3048" x2="36.2053" y2="19.0413" gradientUnits="userSpaceOnUse"><stop/><stop offset="1" stop-opacity="0"/></linearGradient><linearGradient id="paint16_linear_809_1162" x1="24.788" y1="2.00948" x2="48.9308" y2="29.4722" gradientUnits="userSpaceOnUse"><stop stop-color="#5A5A5A"/><stop offset="0.268765" stop-color="#505050"/><stop offset="0.632019" stop-color="#666666"/><stop offset="0.667453" stop-color="#666666"/><stop offset="1" stop-color="#666666"/></linearGradient><linearGradient id="paint17_linear_809_1162" x1="24.788" y1="2.00948" x2="48.9308" y2="29.4722" gradientUnits="userSpaceOnUse"><stop stop-color="#5A5A5A"/><stop offset="0.268765" stop-color="#505050"/><stop offset="0.632019" stop-color="#666666"/><stop offset="0.667453" stop-color="#666666"/><stop offset="1" stop-color="#666666"/></linearGradient><linearGradient id="paint18_linear_809_1162" x1="15.478" y1="4.72375" x2="40.1777" y2="15.3777" gradientUnits="userSpaceOnUse"><stop stop-color="#323232" stop-opacity="0"/><stop offset="0.39399" stop-color="#323232" stop-opacity="0.94902"/><stop offset="0.466851" stop-color="#323232" stop-opacity="0.901961"/><stop offset="0.704071" stop-color="#E1E1E1" stop-opacity="0.498039"/><stop offset="1" stop-color="#C8C8C8" stop-opacity="0"/></linearGradient><linearGradient id="paint19_linear_809_1162" x1="36.0794" y1="23.0784" x2="36.206" y2="19.0413" gradientUnits="userSpaceOnUse"><stop/><stop offset="1" stop-opacity="0"/></linearGradient><linearGradient id="paint20_linear_809_1162" x1="14.4311" y1="7.03771" x2="17.8108" y2="10.6018" gradientUnits="userSpaceOnUse"><stop stop-color="#28170B"/><stop offset="1" stop-color="#28170B" stop-opacity="0"/></linearGradient><linearGradient id="paint21_linear_809_1162" x1="30.681" y1="4.77203" x2="29.4213" y2="1.92181" gradientUnits="userSpaceOnUse"><stop stop-color="#B3B3B3" stop-opacity="0"/><stop offset="0.160949" stop-color="#B3B3B3" stop-opacity="0.300885"/><stop offset="0.341789" stop-color="#B3B3B3" stop-opacity="0.87451"/><stop offset="0.405936" stop-color="#B3B3B3" stop-opacity="0.74902"/><stop offset="0.658295" stop-color="#B3B3B3" stop-opacity="0"/><stop offset="1" stop-color="#B3B3B3" stop-opacity="0"/></linearGradient><linearGradient id="paint22_linear_809_1162" x1="22.8611" y1="20.44" x2="21.2398" y2="15.487" gradientUnits="userSpaceOnUse"><stop stop-color="#B3B3B3" stop-opacity="0"/><stop offset="0.12143" stop-color="#B3B3B3" stop-opacity="0.368627"/><stop offset="0.285824" stop-color="#B3B3B3" stop-opacity="0.87451"/><stop offset="0.383948" stop-color="#B3B3B3" stop-opacity="0.74902"/><stop offset="0.516942" stop-color="#B3B3B3" stop-opacity="0.498039"/><stop offset="1" stop-color="#B3B3B3" stop-opacity="0"/></linearGradient><linearGradient id="paint23_linear_809_1162" x1="40.7129" y1="2.2639" x2="45.6807" y2="17.0988" gradientUnits="userSpaceOnUse"><stop/><stop offset="0.552013" stop-color="#7D7D7D"/><stop offset="0.693304" stop-color="#969696"/><stop offset="0.857541" stop-color="#8A8A8A"/><stop offset="1" stop-color="#505050"/></linearGradient><linearGradient id="paint24_linear_809_1162" x1="27.7073" y1="17.658" x2="44.0427" y2="21.522" gradientUnits="userSpaceOnUse"><stop stop-color="#323232"/><stop offset="0.105545" stop-color="#B4B4B6"/><stop offset="0.253205" stop-color="#B4B4B4"/><stop offset="1" stop-color="#AAAAAA"/></linearGradient><linearGradient id="paint25_linear_809_1162" x1="37.9474" y1="16.9835" x2="37.9474" y2="19.7044" gradientUnits="userSpaceOnUse"><stop stop-color="#505050"/><stop offset="1" stop-color="#FAFAFA" stop-opacity="0"/></linearGradient><linearGradient id="paint26_linear_809_1162" x1="16.6769" y1="-0.634868" x2="23.8681" y2="10.8458" gradientUnits="userSpaceOnUse"><stop stop-color="#8282A9"/><stop offset="1" stop-color="#A9A9A9" stop-opacity="0"/></linearGradient><linearGradient id="paint27_linear_809_1162" x1="45.2362" y1="21.4822" x2="36.4187" y2="24.5063" gradientUnits="userSpaceOnUse"><stop stop-color="#FAFAFA"/><stop offset="0.25" stop-color="#FAFAFA" stop-opacity="0.901961"/><stop offset="0.5" stop-color="#E1E1E1" stop-opacity="0.498039"/><stop offset="1" stop-color="#C8C8C8" stop-opacity="0"/></linearGradient><linearGradient id="paint28_linear_809_1162" x1="32.1685" y1="-0.513741" x2="31.9745" y2="30.6832" gradientUnits="userSpaceOnUse"><stop stop-color="#AAAAAA"/><stop offset="0.101807" stop-color="#BEBEBE"/><stop offset="0.211525" stop-color="#BEBEBE"/><stop offset="0.549206" stop-color="#B4B4B4"/><stop offset="0.673505" stop-color="#878787"/><stop offset="0.778718" stop-color="#969696"/><stop offset="1" stop-color="#AAAAAA"/></linearGradient><linearGradient id="paint29_linear_809_1162" x1="12.4872" y1="21.1229" x2="19.7415" y2="14.8148" gradientUnits="userSpaceOnUse"><stop stop-color="#E6E6E6"/><stop offset="1" stop-color="#FAFAFA" stop-opacity="0"/></linearGradient><linearGradient id="paint30_linear_809_1162" x1="45.2362" y1="21.4822" x2="36.4187" y2="24.5063" gradientUnits="userSpaceOnUse"><stop stop-color="#FAFAFA"/><stop offset="0.25" stop-color="#FAFAFA" stop-opacity="0.901961"/><stop offset="0.5" stop-color="#E1E1E1" stop-opacity="0.498039"/><stop offset="1" stop-color="#C8C8C8" stop-opacity="0"/></linearGradient><linearGradient id="paint31_linear_809_1162" x1="37.9302" y1="2.0866" x2="39.7272" y2="3.34821" gradientUnits="userSpaceOnUse"><stop stop-color="#FAFAFA"/><stop offset="0.25" stop-color="#EDEDED" stop-opacity="0.74902"/><stop offset="0.5" stop-color="#E1E1E1" stop-opacity="0.498039"/><stop offset="1" stop-color="#C8C8C8" stop-opacity="0"/></linearGradient><linearGradient id="paint32_linear_809_1162" x1="28.9513" y1="20.3029" x2="45.6677" y2="3.01878" gradientUnits="userSpaceOnUse"><stop stop-color="#969696"/><stop offset="0.132623" stop-color="#C0BEBE"/><stop offset="0.5" stop-color="#B4B4B4"/><stop offset="1" stop-color="#BEBEBE"/></linearGradient><linearGradient id="paint33_linear_809_1162" x1="37.6566" y1="3.01877" x2="41.2522" y2="3.71265" gradientUnits="userSpaceOnUse"><stop stop-opacity="0"/><stop offset="0.109171" stop-color="#323232" stop-opacity="0.94902"/><stop offset="0.218341" stop-color="#323232" stop-opacity="0.901961"/><stop offset="0.506057" stop-color="#E1E1E1" stop-opacity="0.498039"/><stop offset="1" stop-color="#C8C8C8" stop-opacity="0"/></linearGradient><linearGradient id="paint34_linear_809_1162" x1="44.7633" y1="21.4821" x2="44.7455" y2="22.5823" gradientUnits="userSpaceOnUse"><stop stop-color="#FAFAFA"/><stop offset="0.5" stop-color="#FAFAFA" stop-opacity="0.901961"/><stop offset="0.697845" stop-color="#E1E1E1" stop-opacity="0.498039"/><stop offset="1" stop-color="#C8C8C8" stop-opacity="0"/></linearGradient><radialGradient id="paint35_radial_809_1162" cx="0" cy="0" r="1" gradientUnits="userSpaceOnUse" gradientTransform="translate(30.9281 8.6188) rotate(76.732) scale(8.64199 10.9872)"><stop stop-color="#DCDCDC" stop-opacity="0.901961"/><stop offset="0.752174" stop-color="#E1E1E1" stop-opacity="0.45098"/><stop offset="1" stop-color="#C8C8C8" stop-opacity="0"/></radialGradient></defs></svg> 