<!-- created by svgstack.com | Attribution is required. --><svg width="112" height="50" viewBox="0 0 112 50" fill="none" xmlns="http://www.w3.org/2000/svg"><g clip-path="url(#clip0_809_319)"><path fill-rule="evenodd" clip-rule="evenodd" d="M55.9095 20.5764C55.7052 20.5764 55.555 20.7295 55.5535 20.7329C55.5443 20.7397 51.9261 24.1927 51.9261 24.1927C50.5919 25.4806 48.8204 24.9414 48.6311 24.8787C48.6311 24.8787 33.1646 20.6595 33.1627 20.6581C30.2111 19.7678 29.6246 18.8075 29.173 17.6408C29.173 17.6408 28.9106 16.9153 28.2681 16.7254C28.2681 16.7254 9.36175 11.1754 9.36022 11.1754C8.58871 10.9372 8.16415 10.7194 7.86082 10.132C7.86082 10.132 6.82318 8.30453 6.81977 8.29965C6.58937 7.86156 6.17251 7.81521 6.14836 7.8118C4.71848 7.61851 4.29918 6.82148 4.12187 6.48184L3.27849 5.00075C3.0147 4.54181 2.63747 4.50316 2.62588 4.5017C1.81289 4.44999 1.42592 4.24521 1.08977 3.69299C1.08977 3.69299 0.265194 2.32154 0.261785 2.31483C-0.143494 1.5661 -0.00336927 1.02985 0.183592 0.712014C0.577284 0.0598865 1.29806 0.0101275 1.58737 0H46.7963C48.0764 0 49.1107 0.387946 49.8754 1.15497C50.4247 1.70232 50.8029 2.41629 50.9985 3.2766C51.0019 3.29686 51.0551 3.47661 51.442 3.47661H60.3778C60.7648 3.47661 60.8179 3.29695 60.8212 3.2766C61.0169 2.41628 61.3951 1.70223 61.9444 1.15497C62.7091 0.387846 63.7433 0 65.0235 0H110.232C110.522 0.0101271 111.242 0.0598862 111.636 0.712014C111.823 1.02985 111.963 1.5661 111.558 2.31483C111.555 2.32164 110.73 3.69299 110.73 3.69299C110.394 4.24511 110.007 4.44999 109.194 4.5017C109.182 4.50316 108.805 4.54181 108.541 5.00075L107.698 6.48184C107.521 6.82139 107.101 7.6185 105.671 7.8118C105.647 7.81521 105.23 7.86156 105 8.29965C104.997 8.30452 103.959 10.132 103.959 10.132C103.656 10.7195 103.231 10.9373 102.46 11.1754C102.458 11.1754 83.5516 16.7254 83.5516 16.7254C82.9091 16.9153 82.6468 17.6408 82.6468 17.6408C82.1951 18.8074 81.6087 19.7678 78.6571 20.6581C78.6551 20.6595 63.1886 24.8787 63.1886 24.8787C62.9993 24.9415 61.2278 25.4806 59.8936 24.1927C59.8936 24.1927 56.2754 20.7397 56.2662 20.7329C56.2648 20.7295 56.1145 20.5764 55.9102 20.5764H55.9095H55.9095Z" fill="black"/><path fill-rule="evenodd" clip-rule="evenodd" d="M61.6426 3.45976C61.8005 2.75924 62.103 2.18491 62.5373 1.75062C63.1387 1.14825 63.9758 0.842004 65.0217 0.842004C65.0217 0.842004 75.1343 0.842004 85.7904 0.842004C85.0764 1.37631 84.7016 2.05209 84.6764 2.09708C84.4359 2.54774 84.1354 3.07523 83.7779 3.6661H61.5693C61.6152 3.58499 61.6427 3.45986 61.6427 3.45986L61.6426 3.45976L61.6426 3.45976ZM110.818 1.91196C110.806 1.93027 110.007 3.26023 110.007 3.26023C109.855 3.51 109.761 3.62306 109.138 3.66269C109.135 3.66269 84.5431 3.666 84.5431 3.666C84.818 3.20035 85.0542 2.77764 85.2523 2.40956C85.259 2.39651 86.1301 0.843953 87.6769 0.843953L110.208 0.842005C110.444 0.852132 110.752 0.878716 110.914 1.14679C110.934 1.18302 110.98 1.2579 110.98 1.39267C110.98 1.51244 110.942 1.68246 110.818 1.91197H110.818L110.818 1.91196ZM107.81 4.58483L106.951 6.09251C106.834 6.3157 106.653 6.66011 106.079 6.85818C105.6 6.97795 104.646 6.90161 104.315 6.86159L83.3948 5.47174C83.6653 5.07084 83.9161 4.68485 84.1445 4.31862H107.99C107.928 4.39827 107.867 4.48474 107.81 4.58475V4.58484L107.81 4.58483ZM104.253 7.90643C104.259 7.9001 103.431 9.35802 103.258 9.66095C103.216 9.71752 102.98 9.97352 102.214 9.87206L82.1674 7.18282C82.4423 6.82341 82.7026 6.46691 82.9466 6.12249L104.242 7.53552C104.273 7.53893 104.363 7.54906 104.491 7.56065C104.403 7.66065 104.323 7.77361 104.253 7.90653L104.253 7.90643L104.253 7.90643ZM97.3585 11.7975C96.6039 11.9975 95.1277 11.7709 94.6151 11.6647C94.6151 11.6647 85.1856 9.72707 80.8403 8.83336C81.1417 8.4792 81.431 8.12806 81.7055 7.78024L101.837 10.4825L97.3583 11.7975H97.3584L97.3585 11.7975ZM90.5302 13.8013C89.5617 14.0607 88.2975 13.6414 88.2854 13.638L88.2704 13.6331C88.2704 13.6331 88.2684 13.6317 88.267 13.6317L79.0471 10.7874C79.504 10.3231 79.9383 9.86184 80.3475 9.3995L94.4836 12.3052C94.5145 12.31 94.8038 12.37 95.2106 12.4264L90.5301 13.8013H90.5302L90.5302 13.8013ZM83.3282 15.9167C82.6736 16.0945 81.7089 15.7167 81.3886 15.5553C81.3886 15.5553 78.9216 14.4003 76.3884 13.2154C77.1493 12.5912 77.8598 11.9541 78.5221 11.3101L88.0831 14.2607C88.1014 14.2674 88.2754 14.324 88.5415 14.3839L83.3282 15.9167L83.3282 15.9167ZM81.8523 17.3596C81.574 18.0736 81.2828 18.8088 79.3215 19.546C78.5119 19.7976 77.5491 19.0817 77.5409 19.0735C77.5375 19.0702 75.354 17.5074 72.8676 15.7283C73.8777 15.1046 74.8632 14.4186 75.8192 13.6699L81.1025 16.1428C81.1314 16.1578 81.6764 16.4326 82.3363 16.5558C82.0209 16.9152 81.8778 17.2862 81.8522 17.3596H81.8523L81.8523 17.3596ZM74.4627 20.931L73.7266 21.1305C73.1068 21.2788 72.3503 20.6647 72.1083 20.4097C72.1083 20.4097 70.9199 19.1735 69.393 17.5789C70.3697 17.1364 71.3243 16.6422 72.2561 16.0963L77.1525 19.5995C77.1722 19.616 77.452 19.8256 77.863 20.0038C76.7751 20.3 74.4628 20.9309 74.4628 20.9309V20.931L74.4627 20.931ZM67.9892 22.6966C67.4723 22.7782 66.8723 21.9295 66.6984 21.613L65.2217 19.1136C66.4279 18.7658 67.607 18.3494 68.7539 17.8586L71.634 20.8642C71.6596 20.8893 71.9784 21.2202 72.4402 21.4815L67.9893 22.6965L67.9892 22.6966L67.9892 22.6966ZM63.0865 24.0328C62.7387 24.1129 62.445 24.0777 62.1928 23.9251C61.6508 23.5937 61.4706 22.8313 61.4604 22.7865L60.7073 20.0687C62.0246 19.8856 63.311 19.6277 64.5685 19.2949L66.1307 21.9397C66.1843 22.0343 66.5012 22.587 66.9766 22.973L63.0864 24.0329L63.0865 24.0328L63.0865 24.0328ZM59.9093 23.0464C59.9093 23.0464 57.8147 21.0474 57.1041 20.3716C58.1011 20.3369 59.0847 20.2635 60.0508 20.1504L60.8213 22.9295C60.8431 23.0261 60.9967 23.6353 61.4247 24.1198C60.8344 23.9517 60.6556 23.7769 59.9093 23.0465V23.0464V23.0464ZM56.2371 19.7359V11.2686H57.5886L59.8736 19.5132C58.6843 19.6494 57.4723 19.7243 56.2371 19.7359V19.7359ZM51.9445 19.5132L54.2309 11.2686H55.5825V19.7345C54.3448 19.7244 53.1333 19.648 51.9445 19.5133V19.5132L51.9445 19.5132ZM51.3445 23.5835C51.0484 23.8714 50.7156 24.0328 50.3933 24.1196C50.8242 23.6336 50.974 23.0226 50.9967 22.9279L51.7672 20.1537C52.7334 20.2653 53.7169 20.3382 54.7134 20.3715C53.9154 21.1305 51.3445 23.5835 51.3445 23.5835L51.3445 23.5835ZM50.3576 22.7816C50.3576 22.7898 50.1803 23.5854 49.6243 23.9251C49.3721 24.0778 49.0793 24.1129 48.7315 24.0328L44.8413 22.9729C45.3166 22.585 45.637 22.0324 45.692 21.9309C45.6901 21.9329 46.351 20.8161 47.247 19.2968C48.5049 19.6296 49.7933 19.8876 51.1106 20.0687L50.3575 22.7816H50.3576V22.7816ZM43.8288 22.6966L39.3779 21.4816C39.8396 21.2188 40.1599 20.8874 40.1841 20.8628C40.1841 20.8628 41.4566 19.5343 43.0642 17.8585C44.2125 18.3479 45.3883 18.7672 46.595 19.115L45.1245 21.6066C44.9453 21.9293 44.3453 22.7781 43.8289 22.6965L43.8288 22.6966L43.8288 22.6966ZM38.0905 21.1305L33.9549 20.0039C34.3674 19.8243 34.6491 19.6127 34.6723 19.5943C34.6689 19.5977 36.9828 17.9417 39.5619 16.0964C40.4938 16.6404 41.4483 17.1365 42.4265 17.579L39.7097 20.4098C39.4677 20.6648 38.7112 21.2788 38.0904 21.1306V21.1305L38.0905 21.1305ZM32.4912 19.546C30.5382 18.8088 30.2454 18.075 29.9676 17.363C29.945 17.2997 29.802 16.9201 29.4817 16.5558C30.1431 16.4306 30.6899 16.1563 30.7256 16.1379C30.7203 16.1394 33.3675 14.9032 36.0003 13.6699C36.9539 14.4187 37.9393 15.106 38.9499 15.7283L34.2834 19.0668C34.2685 19.0818 33.3008 19.801 32.4912 19.546L32.4912 19.546ZM28.4913 15.9167C28.2942 15.8582 26.1021 15.2142 23.2765 14.3839C23.5461 14.324 23.7234 14.2641 23.7432 14.2573C23.735 14.2607 31.4911 11.8675 33.2973 11.3101C33.9595 11.9526 34.6702 12.5912 35.431 13.2139L30.4389 15.5506C30.1085 15.7167 29.1458 16.0945 28.4912 15.9167H28.4913L28.4913 15.9167ZM21.2927 13.8027C19.7555 13.3521 18.1349 12.8762 16.6064 12.4264C17.0141 12.37 17.3053 12.31 17.3358 12.3033C17.3344 12.3052 27.3156 10.2531 31.4719 9.3995C31.883 9.86029 32.3139 10.3231 32.7709 10.7874L23.5408 13.6351C23.5199 13.6414 22.261 14.0592 21.2925 13.8028H21.2926L21.2927 13.8027ZM14.4659 11.7994C12.3891 11.1869 10.7013 10.6928 9.98101 10.4826L30.1155 7.78033C30.3904 8.12621 30.6782 8.47735 30.9792 8.83199L17.2029 11.6648C16.6918 11.771 15.2223 11.9976 14.4658 11.7995L14.4659 11.7994L14.4659 11.7994ZM9.60572 9.87197C8.84434 9.97343 8.60528 9.7222 8.56136 9.66232L7.55947 7.89816C7.4914 7.7668 7.41068 7.65715 7.32713 7.56046C7.45557 7.54887 28.875 6.12231 28.875 6.12231C29.119 6.46673 29.3774 6.82128 29.6523 7.18264L9.60581 9.87188L9.60571 9.87198L9.60572 9.87197ZM5.74067 6.85808C5.16625 6.66002 4.98416 6.3156 4.86682 6.09242C4.51558 5.4954 4.05373 4.60315 3.82674 4.31862H27.6765C27.9054 4.68475 28.1542 5.07075 28.4262 5.47174L7.50283 6.86158C7.17438 6.9017 6.21981 6.97795 5.74061 6.85818V6.85808L5.74067 6.85808ZM2.68667 3.6659C2.11225 3.62296 1.99004 3.5548 1.80941 3.25819C1.81136 3.26014 1.05971 2.01042 0.999824 1.91187C0.875183 1.68245 0.83409 1.51233 0.839445 1.39256C0.853468 1.08631 1.06166 0.850081 1.60998 0.841804L24.1428 0.843752C25.6679 0.843752 26.5674 2.40936 26.5674 2.40936C26.7654 2.77744 27.0017 3.20015 27.278 3.6658H2.68684L2.68664 3.6659L2.68667 3.6659ZM46.7958 0.841896C47.8436 0.841896 48.6788 1.14814 49.2807 1.75051C49.715 2.18481 50.0165 2.75913 50.1769 3.45965C50.1769 3.45965 50.2092 3.57942 50.2503 3.66589H28.042C27.7025 3.10842 27.1431 2.09687 27.1431 2.09687C27.1184 2.05198 26.743 1.3761 26.0291 0.841797C36.6852 0.841797 46.7959 0.841797 46.7959 0.841797L46.7958 0.841894L46.7958 0.841896ZM78.9555 5.17892V4.31861H83.3708C83.1462 4.6712 82.9008 5.04075 82.638 5.42188L78.9555 5.17892L78.9555 5.17892ZM78.9555 6.7532V5.85812L82.1795 6.07108C81.9413 6.40196 81.6868 6.73966 81.4212 7.08457L78.9555 6.7532H78.9555ZM78.9555 8.44745V7.41224L80.9496 7.68042C80.6815 8.01179 80.4004 8.34608 80.1072 8.68368C79.5931 8.57744 79.1971 8.4972 78.9555 8.44744L78.9555 8.44745ZM78.9555 9.11496L79.6063 9.24778C79.3966 9.47914 79.1787 9.71392 78.9555 9.94538V9.11496ZM72.2287 11.2685H77.6178C77.0685 11.8144 75.7721 12.8709 75.7295 12.9061C74.4189 12.2917 73.1408 11.696 72.2288 11.2685H72.2287V11.2685ZM66.6352 11.2685H70.6853L75.1527 13.3588C74.2242 14.0695 73.2696 14.7216 72.2886 15.3158C70.1326 13.7714 67.8612 12.1454 66.6352 11.2686V11.2685L66.6352 11.2685ZM63.3402 11.2685H65.513L71.6712 15.6785C70.7737 16.1929 69.8515 16.6606 68.9115 17.0765C66.8835 14.9631 64.4411 12.4149 63.3402 11.2685V11.2685ZM60.5876 11.2685H62.4329L68.2679 17.3528C67.166 17.8122 66.0347 18.203 64.8772 18.531L60.5875 11.2685H60.5876V11.2685ZM59.8277 11.2685L64.2232 18.7074C63.0198 19.0204 61.7875 19.26 60.5301 19.4315L58.2669 11.2685H59.8277V11.2685ZM51.9904 11.2685H53.5512L51.288 19.4315C50.0287 19.26 48.7982 19.0203 47.5949 18.7092C49.2418 15.9234 51.4393 12.2018 51.9904 11.2685V11.2685ZM49.3848 11.2685H51.2306L46.9409 18.531C45.7835 18.205 44.6535 17.8122 43.5493 17.3509C45.8893 14.9129 48.705 11.9772 49.3847 11.2686L49.3848 11.2685V11.2685ZM46.3052 11.2685H48.4781L42.9087 17.0765C41.9667 16.6606 41.0465 16.193 40.1461 15.6785C42.8189 13.7646 45.6048 11.7694 46.3052 11.2685V11.2685ZM36.0887 12.9061C36.0394 12.866 34.7486 11.781 34.2004 11.2685H39.589L36.0887 12.9061V12.9061ZM41.1329 11.2685H45.182L39.5291 15.3142C38.5474 14.7215 37.593 14.0693 36.6659 13.3587C38.7881 12.3651 40.7532 11.4462 41.1329 11.2684V11.2685V11.2685ZM32.8575 9.11496V9.93856C32.6362 9.70915 32.4212 9.47768 32.2135 9.24778C32.472 9.19325 32.6884 9.14972 32.8575 9.11496ZM32.8575 7.41214V8.44734L31.7107 8.68358C31.418 8.34442 31.1383 8.01168 30.8706 7.68032L32.8575 7.41214L32.8575 7.41214ZM32.8575 5.85812V6.7532L30.3986 7.08457C30.1325 6.73966 29.8803 6.40196 29.6422 6.07108L32.8576 5.85812H32.8575H32.8575ZM32.8575 5.17892L29.1837 5.42187C28.9189 5.04074 28.675 4.6712 28.4503 4.3186H32.8574V5.17892H32.8575L32.8575 5.17892Z" fill="white"/><path fill-rule="evenodd" clip-rule="evenodd" d="M33.5218 10.6145C33.5184 10.6111 33.5155 10.6076 33.5122 10.6043V4.32202H78.3022V10.6077C78.3007 10.6111 78.2988 10.6111 78.2973 10.6126L33.522 10.6146L33.5219 10.6145L33.5218 10.6145Z" fill="url(#paint0_linear_809_319)"/><path fill-rule="evenodd" clip-rule="evenodd" d="M36.4883 5.32523H36.3014L34.3875 9.60714H34.9058L34.914 9.58251C35.069 9.06125 35.2686 8.5623 35.4623 8.08301C35.4623 8.08301 35.4898 8.01446 35.5024 7.98155C35.5497 7.98155 36.9352 7.98155 36.9825 7.98155C37.1825 8.43707 37.3873 8.95978 37.6067 9.58387L37.6154 9.60705H38.3308L36.4883 5.32513V5.32523L36.4883 5.32523ZM35.6473 7.65515C35.6864 7.5605 36.1888 6.38372 36.2487 6.24407C36.3076 6.38371 36.8197 7.5604 36.8602 7.65515C36.7597 7.65515 35.7454 7.65515 35.6472 7.65515H35.6473V7.65515Z" fill="white"/><path fill-rule="evenodd" clip-rule="evenodd" d="M38.5371 9.30277L38.5531 9.31923C38.7792 9.56559 39.2888 9.68059 39.5632 9.68059C40.4613 9.68059 41.0901 9.1014 41.0901 8.26961C41.0901 7.58029 40.5684 7.37736 40.0641 7.17784C39.6162 6.99954 39.1902 6.83488 39.1902 6.3257C39.1902 5.93921 39.495 5.66003 39.9124 5.66003C40.2462 5.66003 40.4983 5.83638 40.6263 6.15909L40.635 6.18226H40.749L40.9277 5.64163L40.9079 5.62332C40.664 5.40355 40.2886 5.32526 40.0215 5.32526C39.1844 5.32526 38.6443 5.79286 38.6443 6.5185C38.6443 7.25758 39.1955 7.47211 39.6805 7.6653C40.1192 7.83483 40.5307 7.99813 40.5307 8.50585C40.5307 8.97685 40.1795 9.34786 39.7322 9.34786C39.3226 9.34786 39.0506 9.17151 38.7859 8.73867L38.7758 8.72222H38.6618L38.5371 9.30287V9.30277L38.5371 9.30277Z" fill="white"/><path fill-rule="evenodd" clip-rule="evenodd" d="M44.4695 5.4137H41.3208V5.85471L41.3614 5.8513C41.7228 5.81313 42.0721 5.77983 42.6415 5.77788C42.6415 5.85276 42.6415 9.62073 42.6415 9.62073H43.2463C43.2463 9.62073 43.2463 5.85471 43.2463 5.77983C43.6738 5.77983 44.0825 5.80447 44.4646 5.85131L44.5071 5.85618V5.4137H44.4695V5.4137Z" fill="white"/><path fill-rule="evenodd" clip-rule="evenodd" d="M46.6389 5.32527C45.3032 5.32527 44.369 6.2257 44.369 7.51214C44.369 8.81016 45.2776 9.6806 46.6274 9.6806C48.0225 9.6806 48.9621 8.77199 48.9621 7.42079C48.9621 5.97252 47.7945 5.32526 46.6389 5.32526V5.32527ZM47.7572 8.93334C47.4601 9.24776 47.0872 9.40775 46.6437 9.40775C45.666 9.40775 45.0336 8.69233 45.0336 7.58565C45.0336 6.3591 45.6727 5.59831 46.6987 5.59831C47.1828 5.59831 47.6398 5.81136 47.9219 6.16737C48.232 6.5635 48.2953 6.97656 48.2953 7.47075C48.2972 7.49733 48.2986 7.52722 48.2986 7.55575C48.2986 7.95811 48.1349 8.52912 47.7571 8.93343L47.7572 8.93333L47.7572 8.93334Z" fill="white"/><path fill-rule="evenodd" clip-rule="evenodd" d="M53.1555 5.4137H52.7802C52.7802 5.4137 52.7802 8.44404 52.7802 8.51746C52.7768 8.51746 52.7754 8.51746 52.7734 8.51746C52.7517 8.49234 49.9083 5.4137 49.9083 5.4137H49.619V9.60729H50.0316C50.0316 9.60729 50.0316 6.43682 50.0316 6.36204C50.035 6.36204 50.037 6.36204 50.0403 6.36204C50.0625 6.38716 52.6319 9.23142 52.6319 9.23142L52.9541 9.60729H52.9734H53.1928V5.4137H53.1556H53.1555L53.1555 5.4137Z" fill="white"/><path fill-rule="evenodd" clip-rule="evenodd" d="M59.9318 5.41358H59.7835L58.7676 7.25554C58.7676 7.25554 58.1251 8.42746 58.0667 8.53234C57.44 7.487 56.8758 6.38705 56.3953 5.43344L56.3852 5.41357H56.1721L56.1688 5.44834C56.1089 6.06765 55.748 8.59212 55.5906 9.56549L55.5824 9.60707H56.0906V9.57085C56.0906 8.98007 56.1954 8.0994 56.307 7.16566C56.307 7.16566 56.3543 6.75308 56.3737 6.58842C56.4451 6.72465 57.2341 8.22268 57.5355 8.83995L57.8765 9.54232H57.9905L58.0001 9.51914C58.3513 8.71336 58.846 7.79316 59.5238 6.5816C59.6199 7.30374 59.747 8.74676 59.817 9.57377L59.8209 9.60707H60.4634L60.4576 9.5655C60.3127 8.54859 60.1547 7.20237 59.9692 5.44834L59.9658 5.41358H59.932H59.9318V5.41358Z" fill="white"/><path fill-rule="evenodd" clip-rule="evenodd" d="M62.8082 5.32523H62.6202L60.7053 9.60714H61.2266L61.2333 9.5825C61.3888 9.05648 61.5893 8.55548 61.7841 8.07288C61.7841 8.07288 61.8082 8.013 61.8198 7.98155C61.8671 7.98155 63.2526 7.98155 63.3009 7.98155C63.5047 8.4473 63.7144 8.98296 63.9241 9.58387L63.9328 9.60705H64.6492L62.8082 5.32513V5.32523V5.32523ZM61.9661 7.65514C62.0053 7.5605 62.5081 6.38371 62.568 6.24407C62.6279 6.3837 63.1386 7.5604 63.1796 7.65514C63.0787 7.65514 62.0652 7.65514 61.9661 7.65514V7.65514Z" fill="white"/><path fill-rule="evenodd" clip-rule="evenodd" d="M66.4904 7.53542C67.2473 7.38235 67.7 6.95136 67.7 6.36876C67.7 5.72822 67.2507 5.4137 66.3238 5.4137H65.0098V9.60729H65.6131C65.6131 9.60729 65.6131 7.67019 65.6131 7.59726C65.6604 7.59726 65.7629 7.59726 65.789 7.59726C65.8087 7.62189 66.259 8.15132 66.259 8.15132C66.2571 8.14938 66.9697 9.07153 66.9697 9.07153L67.3599 9.60729H67.3807H68.1502C68.1502 9.60729 66.5619 7.62375 66.4905 7.53543H66.4904L66.4904 7.53542ZM65.613 7.29578C65.613 7.22908 65.613 5.77798 65.613 5.71128C65.8618 5.69969 66.2473 5.68333 66.457 5.71663C66.8753 5.7847 67.0884 6.02921 67.0884 6.44023C67.0884 6.86148 66.8115 7.16919 66.3454 7.26248C66.083 7.31564 65.7662 7.30591 65.613 7.29578V7.29578Z" fill="white"/><path fill-rule="evenodd" clip-rule="evenodd" d="M71.1909 5.4137H68.0413V5.85471L68.0824 5.8513C68.4442 5.81313 68.793 5.77983 69.3606 5.77788C69.3606 5.85276 69.3606 9.62073 69.3606 9.62073H69.9688C69.9688 9.62073 69.9688 5.85471 69.9688 5.77983C70.3949 5.77983 70.8041 5.80447 71.1862 5.85131L71.2288 5.85618V5.4137H71.1911H71.1909L71.1909 5.4137Z" fill="white"/><path fill-rule="evenodd" clip-rule="evenodd" d="M71.726 9.60747H72.2968V5.4137H71.726V9.60747Z" fill="white"/><path fill-rule="evenodd" clip-rule="evenodd" d="M76.3476 5.4137C76.3476 5.4137 76.3476 8.44404 76.3476 8.51746C76.3456 8.51746 76.3442 8.51746 76.3427 8.51746C76.32 8.49234 73.4776 5.4137 73.4776 5.4137H73.1877V9.60729H73.6008C73.6008 9.60729 73.6008 6.43682 73.6008 6.36204C73.6042 6.36204 73.6057 6.36204 73.6076 6.36204C73.6298 6.38716 76.2027 9.23142 76.2027 9.23142L76.5249 9.60729H76.7602V5.4137H76.3476V5.4137Z" fill="white"/><path fill-rule="evenodd" clip-rule="evenodd" d="M21.5412 49.8555C21.3151 49.842 21.1229 49.8188 20.918 49.8188C20.6909 49.8188 20.4871 49.842 20.2822 49.8555C19.9359 48.8599 19.5035 47.7116 19.0234 46.6218H15.9795C15.5597 47.6749 15.1273 48.7285 14.7926 49.8555C14.6244 49.842 14.493 49.8188 14.3481 49.8188C14.1925 49.8188 14.0602 49.842 13.9288 49.8555L17.6692 41.4878H17.9456L21.5411 49.8555H21.5412V49.8555ZM97.4675 49.8555H97.1062C96.9748 49.6888 96.7342 49.4009 96.484 49.1246L91.303 43.3997H91.1856V49.8554C91.0653 49.8419 90.9575 49.8187 90.8479 49.8187C90.7291 49.8187 90.6198 49.8419 90.5126 49.8554V41.6654H90.9812L96.6752 47.8313H96.7959V41.6654C96.9031 41.6755 97.0104 41.7006 97.1322 41.7006C97.2408 41.7006 97.3486 41.6755 97.4674 41.6654V49.8554L97.4675 49.8555V49.8555ZM87.7607 41.6655C87.9289 41.6756 88.1095 41.7007 88.2882 41.7007C88.4559 41.7007 88.6245 41.6756 88.8152 41.6655V49.8555C88.6244 49.842 88.4558 49.8188 88.2882 49.8188C88.1095 49.8188 87.9288 49.842 87.7607 49.8555V41.6655ZM83.9188 49.8787C83.7265 49.8671 83.558 49.842 83.3889 49.842C83.2102 49.842 83.031 49.8671 82.8629 49.8787V42.2398C81.6533 42.2398 80.9219 42.3113 80.2355 42.3829C80.2505 42.2631 80.2727 42.1433 80.2727 42.0249C80.2727 41.9037 80.2505 41.7968 80.2355 41.6655H86.4232C86.4111 41.7968 86.3889 41.9037 86.3889 42.0249C86.3889 42.1433 86.4111 42.2631 86.4232 42.3829C85.8247 42.3114 84.9842 42.2398 83.919 42.2398V49.8787H83.9189H83.9188ZM74.2058 41.6655H76.7477C78.5954 41.6655 79.4099 42.2747 79.4099 43.4848C79.4099 44.8726 78.1641 45.545 76.9525 45.7595L79.4225 48.8849L79.9982 49.5555L80.2243 49.8555C79.9741 49.842 79.7577 49.8188 79.5297 49.8188C79.3026 49.8188 79.063 49.842 78.8441 49.8555C78.5818 49.484 78.3432 49.1463 78.0891 48.8116L76.6762 46.9812L75.7168 45.8576H75.2627V49.8555C75.0695 49.842 74.9023 49.8188 74.7343 49.8188C74.5536 49.8188 74.3739 49.842 74.2058 49.8555V41.6655L74.2058 41.6655ZM75.2627 45.4001C75.429 45.4116 76.196 45.4599 76.8081 45.3402C77.6859 45.1619 78.3433 44.5615 78.3433 43.6291C78.3433 42.8021 77.9221 42.263 77.0241 42.1181C76.5816 42.0486 75.7638 42.0833 75.2629 42.1085V45.4001L75.2628 45.4001H75.2627ZM73.3754 49.8555C73.146 49.842 72.9571 49.8188 72.7503 49.8188C72.5233 49.8188 72.3195 49.842 72.118 49.8555C71.7687 48.8599 71.3359 47.7116 70.8567 46.6218H67.8133C67.3925 47.6749 66.9597 48.7285 66.6254 49.8555C66.4572 49.842 66.3259 49.8188 66.1824 49.8188C66.0269 49.8188 65.8931 49.842 65.7631 49.8555L69.5021 41.4878H69.7779L73.3754 49.8555V49.8555ZM69.3471 43.0552L68.0399 46.1189H70.6775L69.3472 43.0552H69.3471V43.0552ZM64.2415 41.6655C64.5536 44.6213 64.8903 47.5686 65.2125 49.8555C64.996 49.842 64.8279 49.8188 64.6492 49.8188C64.4559 49.8188 64.2657 49.842 64.0865 49.8555C63.8836 47.4474 63.6397 44.8624 63.4726 43.6775C62.0822 46.1556 61.0509 48.0695 60.3321 49.7236H60.2007L59.5418 48.3691C58.7727 46.7914 57.9341 45.2339 57.1192 43.6775C56.8554 46.0107 56.5318 48.3806 56.5318 49.8555C56.3772 49.842 56.2438 49.8188 56.1139 49.8188C55.9579 49.8188 55.8246 49.842 55.6816 49.8555C55.9917 47.928 56.7111 42.9219 56.8313 41.6655H57.1434C58.1028 43.5712 59.2539 45.8194 60.535 47.9396C61.677 45.8895 62.7793 43.8094 63.9894 41.6655H64.2416H64.2415V41.6655ZM50.7309 49.8555H50.3691C50.2387 49.6888 49.9981 49.4009 49.7474 49.1246L44.5669 43.3997H44.4476V49.8554C44.3279 49.8419 44.2191 49.8187 44.1114 49.8187C43.9926 49.8187 43.8853 49.8419 43.7761 49.8554V41.6654H44.2447L49.9382 47.8313H50.0594V41.6654C50.1666 41.6755 50.2743 41.7006 50.3932 41.7006C50.5004 41.7006 50.6097 41.6755 50.7309 41.6654V49.8554V49.8555H50.7309ZM33.5356 45.7595C33.5356 43.1369 35.4887 41.4877 37.9717 41.4877C40.2266 41.4877 42.5149 42.7055 42.5149 45.5797C42.5149 48.2492 40.6218 49.9998 37.9499 49.9998C35.2998 49.9998 33.5357 48.3226 33.5357 45.7594L33.5356 45.7595L33.5356 45.7595ZM40.586 43.0417C39.9875 42.2881 39.0522 41.8804 38.0904 41.8804C35.9828 41.8804 34.7114 43.4731 34.7114 45.9024C34.7114 48.3356 36.1974 49.6022 37.9842 49.6022C40.5145 49.6022 41.4256 46.9926 41.3406 45.6763C41.3406 44.6845 41.2092 43.844 40.586 43.0416V43.0417L40.586 43.0417ZM31.1705 49.8787C30.9777 49.8671 30.811 49.842 30.6425 49.842C30.4617 49.842 30.2811 49.8671 30.1155 49.8787V42.2398C28.9039 42.2398 28.1711 42.3113 27.4894 42.3829C27.501 42.2631 27.5252 42.1433 27.5252 42.0249C27.5252 41.9037 27.501 41.7968 27.4894 41.6655H33.6752C33.6621 41.7968 33.6394 41.9037 33.6394 42.0249C33.6394 42.1433 33.6621 42.2631 33.6752 42.3829C33.0751 42.3114 32.2375 42.2398 31.1705 42.2398V49.8787V49.8787ZM22.382 48.2377C22.8486 49.0048 23.3872 49.484 24.3249 49.484C25.2944 49.484 25.99 48.6802 25.99 47.7353C25.99 45.5083 22.2371 46.4919 22.2371 43.7843C22.2371 42.2399 23.4602 41.4878 24.8993 41.4878C25.4732 41.4878 26.1708 41.6656 26.6118 42.0602C26.4683 42.3713 26.3852 42.7056 26.2896 43.0418H26.1708C25.9186 42.3945 25.3916 42.0003 24.6843 42.0003C23.8563 42.0003 23.1742 42.5524 23.1742 43.3998C23.1742 45.605 26.9494 44.718 26.9494 47.2692C26.9494 48.9816 25.6161 50 23.9872 50C23.4013 50 22.4419 49.7488 22.0342 49.3043C22.1521 48.9565 22.2128 48.5971 22.2612 48.2377H22.382L22.382 48.2377ZM17.5131 43.0552L16.2078 46.1189H18.844L17.5132 43.0552H17.5131H17.5131Z" fill="black"/></g><defs><linearGradient id="paint0_linear_809_319" x1="46.4567" y1="-1.98199" x2="65.3575" y2="16.9187" gradientUnits="userSpaceOnUse"><stop stop-color="#339966"/><stop offset="1" stop-color="#004F32"/></linearGradient><clipPath id="clip0_809_319"><rect width="111.82" height="50" fill="white"/></clipPath></defs></svg> 