<!-- created by svgstack.com | Attribution is required. --><svg width="75" height="82" viewBox="0 0 75 82" fill="none" xmlns="http://www.w3.org/2000/svg"><g clip-path="url(#clip0_809_263)"><mask id="mask0_809_263" style="mask-type:alpha" maskUnits="userSpaceOnUse" x="0" y="0" width="75" height="82"><path d="M74.1078 81.3147H0.469482V0.3125H74.1078V81.3147Z" fill="black"/></mask><g mask="url(#mask0_809_263)"><path fill-rule="evenodd" clip-rule="evenodd" d="M35.6392 80.3547C25.3433 75.5657 16.401 67.7172 10.4581 58.258C4.52966 48.8262 1.414 37.9025 0.65173 23.8774C0.408951 19.403 0.408951 13.8217 0.650424 6.8177L0.760066 3.62112L3.91488 3.09249C15.0161 1.24032 26.2453 0.300537 37.2891 0.300537C48.3329 0.300537 59.5607 1.24032 70.6607 3.09249L73.8155 3.62112L73.9264 6.8177C74.1692 13.823 74.1692 19.4043 73.9251 23.8774C73.1615 37.9025 70.0472 48.8262 64.1187 58.258C58.1771 67.7172 49.2322 75.5657 38.9376 80.3547L37.2891 81.1209L35.6392 80.3547Z" fill="black"/></g><path fill-rule="evenodd" clip-rule="evenodd" d="M37.289 2.6051C26.1556 2.6051 14.599 3.55241 2.86965 5.56962C2.69454 10.255 2.49493 17.4973 2.83024 23.6429C3.57702 37.3451 6.60412 47.9803 12.3569 57.113C18.0924 66.2191 26.9746 74.0489 37.289 78.6991C47.6033 74.0489 56.4846 66.2191 62.2201 57.113C67.9737 47.9803 70.9998 37.3451 71.7474 23.6429C72.0811 17.4973 71.8825 10.255 71.7074 5.56962C59.978 3.55241 48.4223 2.6051 37.289 2.6051ZM37.289 3.92513C48.2637 3.92513 59.4073 4.85512 70.4245 6.69059C70.6664 13.6416 70.6662 19.1721 70.4259 23.5716C69.6917 37.0403 66.729 47.4759 61.1003 56.4111C55.4724 65.3456 47.0324 72.7259 37.289 77.2476C27.5447 72.7259 19.1055 65.3456 13.4776 56.4111C7.84888 47.4759 4.88542 37.0403 4.15199 23.5716C3.9117 19.1721 3.91157 13.6416 4.15343 6.69059C15.1706 4.85512 26.3134 3.92513 37.289 3.92513Z" fill="white"/><path fill-rule="evenodd" clip-rule="evenodd" d="M14.2628 10.2122C14.1547 10.2096 14.0396 10.2147 13.9179 10.2272C12.2877 10.3972 10.6598 10.5843 9.03357 10.7895V15.5924C9.31548 15.5564 9.59822 15.5219 9.88012 15.4874V14.0014C11.2245 13.8369 12.5711 13.6849 13.9179 13.5447C14.8916 13.4436 15.4358 13.0372 15.4358 12.0313V11.4877C15.4358 10.6274 15.0192 10.2308 14.2628 10.2122ZM14.1693 10.9759C14.3884 10.9532 14.6082 11.1194 14.6082 11.3395V12.3124C14.6082 12.5215 14.3884 12.7215 14.1693 12.745C12.7385 12.8915 11.3085 13.0529 9.88012 13.2268V11.4586C11.3085 11.2839 12.7385 11.1232 14.1693 10.9759Z" fill="white"/><path fill-rule="evenodd" clip-rule="evenodd" d="M35.7267 9.02117C37.2508 9.0102 38.775 9.01568 40.2984 9.03605V9.81004C38.6698 9.78889 37.0404 9.78419 35.411 9.7975C35.1903 9.79985 34.9697 9.99021 34.9697 10.2103V12.6169C34.9697 12.837 35.1903 13.0548 35.411 13.0525C36.8723 13.0399 38.3329 13.0423 39.7943 13.0587V11.7607C38.9462 11.7513 38.0981 11.7466 37.2508 11.7473V10.9726C38.3753 10.9726 39.4998 10.9812 40.6243 10.9977V13.8437C39.0444 13.8202 37.4644 13.8139 35.8845 13.8233C34.7278 13.8312 34.1396 13.6322 34.1396 12.5119V10.4187C34.1396 9.37292 34.665 9.02901 35.7267 9.02118V9.02117Z" fill="white"/><path fill-rule="evenodd" clip-rule="evenodd" d="M52.2341 9.52333C51.323 9.52591 50.9132 9.8134 50.9132 10.7559V12.9006C50.9132 14.042 51.5012 14.2648 52.6555 14.3423C53.7156 14.4144 54.7741 14.4941 55.8335 14.5811C56.976 14.6751 57.5737 14.4807 57.5737 13.402V11.2573C57.5737 10.1582 56.8818 9.86436 55.8335 9.77819C54.7741 9.69045 53.7156 9.61143 52.6555 9.53858C52.5046 9.52839 52.3642 9.52296 52.2341 9.52333ZM52.1838 10.2819C53.5587 10.372 54.9321 10.4754 56.3055 10.5914C56.5254 10.6102 56.7453 10.8176 56.7453 11.0683V13.4446C56.7453 13.6639 56.5254 13.8652 56.3055 13.8464C54.9321 13.7305 53.5587 13.6269 52.1838 13.536C51.9317 13.5188 51.7422 13.2879 51.7422 13.0678V10.6923C51.7422 10.4409 51.9317 10.2646 52.1838 10.2819Z" fill="white"/><path fill-rule="evenodd" clip-rule="evenodd" d="M32.0598 9.07629V12.5506C32.0598 13.6497 31.481 13.891 30.3149 13.927C29.2996 13.9583 28.2842 13.996 27.2689 14.0414C26.1868 14.09 25.5256 13.8847 25.5256 12.7966V9.32228L26.3549 9.27998V12.9008C26.3549 13.1209 26.5441 13.3003 26.7954 13.2886C28.1264 13.2267 29.4566 13.1765 30.7876 13.1381C31.0405 13.1311 31.2085 12.9384 31.2085 12.7183V9.09745C31.492 9.08961 31.7755 9.08257 32.0598 9.0763V9.07629Z" fill="white"/><path fill-rule="evenodd" clip-rule="evenodd" d="M42.7001 9.08044C44.7449 9.12901 46.7889 9.20579 48.8329 9.31076V10.0847C47.0661 9.99465 45.2985 9.92493 43.5301 9.87636V11.0585C45.103 11.1024 46.675 11.1619 48.2463 11.2379V12.0127C46.675 11.9367 45.103 11.8763 43.5301 11.8333V13.1305C45.2985 13.1791 47.0661 13.2488 48.8329 13.3397V14.1137C46.7889 14.0095 44.7449 13.9327 42.7001 13.8834V9.08044Z" fill="white"/><path fill-rule="evenodd" clip-rule="evenodd" d="M23.4455 9.44019V10.2142C21.6794 10.3231 19.9142 10.4523 18.1505 10.6019V11.7849C19.7194 11.6509 21.2891 11.5342 22.8597 11.4339V12.2087C21.2891 12.3089 19.7194 12.4257 18.1505 12.5588V13.8569C19.9142 13.7065 21.6794 13.5772 23.4455 13.4691V14.2431C21.403 14.3685 19.3621 14.522 17.322 14.703V9.89925C19.3621 9.71829 21.403 9.56553 23.4455 9.44019V9.44019Z" fill="white"/><path fill-rule="evenodd" clip-rule="evenodd" d="M59.1105 10.0714C61.2574 10.2798 63.4027 10.5195 65.5441 10.789V11.5638C64.6183 11.447 63.6909 11.3358 62.7627 11.2308V15.2598C62.4808 15.2276 62.1989 15.1963 61.9154 15.165V11.136C60.9817 11.0334 60.0457 10.9371 59.1105 10.8462V10.0714Z" fill="white"/><path fill-rule="evenodd" clip-rule="evenodd" d="M30.7047 19.2626C34.6467 18.9172 39.9809 18.8232 45.0764 19.2078C45.3662 19.2297 45.6481 19.2979 45.9159 19.4107C47.5853 20.1111 50.5473 21.6434 53.8407 23.5227C53.986 23.6057 54.1226 23.7029 54.2482 23.8133C55.1207 24.5803 57.3311 26.8364 57.3311 26.8364L56.6417 26.7001C56.5451 26.6813 56.4548 26.6437 56.3731 26.5889C54.9785 25.6543 52.9424 24.4377 51.236 23.5799C51.0334 23.4788 50.8143 23.4138 50.5889 23.3903C49.7589 23.3018 48.6368 23.2242 47.9026 23.1945C47.5406 23.1796 47.294 23.1192 46.9398 22.9399C46.263 22.5975 44.6233 21.8556 43.8067 21.5446C43.4572 21.4115 43.279 21.3801 42.9366 21.3856C41.5334 21.406 38.3366 21.5078 36.704 21.6089C36.6475 21.612 36.5933 21.6096 36.5383 21.601L35.7602 21.4796C37.9667 21.1004 43.4211 20.6155 45.6787 20.4972L44.76 20.1909C44.5825 20.1322 44.398 20.1009 44.2103 20.0962C43.7202 20.0845 42.6303 20.0628 41.2156 20.0609L40.7324 20.061C38.5895 20.0652 35.8325 20.1176 33.2897 20.3084C33.0675 20.3249 32.8508 20.3782 32.6466 20.4683C31.6195 20.9183 29.1149 22.273 26.603 23.6645L26.0452 23.974C25.3958 24.335 24.7532 24.694 24.1431 25.0362C24.1431 25.0362 24.4564 24.6343 24.5168 24.556C24.5702 24.4878 24.5867 24.4753 24.659 24.4283C24.7599 24.3622 25.1045 24.1358 25.452 23.906L25.7093 23.7355C25.9179 23.597 26.1041 23.4725 26.2091 23.4005C26.2609 23.3652 26.2939 23.3401 26.3591 23.2916C27.1153 22.7228 28.3089 21.7201 29.0203 21.0989C29.1813 20.9587 29.3179 20.7957 29.4302 20.614C29.6603 20.2426 29.9116 19.84 30.0663 19.6167C30.1982 19.4232 30.4235 19.2877 30.7047 19.2626V19.2626Z" fill="white"/><path fill-rule="evenodd" clip-rule="evenodd" d="M32.6143 23.0625C32.7046 23.0618 32.7612 23.1589 32.7164 23.2364L30.8114 26.5086C30.7054 26.7013 30.5279 26.8447 30.3174 26.9081L26.7453 28.0229C26.3307 28.1482 25.9805 28.2156 25.5486 28.2485C24.7562 28.308 22.4028 28.3817 22.4028 28.3817L22.4547 28.2704C22.479 28.218 22.5222 28.1764 22.5756 28.1537L23.6891 27.6821C23.7723 27.6469 23.8453 27.5928 23.9011 27.5231L25.6208 25.4111C25.7127 25.2983 25.8328 25.1902 25.9608 25.1228C27.0971 24.5267 29.1176 23.6312 30.5326 23.1596C30.6661 23.115 30.8459 23.0868 30.9865 23.0852L32.6143 23.0625Z" fill="white"/><path fill-rule="evenodd" clip-rule="evenodd" d="M23.7239 28.9417C23.7985 28.9354 23.8692 28.9769 23.8983 29.0451C23.9964 29.273 23.9697 29.5276 23.8747 29.7454C23.8378 29.8339 23.7239 29.9201 23.6305 29.9405L22.8492 30.1136C22.8021 30.1238 22.7589 30.0862 22.762 30.0384L22.835 29.1234C22.8405 29.0615 22.8892 29.0122 22.9512 29.0075L23.7239 28.9417Z" fill="white"/><path fill-rule="evenodd" clip-rule="evenodd" d="M41.0508 25.078C41.1678 25.0576 41.288 25.074 41.3955 25.125L42.2114 25.5143C42.2915 25.5527 42.3504 25.6255 42.3716 25.7133C42.4823 26.1786 42.6182 26.7951 42.7093 27.3192C42.7462 27.537 42.7054 27.7595 42.5946 27.9514C42.257 28.5366 41.5636 29.5895 41.1757 30.1551C41.0893 30.282 41.0791 30.4355 41.1058 30.5867C41.2817 31.5565 42.0151 34.9431 42.0151 34.9431L41.5534 34.524C41.4615 34.4394 41.401 34.3501 41.3618 34.2334C41.0335 33.2753 40.4195 31.2737 40.1368 30.3C40.0912 30.1394 40.1258 29.9678 40.2318 29.8402C40.7132 29.2573 41.4144 28.3251 41.8243 27.7344C41.9389 27.5683 41.9766 27.385 41.9091 27.2479C41.8149 27.0552 41.6563 26.7622 41.5039 26.4967C41.4631 26.423 41.3948 26.3682 41.3139 26.3416L40.7603 26.1645C40.6637 26.134 40.56 26.1355 40.4642 26.17C39.2581 26.6063 37.6357 27.2354 36.6432 27.6459C36.4979 27.7062 36.4382 27.7109 36.2623 27.6843C35.9749 27.642 35.1378 27.4924 34.7271 27.4156C34.6533 27.4015 34.6164 27.3184 34.6541 27.2534L35.141 26.4121C35.2069 26.2985 35.3161 26.2178 35.4449 26.1888C37.0107 25.8331 39.0814 25.4242 41.0508 25.078V25.078Z" fill="white"/><path fill-rule="evenodd" clip-rule="evenodd" d="M24.0264 25.9597L23.706 26.353C23.688 26.3702 23.6707 26.3867 23.6526 26.4047C23.3707 26.6123 22.1842 27.5187 21.863 27.7725C21.7719 27.8445 21.7358 27.9072 21.7146 28.0208C21.6424 28.4219 21.5222 29.1841 21.4869 29.6064C21.4767 29.7302 21.4233 29.7913 21.2968 29.8422C20.7464 30.0654 20.0938 30.3005 19.5661 30.5112C19.4531 30.5558 19.4217 30.5731 19.3549 30.624C19.3023 30.6647 18.6011 31.2891 18.6011 31.2891C18.6011 31.2891 20.1252 30.9146 20.6843 30.7885C20.8178 30.7587 20.8752 30.7666 20.9984 30.8245C21.1139 30.8778 21.3063 30.9538 21.4076 30.9906C21.563 31.0478 21.6455 31.0455 21.8175 31.0079C22.4472 30.8676 23.5066 30.6169 24.0704 30.4705C24.3633 30.3945 24.5235 30.3153 24.7716 30.1422C25.0417 29.955 25.7257 29.4434 25.7257 29.4434C25.7257 29.4434 25.7131 29.5335 25.7037 29.5837C25.6966 29.6267 25.6809 29.651 25.6527 29.6847C25.5137 29.8516 25.2702 30.1234 25.1493 30.248C24.8721 30.5339 24.7064 30.6357 24.3586 30.7807C22.7566 31.4466 20.0192 32.4806 17.9658 33.1896C17.8315 33.2366 17.7734 33.275 17.6737 33.3768C17.5653 33.4865 17.4208 33.6463 17.4208 33.6463C17.4208 33.6463 19.095 33.7677 19.6062 33.8265C19.7719 33.8453 19.8905 33.8993 20.0169 34.0082C20.437 34.3686 21.8277 35.7967 22.2439 36.2926C22.2439 36.2926 18.2901 36.9483 16.4581 37.4018C16.2319 37.4575 16.1189 37.6008 16.0678 37.7818C15.9163 38.3129 15.559 40.0207 15.559 40.0207C15.559 40.0207 15.4318 39.98 15.2543 39.8781C15.1326 39.8084 15.0706 39.7504 14.9371 39.6094C14.5036 39.1527 13.7914 38.2784 13.449 37.7716C13.3485 37.622 13.3061 37.4316 13.4317 37.2788C13.8031 36.8229 14.5491 35.991 14.9606 35.5632C15.0046 35.517 15.0603 35.4363 15.1192 35.3204C15.2577 35.0461 15.4402 34.3513 15.5038 34.1004L15.5241 34.0192L15.5268 34.0082C15.5268 34.0082 15.5228 34.0106 15.5157 34.0151L15.4406 34.0623C15.3387 34.1261 15.1742 34.2294 15.1035 34.2738C14.9975 34.3411 14.9685 34.3701 14.9245 34.4626C14.8577 34.602 14.7407 34.8221 14.652 34.9749C14.6229 35.025 14.5452 35.1026 14.5036 35.1347C13.9782 35.535 13.3979 35.9651 12.9849 36.255C12.9566 36.2745 12.9205 36.2659 12.8962 36.2424C12.8435 36.1899 12.6229 35.94 12.5836 35.8813C12.5506 35.8319 12.5357 35.7857 12.5357 35.7262C12.5349 35.622 12.5451 35.4387 12.5554 35.3024C12.5679 35.141 12.6143 35.0642 12.8113 34.8605C13.032 34.6326 13.2723 34.3928 13.5251 34.1469C14.1447 33.6267 15.7089 32.3608 18.5021 30.3725C18.5547 30.3349 18.6026 30.2911 18.6411 30.2386C18.9348 29.8437 19.7679 28.7658 19.9737 28.5096C20.0027 28.4736 20.0349 28.4399 20.0718 28.4109C20.4009 28.1516 20.5634 28.0396 20.8971 27.8297C21.6753 27.3408 23.1822 26.4493 24.0264 25.9597L24.0264 25.9597Z" fill="white"/><path fill-rule="evenodd" clip-rule="evenodd" d="M17.7113 39.3937L17.3666 41.7665L16.1942 40.3941C16.4078 39.9326 17.0321 39.4971 17.7113 39.3937Z" fill="white"/><path fill-rule="evenodd" clip-rule="evenodd" d="M25.4329 40.6526C24.8487 41.6115 24.1506 42.6298 23.6229 43.266C23.5538 43.349 23.462 43.4132 23.3575 43.4524C22.7803 43.6678 21.8184 43.9922 21.1101 44.2076L25.4329 40.6526Z" fill="white"/><path fill-rule="evenodd" clip-rule="evenodd" d="M50.3571 25.247C50.6664 25.1334 51.0057 25.1412 51.3096 25.2689C53.6669 26.256 57.6309 28.5779 59.8343 30.2136C60.0471 30.3719 60.1319 30.4808 60.1877 30.7361C60.7052 33.0832 60.9015 36.711 60.5756 39.7654C60.552 39.9848 60.5081 40.1164 60.3934 40.3506C58.9972 43.1982 57.4259 45.8782 55.7722 47.9455L55.7755 47.9117C55.797 47.6916 55.9157 46.4503 55.9221 45.7787C55.9229 45.7027 55.9582 45.633 56.0187 45.5868C56.3258 45.3486 56.7474 45.0102 56.9862 44.8042C57.1024 44.7039 57.1668 44.6287 57.2272 44.5315C57.901 43.4458 59.1056 41.1724 59.5908 39.8046C59.7094 39.4709 59.7565 39.1176 59.7275 38.7643C59.572 36.8583 59.272 34.2175 58.8252 32.4941C58.7491 32.2003 58.5543 31.952 58.2834 31.8133C57.8978 31.6159 57.1416 31.272 55.4196 30.5834C55.1808 30.4878 54.9578 30.3554 54.7615 30.1909C53.6323 29.2446 51.8671 27.8259 50.7685 27.0096C50.4473 26.7707 50.0374 26.6837 49.6464 26.7722C48.8462 26.9532 47.8277 27.2054 47.2545 27.3605C47.0597 27.413 46.9828 27.4177 46.7817 27.3942C46.677 27.3821 46.5417 27.3689 46.3996 27.356L46.1842 27.3371C45.9339 27.3158 45.6991 27.2977 45.6071 27.2908L45.5662 27.2877C47.4343 26.4127 49.2317 25.6575 50.357 25.247L50.3571 25.247Z" fill="white"/><path fill-rule="evenodd" clip-rule="evenodd" d="M22.5425 37.2872C22.7279 37.2277 22.925 37.2206 23.1134 37.2661C23.9631 37.4698 25.7613 37.9092 27.1206 38.2563C27.3114 38.3048 27.5493 38.4827 27.6506 38.6511L27.9467 39.1423C28.0503 39.3146 28.0574 39.5261 27.9655 39.7047C27.7184 40.1825 27.366 40.8295 26.9935 41.4966L26.7116 41.9984C26.1928 42.9167 25.6761 43.8026 25.3828 44.2687C25.1896 44.5766 25.0821 44.7129 24.7381 44.8344C23.4008 45.3036 21.74 45.8645 20.7529 46.1833C20.5511 46.2484 20.4828 46.3706 20.5221 46.5938C20.5928 47.0004 20.8205 48.3807 20.9076 48.7834C20.9398 48.9322 21.0592 49.0505 21.2806 49.0082C21.8641 48.8978 23.4173 48.5186 23.4173 48.5186C23.4173 48.5186 22.9595 48.9409 22.6855 49.19C22.6352 49.237 22.5771 49.2714 22.5119 49.2926C22.0887 49.4336 21.0553 49.7227 20.7333 49.7932C20.482 49.8472 20.3218 49.7485 20.2575 49.4649C20.2575 49.4649 19.8169 47.5942 19.6575 46.9581C19.6324 46.861 19.6073 46.7771 19.5766 46.6816C19.4573 46.3134 19.1707 45.5895 19.0089 45.2104C18.99 45.1665 18.9806 45.1195 18.9814 45.0709C18.9861 44.6377 19.0662 43.671 19.0662 43.671C19.0662 43.671 20.0172 44.5602 20.4773 44.8814C20.581 44.9542 20.643 44.9691 20.7702 44.937C21.4024 44.7748 22.8559 44.2954 23.6537 43.9977C23.8359 43.9295 23.9953 43.8152 24.1193 43.6655C24.9446 42.6714 25.9796 41.125 26.5772 39.9586C26.6596 39.798 26.6754 39.6139 26.6235 39.4415L26.4947 39.0185C26.457 38.8947 26.3259 38.7553 26.205 38.7091C24.7986 38.1756 23.6898 37.7792 22.3871 37.3366L22.5425 37.2872Z" fill="white"/><path fill-rule="evenodd" clip-rule="evenodd" d="M47.7434 32.5023L48.2295 32.713C48.3732 32.7749 48.5043 32.8658 48.6127 32.9786C51.5928 36.0808 53.976 39.2974 54.4534 40.145C54.5453 40.308 54.6081 40.4709 54.6309 40.6573C55.1665 45.1814 54.7063 49.9741 53.6124 54.1433C53.5135 54.5193 53.4028 54.712 53.04 54.9839C51.8722 55.86 50.1289 57.2571 48.3952 58.6814L47.8488 59.1316C45.7604 60.8562 43.7764 62.5446 42.9345 63.3214C42.7233 63.5173 42.5387 63.7382 42.388 63.9834C41.9932 64.6234 41.3904 65.7249 41.0944 66.2716L41.0117 66.4246C40.9524 66.5348 40.918 66.5991 40.918 66.5991C40.5254 65.7445 39.6694 63.6591 39.3757 62.8162C39.2799 62.5412 39.2627 62.3971 39.364 62.0289C39.843 60.2811 42.1069 55.2001 42.5474 54.2812L42.5481 54.6572C42.5481 54.712 42.5395 54.7661 42.5222 54.8178C42.3235 55.4187 41.1064 59.4233 40.859 61.1601C40.8041 61.5463 40.8088 61.6505 40.859 62.0296C40.9674 62.8404 41.4535 64.3273 41.4535 64.3273C41.4535 64.3273 41.7417 63.7272 42.0102 63.3214C42.1421 63.1225 42.2214 63.0269 42.4366 62.8138C43.525 61.7401 45.3817 60.0805 47.3157 58.4115L48.0004 57.8231C49.4859 56.5513 50.9691 55.3137 52.1408 54.3681C52.4455 54.1222 52.5594 53.9576 52.6269 53.4908C52.963 51.1907 53.0603 47.0623 52.8577 44.058C52.8193 43.4909 52.6347 42.9425 52.3144 42.4717C51.5794 41.3882 50.7006 40.3628 49.3681 39.0459C49.178 38.8571 49.0485 38.6158 48.9998 38.3526C48.6111 36.2845 47.7434 32.5023 47.7434 32.5023H47.7434Z" fill="white"/><path fill-rule="evenodd" clip-rule="evenodd" d="M32.0538 34.0079C32.0538 34.0079 32.3246 34.8828 32.5857 35.833L32.677 36.1701C32.842 36.7892 32.9891 37.4004 33.0424 37.787C33.0934 38.1591 33.0848 38.2594 32.9521 38.6158C32.6303 39.4696 32.0381 40.843 31.4064 42.2469L31.1339 42.8491C30.3588 44.5525 29.5741 46.198 29.1931 46.9103C29.0054 47.2612 28.8287 47.49 28.4753 47.848C27.6689 48.6666 26.1251 50.2138 25.1694 51.0794C24.8223 51.3944 24.7289 51.6631 24.6582 52.0704C24.5443 52.7246 24.4313 53.8409 24.3999 54.4174C24.3724 54.9243 24.4548 55.1617 24.7383 55.6638C26.4227 58.6603 32.0459 65.554 33.6478 67.0017C33.764 67.1067 33.8489 67.1772 34.0939 67.3394C34.3294 67.496 35.0974 67.9927 35.0974 67.9927C35.128 68.0139 35.154 68.0421 35.1736 68.0742L35.4516 68.5622C35.4516 68.5622 35.4256 68.5494 35.3787 68.5262L35.2587 68.4667C35.1621 68.4188 35.0345 68.3554 34.8878 68.2823L34.5308 68.1041C33.9836 67.8302 33.3312 67.5008 32.9882 67.3167C32.8469 67.2407 32.7142 67.1514 32.5909 67.0487C30.7149 65.4945 24.966 58.7848 23.2754 55.9834C22.8537 55.2839 22.8105 55.0575 22.867 54.3955C22.973 53.1632 23.1372 51.6137 23.2809 50.9345C23.368 50.5248 23.4583 50.2843 23.7732 49.9224C24.8314 48.7075 26.1221 47.1037 27.3798 45.4581L27.8219 44.8761C29.7279 42.3516 31.4837 39.8247 32.1393 38.5375C32.2893 38.2445 32.3019 38.1426 32.305 37.8661C32.3137 37.0639 32.0569 35.5018 31.9894 35.107C31.9792 35.0451 31.976 34.9825 31.9815 34.9198L32.0538 34.0079Z" fill="white"/><path fill-rule="evenodd" clip-rule="evenodd" d="M37.1931 43.9374C37.1931 43.9374 37.4098 45.2198 37.4758 45.5919C37.5127 45.8026 37.5206 45.859 37.4672 46.0658C37.294 46.7308 36.4938 50.2361 35.8533 53.8244L35.7536 54.3912C35.4919 55.9025 35.2659 57.4027 35.1342 58.6862C35.0596 59.4155 35.0839 59.5902 35.2771 60.2373C35.8244 62.0657 37.8488 66.8427 38.2375 67.7139C38.2807 67.8102 38.3066 67.9113 38.3192 68.0155L38.4652 69.142C37.8166 68.1651 34.2924 61.7045 32.908 58.1268C32.7446 57.7054 32.7132 57.4978 32.8938 56.723C33.8566 52.6126 36.4613 45.6279 37.1931 43.9374H37.1931Z" fill="white"/></g><defs><clipPath id="clip0_809_263"><rect width="73.6384" height="80.8203" fill="white" transform="translate(0.469482 0.300659)"/></clipPath></defs></svg> 