<!-- created by svgstack.com | Attribution is required. --><svg width="342" height="45" viewBox="0 0 342 45" fill="none" xmlns="http://www.w3.org/2000/svg"><path d="M291.62 17.9158V44.6875H300.177V26.8397H331.472V44.6875H340.029V17.9158H291.62ZM299.199 9.2364H332.206C336.851 8.38068 340.151 4.22435 341.129 0.3125H290.275C291.253 4.22435 294.676 8.25844 299.199 9.2364ZM265.582 44.6875C269.86 42.8538 272.183 39.6754 273.161 36.0081H234.654V0.434745H225.974V44.6875H265.582ZM161.796 9.11415H192.357C197.002 7.76946 200.792 4.22435 201.77 0.434745H153.361V26.5952H192.968V35.7636H161.918C157.028 37.1083 152.872 40.4089 150.794 44.6875H201.525V17.9158H161.918L161.796 9.11415ZM86.4927 9.2364H119.499C124.144 8.38068 127.567 4.22435 128.423 0.3125H77.4466C78.4245 4.22435 81.8474 8.25844 86.4927 9.2364ZM86.4927 26.7175H119.499C124.144 25.8617 127.567 21.7054 128.423 17.7936H77.4466C78.4245 21.7054 81.8474 25.7395 86.4927 26.7175ZM86.4927 44.6875H119.499C124.144 43.8318 127.567 39.6754 128.423 35.7636H77.4466C78.4245 39.6754 81.8474 43.8318 86.4927 44.6875Z" fill="#E82127"/><path d="M0.554306 0.434745C1.53227 4.34659 4.95513 8.25844 9.4782 9.2364H23.4142L24.1476 9.48089V44.5653H32.827V9.48089L33.5605 9.2364H47.4965C52.1418 8.01395 55.4424 4.34659 56.4204 0.434745V0.3125L0.554306 0.434745Z" fill="#E82127"/></svg> 